<?xml version="1.0" encoding="utf-8"?>
<!-- Generator: Adobe Illustrator 19.2.1, SVG Export Plug-In . SVG Version: 6.00 Build 0)  -->
<svg version="1.1" id="Layer_1" xmlns="http://www.w3.org/2000/svg" xmlns:xlink="http://www.w3.org/1999/xlink" x="0px" y="0px"
	 viewBox="0 0 202 94.0796" style="enable-background:new 0 0 202 94.0796;" xml:space="preserve">
<style type="text/css">
	.st0{fill:#FAE1DC;}
	.st1{fill:#B7DDEB;}
</style>
<g id="XMLID_1_">
	<g>
		<path class="st0" d="M76.035,31.1548v2.71c-1.9,0.38-3.81001,0.84-5.72,1.15c0,1.18-0.25,2.7,0.38,3.53
			c0.15,0.21,0.34,0.41,0.52,0.62h-57.65l-0.13,0.14l-6.81-6.23c-1.38-1.26-0.63-3.57,1.23-3.78l20.77-2.34
			c0.76-0.09,1.42-0.57,1.74-1.27l8.64-19.02c0.39-0.86,1.19-1.28,1.99-1.28s1.6,0.42,1.99,1.28l8.64,19.02
			c0.32,0.7,0.98,1.18,1.75,1.27l20.76,2.34C75.215,29.4148,75.895,30.2448,76.035,31.1548z"/>
		<path class="st0" d="M93.345,39.1648h-15.9c1.31-2.01,3.69-3.35,6.41-3.35H86.935C89.655,35.8148,92.035,37.1548,93.345,39.1648z"
			/>
		<path class="st0" d="M124.565,39.1648h-15.91c1.31-2.01,3.7-3.35,6.41-3.35h3.07999
			C120.865,35.8148,123.255,37.1548,124.565,39.1648z"/>
		<path class="st0" d="M188.715,39.1648H130.785c0.17999-0.21,0.36-0.41,0.51999-0.62c0.63-0.83,0.38-2.35,0.38-3.53
			c-1.89-0.31-3.77-0.76-5.66-1.13v-3.02c0.23-0.79,0.88-1.46,1.84-1.57l20.77-2.34c0.76001-0.09,1.42-0.57,1.74001-1.27l8.64-19.02
			c0.39-0.86,1.19-1.28,1.99001-1.28c0.79999,0,1.59999,0.42,1.98999,1.28l8.64,19.02c0.32001,0.7,0.98001,1.18,1.75,1.27
			l20.76001,2.34c1.87,0.21,2.61,2.52,1.23,3.78l-6.64999,6.09H188.715z"/>
		<path class="st1" d="M200.655,29.2648c0.86,2.65,0.09,5.57-1.95999,7.44l-1.68001,1.54l-12.60001,11.51l0.38,1.85
			c-1.34,0.79-2.86,1.57-4.53999,2.35l-0.97-4.73c-0.15001-0.75,0.09999-1.53,0.67-2.05l8.75999-8.01h0.01001l6.64999-6.09
			c1.38-1.26,0.64-3.57-1.23-3.78l-20.76001-2.34c-0.76999-0.09-1.42999-0.57-1.75-1.27l-8.64-19.02
			c-0.39-0.86-1.19-1.28-1.98999-1.28c-0.8,0-1.60001,0.42-1.99001,1.28l-8.64,19.02c-0.32001,0.7-0.98,1.18-1.74001,1.27
			l-20.77,2.34c-0.96,0.11-1.61,0.78-1.84,1.57c-1.6-0.28-3.23-0.49-4.91-0.54c0.06001-0.36,0.13-0.71,0.24001-1.06
			c0.85999-2.64,3.2-4.55,5.96-4.86l19.22-2.17l8.00999-17.61c1.15001-2.53,3.68001-4.16,6.46001-4.16s5.31999,1.63,6.47,4.16
			l8,17.61l19.22,2.17C197.455,24.7148,199.795,26.6248,200.655,29.2648z"/>
		<path class="st1" d="M199.155,41.2048c-0.23-0.66-0.45-1.13-0.66-1.52c0-0.01-0.00999-0.01-0.00999-0.02l0.56999-0.5
			c1.23001,2.03,1.46001,3.32,1.46001,5.49c0,4.29-2.5,8.24-7.05,11.77c0.02-0.05,0.03-0.11,0.04001-0.17
			c0.15999-0.69,0.31-1.34,0.53999-1.84l0.36-0.78c1.06-0.95,3.28-3.48,4.3-5.28c1.09-1.9,0.98-3.74,0.95-4.31
			C199.595,42.7148,199.395,41.8948,199.155,41.2048z"/>
		<path class="st1" d="M198.785,43.5848c0-1.14-0.3-2.29-0.84-3.44l0.43999-0.4c1.16,2.45,1.08,3.58,1.13,4.73
			c0.00999,0.35-0.06999,1.33-0.27,2.12c-0.12999,0.54-0.5,1.31-0.72,1.66c-1.17999,1.88-3.56,4-5.31,4.95l-0.25999,0.12
			c-0.33,0.16-0.86,0.19-1.45,0.16C196.22501,50.3248,198.785,46.9548,198.785,43.5848z"/>
		<path class="st1" d="M188.295,68.7148c0.43001,2.1-0.09999,4.25-1.45,5.9c-1.36,1.67-3.37,2.63-5.50999,2.63
			c-1.22,0-2.43001-0.32999-3.5-0.93l-8.99001-5.1c2.23-0.63,4.38-1.3,6.45999-1.99l4.96001,2.81
			c0.35001,0.2,0.72,0.29,1.07001,0.29c1.28999,0,2.43999-1.19,2.14-2.63l-0.67001-3.3c1.60001-0.68,3.12001-1.4,4.58-2.13
			L188.295,68.7148z"/>
		<path class="st1" d="M186.83501,60.5248c0.03,0.01,0.04999,0.01,0.06999,0.01c-1.75999,0.92-3.67999,1.79-5.75,2.63
			c0.06-0.12,0.13-0.23,0.19-0.35c0.56-1.04,1.09-2.03,1.77-2.33C184.005,60.0848,185.44501,60.3148,186.83501,60.5248z"/>
		<path class="st1" d="M191.22501,58.0448c-0.09001,0.17-0.19,0.33-0.3,0.47c-0.14,0.17-0.28,0.33-0.46001,0.43
			c-0.14,0.08-0.31999,0.12-0.50999,0.15c-0.16,0.03-0.33,0.04-0.50999,0.04c-0.68001,0.02-1.52-0.1-2.35001-0.23
			c-0.00999,0-0.00999,0-0.02,0c-0.89-0.14-1.81-0.28-2.66-0.28c-0.14,0-0.26999,0.01-0.40999,0.01
			c0.22-0.41,0.40999-0.84,0.59-1.25c0.02-0.04,0.05-0.09,0.06999-0.14c0.09001-0.21,0.19-0.43,0.29001-0.64
			c0.05-0.09,0.09999-0.18,0.14999-0.28c0.06-0.12,0.13-0.25,0.19-0.36c0.07001-0.12,0.15001-0.22,0.22-0.32
			c0.05-0.07,0.10001-0.15,0.14999-0.21c0.13-0.15,0.27-0.26,0.42001-0.34c0.2-0.1,0.43999-0.16,0.68999-0.21
			c0.10001-0.01,0.22-0.02,0.33-0.03c0.16-0.01,0.32001-0.03,0.5-0.03c0.15001,0,0.32001,0.01,0.48001,0.01
			c0.12999,0.01,0.26999,0.02,0.40999,0.03c0.23001,0.01,0.47,0.03,0.70001,0.06c0.18999,0.02,0.37,0.03,0.56,0.06
			c0.81999,0.09,1.59,0.18,2.34,0.15c-0.07001,0.25-0.12,0.5-0.18001,0.75C191.735,56.6648,191.535,57.4348,191.22501,58.0448z"/>
		<path class="st1" d="M182.325,58.2748c-0.31,0.52-0.67,0.94-1.12,1.12c-0.39,0.16-0.97,0.1-1.62-0.03
			C180.535,59.0048,181.44501,58.6448,182.325,58.2748z"/>
		<path class="st1" d="M177.755,64.6848c-0.15001,0.06-0.34001,0.07-0.54001,0.07c-0.06999,0-0.12999,0-0.2,0
			c-0.03999,0-0.06999,0-0.11,0c-0.74001-0.05-1.64-0.32-2.53-0.6c-0.99001-0.31-2.00999-0.62-2.97-0.71
			c-0.06,0-0.11-0.01-0.17-0.01c0.28999-0.4,0.56-0.82,0.81999-1.22c0.08-0.13,0.17001-0.26,0.25-0.39
			c0.10001-0.16,0.21001-0.32,0.32001-0.47c0.06-0.09,0.13-0.18,0.2-0.27c0.08-0.11,0.15001-0.21,0.23-0.3
			c0.09001-0.11,0.19-0.2,0.28001-0.29c0.06-0.06,0.12-0.13,0.17999-0.18c0.16-0.13,0.32001-0.23,0.48-0.29
			c0.20001-0.06,0.44-0.09,0.68001-0.09c0.09999,0,0.2,0.01,0.3,0.02c0.15999,0.01,0.31999,0.02,0.48999,0.05
			c0.14,0.03,0.28,0.05,0.43001,0.09c0.12999,0.02,0.26999,0.05,0.39999,0.09c0.21001,0.05,0.41,0.1,0.61,0.16s0.41,0.11,0.61,0.17
			c0.98,0.29,1.97,0.58,2.89,0.61c-0.17999,0.31-0.34,0.61-0.5,0.92c-0.16,0.3-0.33,0.61-0.5,0.9
			c-0.28999,0.48-0.60001,0.93-0.94,1.26c-0.06,0.06001-0.12,0.10001-0.17999,0.16
			C178.11501,64.4948,177.94501,64.6148,177.755,64.6848z"/>
		<path class="st1" d="M173.88499,65.7148c0.02,0.01,0.03,0.01,0.05,0.02c-1.89,0.6-3.87,1.17-5.92,1.71
			c0.02-0.03,0.05-0.07,0.07001-0.10001c0.25999-0.35999,0.53-0.73,0.79999-1.05c0.45001-0.55,0.91-1,1.39-1.14
			c0.29001-0.09,0.63-0.1,1-0.08C172.065,65.1548,172.985,65.4348,173.88499,65.7148z"/>
		<path class="st1" d="M169.855,62.5248c-0.44,0.57-0.89999,1.05-1.42,1.2c-0.50999,0.14-1.22-0.03-1.98-0.29
			C167.61501,63.1348,168.745,62.8348,169.855,62.5248z"/>
		<path class="st1" d="M162.095,63.6848c0.17999,0.02,0.36,0.06,0.55,0.11c0.08,0.02,0.15999,0.04,0.23999,0.06
			c0.23001,0.07,0.47,0.15,0.71001,0.24c0.03999,0.01,0.06999,0.02,0.10001,0.03001c0.29999,0.11,0.60999,0.24,0.90999,0.36
			c0.97,0.39,1.96001,0.78999,2.90001,0.89999c-0.12001,0.16-0.25,0.33-0.37001,0.49001c-0.12999,0.17-0.25,0.34-0.37,0.50999
			c-0.48,0.65-0.96001,1.29-1.48,1.76c-0.14,0.13-0.29001,0.24-0.44,0.34c-0.18001,0.10999-0.36,0.21-0.55,0.25999
			c-0.17999,0.05-0.39,0.04-0.61,0.03c-0.2-0.02-0.39999-0.06-0.62-0.10999c-0.66-0.16-1.39-0.45-2.12-0.75
			c-0.97-0.41-1.96001-0.82001-2.92001-0.98c0.33-0.38,0.66-0.79,0.97-1.19c0.34001-0.43999,0.69-0.87,1.04001-1.24
			c0.05-0.05,0.09-0.09,0.14-0.14c0.12999-0.12,0.25-0.23,0.37999-0.32c0.05-0.04,0.10001-0.08,0.15001-0.12
			c0.17-0.11,0.34-0.2,0.50999-0.24c0.2-0.05,0.42-0.05,0.66-0.03C161.94501,63.6548,162.015,63.6648,162.095,63.6848z"/>
		<path class="st1" d="M157.235,68.5048c0.8,0,1.8,0.39,2.8,0.8c-1.78,0.38-3.59,0.73-5.46001,1.07
			c0.28-0.32,0.56-0.63,0.85001-0.91c0.47-0.46,0.94-0.82,1.41-0.92C156.965,68.5148,157.095,68.5048,157.235,68.5048z"/>
		<path class="st1" d="M157.045,65.5548c-0.58,0.68-1.17,1.25-1.8,1.38c-0.59999,0.13-1.45999-0.19-2.34-0.6
			C154.30499,66.0848,155.685,65.8248,157.045,65.5548z"/>
		<path class="st1" d="M151.265,71.3348c-0.03,0.02-0.06,0.05-0.09,0.06c-0.23,0.14-0.46001,0.24-0.7,0.29
			c-0.23001,0.04-0.49001,0.02-0.77-0.04c-0.04001,0-0.08-0.02-0.12-0.03c-0.25-0.06-0.51001-0.14-0.78001-0.25
			c-0.53-0.2-1.07999-0.47-1.62-0.75c-0.86-0.43-1.75-0.87-2.62-1.11c0.38-0.37,0.75-0.77,1.11-1.17c0.3-0.33,0.61-0.66,0.92-0.96
			c0.14-0.14,0.28-0.27,0.42999-0.39c0.13-0.11,0.26001-0.21001,0.39-0.29c0.05-0.04,0.11-0.06001,0.16-0.10001
			c0.18001-0.09,0.35001-0.17,0.52-0.2c0.19-0.03,0.39999-0.02,0.62,0.01c0.07001,0.01,0.14,0.02,0.22,0.04
			c0.15001,0.03,0.32001,0.07999,0.48,0.13c0.22,0.07,0.44,0.16,0.68001,0.25c0.42,0.18,0.85001,0.38,1.28,0.59
			c0.89,0.43999,1.8,0.89,2.69,1.07999c-0.16,0.16-0.31,0.34-0.46001,0.51c-0.15999,0.17-0.31,0.34-0.45999,0.51
			c-0.41,0.48-0.84001,0.96-1.27,1.35C151.675,71.0448,151.47501,71.2048,151.265,71.3348z"/>
		<path class="st1" d="M143.33501,70.9648c0.73999,0,1.62,0.38,2.50999,0.82c-1.62,0.23-3.25999,0.44-4.93001,0.64
			c0.09001-0.09,0.18001-0.18,0.27-0.25999c0.64-0.60001,1.29001-1.09,1.89-1.18C143.155,70.9748,143.245,70.9648,143.33501,70.9648
			z"/>
		<path class="st1" d="M143.995,67.7448c-0.70999,0.75-1.42999,1.42001-2.14999,1.53c-0.72,0.10001-1.66-0.38-2.63-0.91
			C140.83501,68.1648,142.425,67.9548,143.995,67.7448z"/>
		<path class="st1" d="M141.905,44.6048c0.59,1.84,0.08,3.79-1.35001,5.09l-16.99999,15.55l0.17,0.81001
			c-1.62,0.12-3.27,0.21999-4.93999,0.31l-0.03001-0.18c-0.35-1.67,0.22-3.42,1.48-4.57l7.5-6.86c0.58-0.42,1.09-0.89,1.53-1.4
			l7.97-7.29l-4.25-0.46c0.61-1.57,1.24001-3.21,1.75999-4.68l3.07001,0.35C139.735,41.4848,141.30499,42.7648,141.905,44.6048z"/>
		<path class="st1" d="M137.255,73.4448c-0.06,0.03-0.13,0.06-0.19,0.09c-0.21001,0.09-0.41,0.17-0.61,0.2
			c-0.2,0.02-0.41-0.01-0.63-0.06001c-0.06999-0.00999-0.14999-0.03-0.22-0.05c-0.14999-0.04-0.3-0.10001-0.45999-0.16
			c-0.23001-0.09-0.46001-0.2-0.7-0.32c-0.40001-0.2-0.81001-0.43-1.21001-0.66c-0.75999-0.44-1.53-0.88-2.31-1.17001
			c0.44-0.36,0.84999-0.77,1.25999-1.17c0.42-0.41,0.84-0.81,1.26001-1.14c0.2-0.16,0.39999-0.3,0.59-0.41
			c0.03-0.00999,0.06-0.03999,0.09-0.05c0.21001-0.12,0.42999-0.2,0.64-0.22c0.22-0.03,0.47,0,0.74001,0.07
			c0.03,0,0.06999,0.02,0.09999,0.03c0.25,0.07,0.5,0.16,0.76001,0.28c0.50999,0.23,1.04999,0.52,1.58,0.82
			c0.78999,0.45,1.59999,0.91,2.40999,1.18c-0.37,0.32-0.72,0.68-1.08,1.03001c-0.36,0.35999-0.72,0.7-1.07999,1.02
			c-0.15001,0.13-0.3,0.25-0.45001,0.36C137.58501,73.2448,137.41499,73.3548,137.255,73.4448z"/>
		<path class="st1" d="M129.285,72.6248c0.64,0,1.42999,0.35,2.23999,0.78c-1.45999,0.13-2.92999,0.25-4.41999,0.36
			c0.25999-0.22,0.52-0.43,0.78-0.6c0.43999-0.3,0.85999-0.5,1.24999-0.53001C129.185,72.6348,129.235,72.6248,129.285,72.6248z"/>
		<path class="st1" d="M130.765,69.2448c-0.83,0.79-1.67,1.55-2.46001,1.62c-0.75999,0.07-1.8-0.55-2.81999-1.19
			C127.275,69.5448,129.02499,69.3948,130.765,69.2448z"/>
		<path class="st1" d="M128.185,87.7748c0.3,1.44-0.06,2.91-0.98,4.04c-0.94,1.15-2.32,1.8-3.79,1.8c-0.83,0-1.66-0.22-2.39-0.63
			l-20.05-11.37l0.02-2.3h0.00999c1.93,0,3.86-0.02,5.79-0.06l16.65,9.45l-2.09-10.03999c1.63-0.10001,3.25999-0.22,4.89-0.35001
			L128.185,87.7748z"/>
		<path class="st1" d="M123.595,74.5148c-0.15,0.09-0.29,0.18-0.43,0.25c-0.08,0.03-0.15,0.07-0.22,0.1
			c-0.21,0.08-0.43,0.15-0.63,0.17c-0.21,0.01-0.43-0.02-0.66-0.08c-0.07-0.02-0.14-0.03999-0.22-0.07
			c-0.14999-0.05-0.32-0.12-0.48-0.2c-0.08-0.04-0.17-0.07-0.25-0.11c-0.2-0.11-0.39-0.22-0.59-0.34
			c-0.00999-0.01-0.02-0.02-0.03-0.02h-0.01c-0.3-0.19-0.61-0.39-0.91-0.59c-0.66-0.42001-1.32-0.85001-2-1.17001
			c0.49-0.36,0.97-0.78,1.44-1.18999c0.13-0.11,0.27-0.23,0.39999-0.34c0.4-0.34,0.8-0.66,1.18-0.91
			c0.19-0.11,0.38-0.22,0.56001-0.3c0.18999-0.08,0.38-0.14,0.56-0.15c0.2-0.02,0.41,0.01,0.64,0.06001
			c0.21,0.06,0.43,0.14999,0.66,0.25c0.57999,0.27,1.18999,0.66,1.78999,1.04c0.69,0.45,1.4,0.89999,2.12,1.21
			c-0.21,0.17-0.43,0.34-0.64,0.52s-0.41,0.36-0.62,0.54c-0.3,0.27-0.61,0.54-0.91,0.78
			C124.095,74.1748,123.845,74.3548,123.595,74.5148z"/>
		<path class="st1" d="M117.165,74.3248c-1.32,0.06-2.65,0.11-3.99,0.15c0.67-0.48,1.32999-0.87,1.91-0.9c0.02,0,0.05,0,0.07,0
			C115.755,73.5848,116.455,73.9148,117.165,74.3248z"/>
		<path class="st1" d="M117.385,70.1548c-0.23,0.2-0.46,0.4-0.69,0.59c-0.47,0.37-0.93,0.7-1.37,0.89
			c-0.21999,0.09-0.43999,0.15-0.64999,0.16c-0.82,0-1.88-0.7-2.9-1.43C113.665,70.3048,115.535,70.2348,117.385,70.1548z"/>
		<path class="st1" d="M105.435,17.7348l6.09,13.42c-1.09,0.18-2.15,0.4-3.18,0.62c-0.6,0.13-1.19,0.26-1.77,0.37l-5.59-12.31
			l-5.43,11.99c-0.09-0.02-0.17-0.03-0.25-0.05c-1.3-0.28-2.65-0.58-4.06-0.77l-0.21-0.03c-0.15-0.02-0.29-0.04-0.43-0.06
			l5.96999-13.18c0.8-1.76,2.49001-2.85,4.43-2.85C102.935,14.8848,104.635,15.9748,105.435,17.7348z"/>
		<path class="st1" d="M105.865,71.0648c0.3-0.22,0.6-0.41,0.89-0.56h0.01c0.16-0.09,0.31-0.16,0.47-0.22
			c0.19-0.06,0.37-0.12,0.54-0.12c0.17,0.00999,0.35,0.06,0.54,0.12c0.14999,0.04,0.3,0.1,0.45,0.17c0.64,0.28001,1.33,0.73,2,1.2
			c0.61,0.43,1.22,0.87,1.85,1.2c-0.5,0.34-0.98,0.72-1.46,1.1c-0.27,0.22-0.54,0.43-0.81,0.63c0,0,0,0.00999-0.01,0.00999
			c-0.21,0.16-0.43,0.31001-0.65,0.45c-0.07,0.05-0.14,0.09-0.21,0.13c-0.17,0.1-0.34,0.18-0.5,0.26c-0.07,0.03-0.14,0.06-0.21,0.08
			c-0.23,0.07999-0.45,0.14-0.66,0.15c-0.21001-0.01-0.43-0.06001-0.65-0.14001c-0.07-0.02-0.14-0.05-0.21-0.07999
			c-0.17001-0.06001-0.33-0.14-0.5-0.23c-0.08-0.03-0.15-0.07-0.22-0.11c-0.22-0.12-0.44-0.26-0.66-0.41
			c-0.00999-0.01-0.02-0.01-0.03-0.02c-0.27-0.18-0.53-0.37-0.79-0.56c-0.57-0.41-1.15-0.82-1.74-1.16c0.57-0.35,1.11-0.78,1.65-1.2
			C105.265,71.5148,105.565,71.2748,105.865,71.0648z"/>
		<path class="st1" d="M103.865,70.5248c-0.12,0.10001-0.25,0.2-0.37,0.29c-0.87,0.68-1.75,1.28-2.5,1.28
			c-0.65,0-1.38-0.43999-2.12-1c-0.25-0.17999-0.5-0.38-0.75-0.57c0.96,0.01,1.91,0.02,2.88,0.02
			C101.965,70.5448,102.915,70.5348,103.865,70.5248z"/>
		<path class="st1" d="M102.985,74.6948c-0.66,0-1.32,0.00999-1.98,0.00999c-0.67,0-1.32999-0.00999-2-0.00999
			c0.7-0.46,1.39-0.81001,1.99001-0.81001C101.595,73.8848,102.285,74.2348,102.985,74.6948z"/>
		<path class="st1" d="M101.385,39.1648h7.27c-0.72,1.07-1.13,2.33-1.13,3.68c0,3.89,3.38,7.04,7.54,7.04h3.07999
			c4.17001,0,7.55-3.15,7.55-7.04c0-1.35-0.41-2.61-1.13-3.68h6.22c-0.60001,0.64-1.28,1.3-1.49001,2.18
			c-0.67,2.76-1.62,5.46-2.83,8.05c-0.59,1.25-1.7,2.13-2.95,2.73c-2.08,1.02-4.44,1.43-6.79,1.43c-1.02,0-2.03-0.08-3.02-0.21
			c-4.68-0.66-7.21-4.05-9.15-7.93c-0.72-1.57-0.8-3.39-1.76-4.83c-0.31-0.47-0.84-0.58-1.41-0.58V39.1648z"/>
		<path class="st1" d="M100.995,79.3148l-0.02,2.3l-19.99,11.36c-2.06,1.17-4.72,0.63-6.18-1.16c-0.92-1.13-1.28-2.6-0.99-4.04
			l1.93999-9.46c1.64,0.13,3.29,0.25,4.94,0.35001l-2.06,10.09l16.6-9.5C97.155,79.2948,99.065,79.3148,100.995,79.3148z"/>
		<path class="st1" d="M95.225,75.2148c-0.17,0.09-0.34,0.17-0.51,0.23c-0.06,0.03-0.13,0.06-0.2,0.07999
			c-0.22,0.07-0.44,0.13-0.63,0.13c-0.22,0-0.44-0.06001-0.66-0.14c-0.07-0.02-0.14-0.06001-0.21-0.09
			c-0.16-0.07-0.33-0.15-0.5-0.25c-0.07-0.04-0.14-0.08-0.21-0.13c-0.22-0.14-0.44-0.29-0.66-0.45c0,0,0-0.00999-0.00999-0.00999
			c-0.26-0.2-0.53-0.42-0.8-0.63c-0.48-0.38-0.96-0.75999-1.46-1.09c0.64-0.33,1.25-0.77,1.86-1.21c0.67-0.47,1.34-0.92,1.97-1.2
			c0.15-0.07,0.31-0.13,0.46-0.17c0.19-0.06,0.38-0.11,0.56-0.12c0.17,0,0.35,0.06,0.54,0.12c0.15,0.06,0.31,0.13,0.47,0.22
			c0.43,0.23,0.89,0.55,1.35,0.89c0.15,0.12,0.3,0.24,0.45,0.36c0.53999,0.42,1.09,0.85,1.64999,1.2c-0.59,0.34-1.17,0.75-1.73,1.16
			c-0.27,0.19-0.54,0.38-0.8,0.56c-0.02,0.01-0.03,0.01-0.04,0.02c-0.23,0.14999-0.45,0.29-0.68,0.41
			C95.365,75.1448,95.295,75.1848,95.225,75.2148z"/>
		<path class="st1" d="M90.225,70.3648c-1.02,0.73-2.07,1.42-2.89,1.43c-0.53-0.02-1.09-0.35-1.67-0.78
			c-0.35-0.26-0.7-0.56001-1.04-0.86C86.465,70.2348,88.335,70.3048,90.225,70.3648z"/>
		<path class="st1" d="M88.815,74.4748c-1.35001-0.04-2.69-0.09-4.02-0.15c0.76-0.46,1.49001-0.82,2.1-0.75
			C87.485,73.6048,88.145,73.9948,88.815,74.4748z"/>
		<path class="st1" d="M81.765,61.6148c1.26,1.15,1.83,2.9,1.49,4.57l-0.04,0.18c-1.67999-0.09-3.32999-0.19-4.96-0.31l0.18-0.86
			l-16.99-15.5c-1.43-1.3-1.94-3.25-1.34-5.09c0.59-1.84,2.16-3.12,4.08-3.33l4.65-0.53c0.53,1.48,1.16,3.15,1.79,4.75l-5.89,0.66
			L81.765,61.6148z"/>
		<path class="st1" d="M83.855,35.8148c-2.72,0-5.10001,1.34-6.41,3.35h-6.23c-0.17999-0.21-0.37-0.41-0.52-0.62
			c-0.63-0.83-0.38-2.35-0.38-3.53c1.91-0.31,3.82-0.77,5.72-1.15c2.21999-0.44,4.45-0.81,6.71999-0.81c0.04,0,0.08,0,0.12,0
			c2.44,0.01,4.89,0.36,7.31,0.69c2.72,0.37,5.34,1.19,8.06001,1.5c0.87,0.1,1.75,0.15,2.64,0.15c0.04,0,0.07999-0.01,0.12-0.01
			c0.03001,0,0.07,0.01,0.11,0.01c0.89,0,1.77-0.05,2.65-0.15c2.71-0.31,5.34-1.13,8.05-1.5c2.42-0.33,4.87-0.68,7.31-0.69
			c0.04,0,0.08,0,0.12,0c2.29,0,4.54,0.37,6.78,0.83c1.89,0.37,3.77,0.82,5.66,1.13c0,1.18,0.25,2.7-0.38,3.53
			c-0.15999,0.21-0.34,0.41-0.51999,0.62h-6.22c-1.31001-2.01-3.7-3.35-6.42001-3.35H115.065c-2.71,0-5.10001,1.34-6.41,3.35h-7.27
			h-8.04c-1.31-2.01-3.69-3.35-6.41-3.35H83.855z"/>
		<path class="st1" d="M80.645,29.2648c0.12,0.38,0.2,0.76,0.26,1.14c-1.67,0.15-3.29,0.43-4.87,0.75
			c-0.14001-0.91-0.82001-1.74-1.9-1.86l-20.76-2.34c-0.77-0.09-1.43-0.57-1.75-1.27l-8.64-19.02c-0.39-0.86-1.19-1.28-1.99-1.28
			s-1.6,0.42-1.99,1.28l-8.64,19.02c-0.32,0.7-0.98,1.18-1.74,1.27l-20.77,2.34c-1.86,0.21-2.61,2.52-1.23,3.78l6.81,6.23l8.61,7.87
			c0.57,0.52,0.82,1.3,0.67,2.05l-0.97,4.73c-1.68-0.78-3.2-1.56-4.54-2.35l0.38-1.85l-12.15-11.11l-2.13-1.94
			c-2.05-1.87-2.82-4.79-1.96-7.44c0.86-2.64,3.2-4.55,5.96-4.86l19.22-2.17l8.01-17.61c1.15-2.53,3.68-4.16,6.46-4.16
			c2.78,0,5.32,1.63,6.47,4.16l8,17.61l19.22,2.17C77.445,24.7148,79.785,26.6248,80.645,29.2648z"/>
		<path class="st1" d="M81.035,74.6848c-0.17001,0.08-0.33,0.15-0.49001,0.2c-0.07,0.03001-0.14,0.05-0.22,0.07
			c-0.21999,0.06001-0.43999,0.10001-0.64,0.08c-0.21-0.02-0.42-0.08-0.63-0.17c-0.08-0.03-0.15-0.06-0.22-0.1
			c-0.14-0.07-0.29-0.16-0.43-0.25c-0.25-0.16-0.51-0.35-0.76-0.55c-0.3-0.25-0.60999-0.51-0.89999-0.77
			c-0.42001-0.37-0.83-0.74001-1.26-1.07c0.72-0.3,1.43-0.76,2.13-1.21c0.6-0.38,1.22-0.77,1.79-1.04
			c0.23-0.10001,0.45-0.19,0.66-0.24001c0.23-0.06,0.43999-0.09,0.64-0.07c0.18,0.01,0.37,0.07,0.56,0.15
			c0.18,0.08,0.37,0.19,0.55,0.3c0.52,0.32999,1.06,0.79,1.59,1.25c0.47,0.41,0.94,0.82,1.43,1.18
			c-0.68,0.32-1.35,0.75999-2.01,1.18c-0.52,0.34-1.03999,0.68-1.53999,0.95C81.195,74.6148,81.115,74.6548,81.035,74.6848z"/>
		<path class="st1" d="M76.315,42.8448c0,3.89,3.37,7.04,7.54,7.04H86.935c4.17001,0,7.54-3.15,7.54-7.04
			c0-1.35-0.41-2.61-1.13-3.68h8.04v0.84c-0.12,0-0.64,0-0.77,0c-0.57,0-1.1,0.11-1.41,0.58c-0.95,1.44-1.03,3.26-1.76,4.83
			c-1.93,3.88-4.47,7.27-9.15,7.93c-0.99,0.13-2,0.21-3.02,0.21c-2.35,0-4.7-0.41-6.79-1.43c-1.25-0.6-2.36-1.48-2.95-2.73
			c-1.21001-2.59-2.16-5.29-2.83-8.05c-0.21-0.88-0.89-1.54-1.49001-2.18h6.23C76.725,40.2348,76.315,41.4948,76.315,42.8448z"/>
		<path class="st1" d="M76.525,69.6748c-0.95,0.6-1.89,1.2-2.67,1.2c-0.06001,0-0.11,0-0.16-0.01c-0.69-0.06-1.42-0.64-2.15-1.32
			c-0.1-0.1-0.21-0.2-0.31-0.3C72.975,69.3948,74.735,69.5448,76.525,69.6748z"/>
		<path class="st1" d="M72.865,72.6348c0.63,0.06001,1.33,0.54,2.03,1.13c-1.49-0.11-2.96-0.23-4.41-0.36
			C71.345,72.9448,72.205,72.5748,72.865,72.6348z"/>
		<path class="st1" d="M67.945,68.5948c0.2,0.11,0.4,0.24001,0.6,0.4c0.32,0.26,0.64,0.55,0.95,0.85c0.11,0.10001,0.21,0.2,0.32,0.3
			c0.41,0.4,0.82999,0.81,1.25999,1.17c-0.78,0.29-1.55,0.73-2.3,1.17001c-0.41,0.24-0.82,0.46-1.22,0.66
			c-0.24,0.13-0.48,0.23-0.71,0.32c-0.16,0.06-0.31,0.12-0.45,0.16c-0.07999,0.02-0.14999,0.04-0.21999,0.05
			c-0.22,0.05-0.43,0.08-0.62,0.06001c-0.2-0.03001-0.41-0.10001-0.61-0.2c-0.07-0.03-0.13-0.06-0.19-0.09
			c-0.17-0.09-0.32999-0.2-0.49-0.32c-0.15-0.11-0.31-0.24001-0.46-0.37c-0.36-0.32-0.72-0.66-1.08-1.02
			c-0.35-0.35001-0.71-0.71001-1.08-1.04c0.8-0.26,1.61-0.72,2.4-1.17001c0.53-0.3,1.07-0.6,1.59-0.82
			c0.25999-0.12,0.5-0.21,0.75-0.27c0.03-0.01,0.07-0.03,0.1-0.04c0.27-0.07,0.52-0.1,0.75-0.07c0.2,0.02,0.42,0.1,0.64,0.22
			C67.895,68.5548,67.925,68.5748,67.945,68.5948z"/>
		<path class="st1" d="M62.775,68.3548c-0.88,0.49-1.76,0.93-2.44,0.93c-0.06,0-0.13,0-0.19-0.01c-0.45-0.07-0.9-0.35999-1.35-0.75
			c-0.27-0.23-0.53-0.50999-0.8-0.78999C59.565,67.9548,61.155,68.1648,62.775,68.3548z"/>
		<path class="st1" d="M58.925,70.9848c0.7,0.1,1.43,0.73,2.16,1.43999c-1.67-0.2-3.31-0.41-4.92-0.64
			C57.175,71.2948,58.165,70.8748,58.925,70.9848z"/>
		<path class="st1" d="M55.405,67.3748c0.3,0.3,0.61,0.63,0.91,0.96c0.18,0.2,0.36,0.4,0.55,0.6c0.18,0.2,0.38,0.39,0.57,0.57
			c-0.88,0.24-1.75,0.68-2.61,1.11c-0.55,0.28-1.1,0.55-1.62,0.75c-0.27,0.11-0.53,0.19-0.78,0.25c-0.04,0.01-0.09,0.03-0.13,0.03
			c-0.27,0.06-0.53,0.08-0.76,0.04c-0.24-0.04-0.48-0.14-0.71-0.28c-0.02-0.02-0.05-0.04-0.07-0.06001
			c-0.21-0.14-0.42-0.28999-0.63-0.48c-0.43-0.39-0.85-0.87-1.26-1.34c-0.3-0.35-0.61-0.7-0.93-1.03
			c0.89-0.2,1.79-0.64,2.68-1.07999c0.43-0.21001,0.86-0.41,1.29-0.59c0.23-0.09,0.45-0.18,0.67-0.25c0.17-0.05,0.33-0.1,0.49-0.13
			c0.07-0.02,0.14-0.03,0.21-0.04c0.22-0.03,0.44-0.04,0.62-0.01c0.17,0.03,0.35,0.11,0.52,0.2
			c0.06,0.03001,0.11,0.06001,0.17,0.10001c0.13,0.07999,0.25,0.18,0.38,0.29C55.115,67.1048,55.255,67.2348,55.405,67.3748z"/>
		<path class="st1" d="M49.085,66.3348c-0.74,0.35-1.47,0.63-2.05,0.63c-0.1,0-0.2-0.01-0.3-0.03c-0.55-0.11-1.07-0.56-1.58-1.13
			c-0.07-0.08-0.14-0.17001-0.21-0.25C46.295,65.8248,47.675,66.0848,49.085,66.3348z"/>
		<path class="st1" d="M45.175,68.5548c0.75,0.16,1.51,0.98,2.25,1.82c-1.86-0.34-3.67-0.69-5.44-1.07
			C43.145,68.8248,44.325,68.3848,45.175,68.5548z"/>
		<path class="st1" d="M43.975,66.9448c-0.96,0.16-1.95,0.57-2.91,0.97c-0.72,0.3-1.45,0.59-2.1,0.75c-0.23,0.06-0.44,0.1-0.64,0.12
			c-0.22,0.01-0.43,0.01-0.61-0.03c-0.19-0.05-0.37-0.16-0.55-0.27c-0.15-0.10001-0.3-0.21001-0.44-0.34
			c-0.52-0.47-1-1.11-1.48-1.76c-0.24-0.34-0.49-0.68-0.75-1c0.93-0.12,1.92-0.50999,2.88-0.89999c0.31-0.13,0.61-0.25,0.92-0.36
			c0.01-0.01,0.03-0.01,0.04-0.02c0.26-0.09,0.51-0.18,0.76-0.25c0.08-0.02,0.16-0.04,0.24-0.06c0.19-0.05,0.37-0.09,0.55-0.11
			c0.08-0.02,0.15-0.03,0.22-0.03c0.24-0.02,0.46-0.02,0.66,0.03c0.17,0.04,0.34,0.13,0.51,0.24c0.05,0.04,0.1,0.08,0.16,0.12
			c0.12,0.09,0.24,0.2,0.37,0.32c0.05,0.05,0.1,0.09,0.15,0.14c0.16,0.17,0.32,0.35,0.48,0.54v0.01
			c0.19,0.21999,0.37,0.46,0.55,0.68999c0.16,0.21,0.32,0.41,0.48,0.61C43.635,66.5548,43.805,66.7548,43.975,66.9448z"/>
		<path class="st1" d="M35.525,63.4248c-0.76,0.26-1.47,0.44-1.97,0.3c-0.53-0.15-0.99-0.63-1.43-1.21
			C33.235,62.8248,34.365,63.1248,35.525,63.4248z"/>
		<path class="st1" d="M33.925,67.3448c0.02,0.04,0.05,0.07001,0.07,0.10001c-2.05-0.54-4.03-1.11-5.92-1.71
			c0.02,0,0.04-0.01,0.05-0.01c0.9-0.28,1.83-0.57,2.61-0.64c0.37-0.03,0.7-0.01,0.99,0.08c0.58,0.17,1.14,0.77,1.67,1.46999
			C33.575,66.8648,33.745,67.1048,33.925,67.3448z"/>
		<path class="st1" d="M33.155,71.2148l-8.99,5.1c-1.07,0.60001-2.28,0.93-3.5,0.93c-2.14,0-4.15-0.96-5.51-2.63
			c-1.35-1.65-1.88-3.8-1.45-5.9l0.91-4.45c1.47,0.73,2.98,1.45,4.59,2.13l-0.68,3.3c-0.29,1.43999,0.85,2.63,2.14,2.63
			c0.36,0,0.73-0.09,1.08-0.29l4.96-2.81C28.775,69.9148,30.925,70.5848,33.155,71.2148z"/>
		<path class="st1" d="M29.365,61.3548c0.1,0.15,0.2,0.3,0.31,0.46c0.08,0.13,0.17,0.26,0.26,0.39c0.26,0.41,0.53,0.84,0.83,1.24
			c-0.05,0-0.11,0.01-0.16,0.01c-0.96,0.08-1.97,0.4-2.96,0.7c-0.89,0.28-1.79,0.55-2.53,0.6c-0.11,0.01-0.22,0.01-0.32,0.01
			c-0.2-0.01-0.39-0.02-0.55-0.08c-0.18-0.06-0.35-0.19-0.52-0.32c-0.06-0.05-0.13-0.1-0.19-0.16c-0.34-0.33-0.64-0.77-0.93-1.25
			c-0.17-0.29-0.34-0.6-0.5-0.9c-0.16-0.31-0.33-0.63-0.51-0.93c0.91-0.04,1.9-0.33,2.87-0.61c0.21-0.06,0.41-0.12,0.62-0.18
			c0.2-0.06,0.4-0.11,0.6-0.16c0.14-0.03,0.27-0.06,0.4-0.09c0.15-0.03,0.29-0.06,0.43-0.08c0.17-0.03,0.33-0.04,0.49-0.05
			c0.1-0.01,0.2-0.02,0.3-0.02c0.25,0,0.48,0.02,0.68,0.09c0.17,0.06,0.33,0.16,0.48,0.29c0.06,0.05,0.12,0.11,0.18,0.17
			c0.1,0.09,0.19,0.19,0.28,0.3c0.08,0.09,0.16,0.19,0.23,0.29C29.225,61.1648,29.295,61.2548,29.365,61.3548z"/>
		<path class="st1" d="M22.395,59.3548c-0.64,0.14-1.22,0.2-1.62,0.04c-0.45-0.19-0.81-0.61-1.13-1.13
			C20.535,58.6348,21.455,58.9948,22.395,59.3548z"/>
		<path class="st1" d="M20.665,62.8248c0.06,0.11,0.12,0.23,0.18,0.34c-2.05-0.84-3.97-1.71-5.73-2.62c0.02,0,0.04,0,0.06-0.01
			c1.39-0.22,2.83-0.44,3.72-0.04C19.575,60.7948,20.105,61.7848,20.665,62.8248z"/>
		<path class="st1" d="M17.975,58.6448c-0.97-0.05-2.01,0.11-3.04,0.27h-0.01c-0.84,0.13-1.67,0.25-2.35,0.23
			c-0.19,0-0.36-0.01-0.52-0.04c-0.19-0.03-0.37-0.07-0.51-0.15c-0.18-0.1-0.32-0.26-0.46-0.43c-0.11-0.14-0.21-0.31-0.3-0.48
			c-0.31-0.61-0.51-1.38-0.69-2.14c-0.06-0.26-0.12-0.52-0.18-0.78c0.71,0.02,1.5-0.06,2.31-0.15c0.19-0.02,0.37-0.04,0.56-0.06
			c0.23-0.02,0.46-0.04,0.69-0.06c0.15-0.01,0.29-0.02,0.43-0.02c0.16-0.01,0.32-0.02,0.47-0.01c0.18,0,0.34,0.01,0.51,0.03
			c0.11,0.01,0.22,0.01,0.32,0.03c0.25,0.04,0.49,0.11,0.69,0.21c0.15,0.07,0.28,0.19,0.41,0.34c0.06,0.06,0.1,0.14,0.15,0.21
			c0.08,0.1,0.15,0.19,0.23,0.31c0.06,0.11,0.12,0.24,0.19,0.36c0.05,0.1,0.1,0.19,0.15,0.29c0.1,0.2,0.19,0.41,0.29,0.62
			c0.02,0.05,0.04,0.1,0.07,0.16C17.565,57.7948,17.755,58.2248,17.975,58.6448z"/>
		<path class="st1" d="M3.215,43.5848c0,3.37,2.56,6.73,7.27,9.9c-0.59,0.02-1.11,0-1.45-0.16l-0.43-0.2
			c-1.75-0.95-4.04-3.05-5.23-4.93c-0.22-0.34-0.59-1.12-0.72-1.66c-0.19-0.79-0.28-1.77-0.26-2.12c0.05-1.15-0.04-2.28,1.13-4.75
			l0.54,0.48C3.515,41.2948,3.215,42.4448,3.215,43.5848z"/>
		<path class="st1" d="M7.955,54.4248c0.23,0.49,0.39,1.15,0.55,1.84c0.01,0.06,0.02,0.11,0.03,0.17
			c-4.55-3.54-7.05-7.49-7.05-11.78c0-2.17,0.23-3.46,1.46-5.49l0.49,0.42c-0.01,0.01-0.01,0.02-0.01,0.03
			c-0.22,0.39-0.45,0.87-0.68,1.54c-0.23,0.68-0.43,1.5-0.5,2.83c-0.03,0.57-0.14,2.42,0.95,4.32c1.03,1.8,3.47,4.65,4.52,5.59
			L7.955,54.4248z"/>
	</g>
</g>
</svg>
