<svg xmlns="http://www.w3.org/2000/svg" width="115.601" height="138.586" viewBox="0 0 115.600761 138.585739"><g fill="#fff"><path d="M114.422 94.57c1.943-4.384 1.473-8.746-1.327-12.276-1.687-2.105-3.706-3.414-5.46-4.42-1.7-.977-3.601-1.453-5.807-1.453h-.055c-6.885.02-13.88.02-20.645.02H80.01c1.167-4.175 1.843-8.3 2.05-12.482.234-4.584-.288-8.588-1.597-12.236-1.42-3.947-3.732-7.16-6.874-9.557-1.802-1.362-3.718-2.045-5.712-2.045-2.088 0-4.096.747-5.97 2.219-1.621 1.278-2.436 3.133-2.3 5.227l.064.848c.143 1.707.24 3.094.266 4.46.067 3.604-.33 6.233-1.291 8.522-2.228 5.344-4.649 9.731-7.405 13.422-2.82 3.796-5.854 6.852-9.229 9.31-.472-3.445-3.063-5.688-6.755-5.688H6.898c-4.121 0-6.89 2.757-6.89 6.86-.01 15.5-.01 31.001 0 46.494 0 3.863 2.802 6.718 6.663 6.785.252.004.493.006.734.006l.67-.003.623-.002h26.61c3.527 0 6.18-2.301 6.693-5.616 1.85 1.34 4.333 2.377 7.657 2.55.256.014.535.021.814.021.61 0 1.176-.033 1.677-.062l.184-.01.303-.019c.37-.022.72-.044 1.002-.044h2.07c5.463-.004 11.004-.009 16.575-.009 7.975 0 14.542.01 20.669.03 2.292 0 4.475-.465 6.721-1.419 4.444-1.917 6.04-5.142 6.6-7.51.326-1.345.456-2.667.39-3.951 1.594-1.169 3.078-3.025 3.865-5.97.6-2.272.773-4.608.525-7.242 1.925-1.654 3.101-3.857 3.45-6.478.31-2.35.086-4.722-.663-7.076.206-.39.4-.794.582-1.206zm-77.324 7.321v29.89c0 1.18-.62 1.8-1.79 1.8H8.698c-.434 0-.863.005-1.293.005-.215 0-.43-.001-.647-.005-1.15-.02-1.75-.64-1.75-1.79-.01-15.49-.01-30.99 0-46.49 0-1.36.51-1.86 1.89-1.86h28.36c1.31 0 1.84.53 1.84 1.84v16.61zm72.75-9.34c-.3.68-.66 1.36-1.08 2-.34.52-.37.98-.12 1.58.86 2.05 1.16 4.08.9 6.06-.24 1.8-1.13 3.12-2.74 4.04-.16.09-.31.17-.43.24-.7.38-.77.45-.62 1.14.03.16.08.37.12.64.43 2.72.37 4.95-.18 7.03-.58 2.17-1.71 3.44-3.56 3.99-.56.16-.84.27-.97.51-.14.26-.02.6.16 1.17.44 1.34.47 2.78.08 4.39-.44 1.86-1.65 3.18-3.69 4.06-1.6.68-3.14 1.02-4.72 1.02h-.03a6428.19 6428.19 0 0 0-20.685-.029c-5.572 0-11.115.005-16.575.01h-2.07c-.53 0-1.07.04-1.59.07-.519.029-1.048.064-1.576.064-.185 0-.37-.004-.554-.015-3.27-.17-5.62-1.47-7.16-3.98-.16-.25-.25-.57-.25-.83-.01-5.89-.01-11.78-.02-17.67 0-5.89 0-11.78-.01-17.67 0-.39.12-.59.49-.83 4.59-2.96 8.61-6.79 12.28-11.73 3.01-4.03 5.63-8.77 8.01-14.48 1.25-2.98 1.76-6.24 1.68-10.55-.03-1.59-.15-3.19-.28-4.74l-.06-.8c-.03-.46.07-.71.4-.97.98-.77 1.93-1.15 2.88-1.15.89 0 1.78.34 2.68 1.02 2.36 1.8 4.11 4.24 5.2 7.27 1.08 3.01 1.51 6.38 1.31 10.3-.28 5.64-1.5 11.18-3.73 16.95-.04.11-.07.21-.11.34l-.13.44h8.03c6.77 0 13.77 0 20.66-.02h.04c1.32 0 2.38.25 3.32.79 1.43.82 2.9 1.78 4.03 3.19 1.65 2.08 1.88 4.42.67 7.15zM54.18 22.13l.018-.017c2.707 2.338 8.54.267 13.754-4.948 5.214-5.214 7.285-11.047 4.948-13.754l.017-.017-2.263-2.264C68.039-1.484 62.04.572 56.699 5.913c-5.341 5.34-7.397 11.34-4.783 13.954l2.264 2.264zm4.4-14.336c4.57-4.57 9.09-5.885 10.192-4.782 1.103 1.102-.212 5.62-4.782 10.191-4.57 4.57-9.09 5.885-10.192 4.783-1.103-1.103.212-5.621 4.783-10.192z"/></g></svg>