<svg xmlns="http://www.w3.org/2000/svg" width="40" height="68" viewBox="0 0 40 68"><path d="M4.275 66.5a2.5 2.5 0 0 1-1.768-4.268L30.74 34 2.508 5.768a2.5 2.5 0 1 1 3.535-3.536L37.81 34 6.043 65.768a2.492 2.492 0 0 1-1.768.732z"/><path d="M4.275 1.5c.64 0 1.28.244 1.768.732L37.81 34 6.043 65.768c-.488.488-1.128.732-1.768.732s-1.279-.244-1.767-.732a2.5 2.5 0 0 1 0-3.536L30.74 34 2.508 5.768A2.5 2.5 0 0 1 4.275 1.5m0-1c-.934 0-1.813.364-2.474 1.025A3.476 3.476 0 0 0 .775 4c0 .935.365 1.814 1.026 2.475L29.326 34 1.8 61.525A3.476 3.476 0 0 0 .775 64c0 .935.365 1.814 1.026 2.475.66.66 1.54 1.025 2.474 1.025s1.814-.364 2.475-1.025l31.767-31.768.708-.707-.708-.707L6.75 1.525A3.477 3.477 0 0 0 4.275.5z" fill="#fff"/></svg>