<svg xmlns="http://www.w3.org/2000/svg" width="165.092" height="127.726" viewBox="0 0 165.091797 127.726074"><g fill="#fff"><path d="M10.202 65.803c-1.574 1.616-1.99 3.93-1.11 6.187 2.782 7.146 14.747 20.66 40.125 20.658 1.762 0 3.524-.12 5.39-.247.742-.05 1.495-.102 2.26-.146 2.037-.118 4.556-.501 5.948-2.439.612-.85 1.215-2.326.615-4.526a2.506 2.506 0 0 0-3.07-1.753 2.5 2.5 0 0 0-1.755 3.07c.038.133.056.234.065.308-.234.105-.8.273-2.09.348-.784.045-1.555.098-2.313.15-1.779.12-3.458.235-5.05.235h-.004c-23.512 0-33.57-12.611-35.461-17.472-.213-.545-.083-.766.033-.885.06-.062.203-.209.645-.21l4.873.129-2.74-4.033c-3.305-4.864-4.737-9.974-3.955-11.52.227-.449.628-.624 1.197-.493.532.12 1.217.398 2.094.847l6.218 3.187-2.784-6.407c-3.28-7.551-3.663-12.876-2.676-13.82a.804.804 0 0 1 .568-.242c.243 0 .934.112 2.084 1.151 1.098.994 2.397 2.38 3.968 4.235l6.588 7.778-2.241-9.943c-2.361-10.48-1.218-15.137-.297-15.748a.86.86 0 0 1 .472-.141c.44 0 .88.335 1.173.614.702.674 1.513 1.715 2.412 3.094l4.976 7.633-.383-9.104c-.415-9.82 1.518-14.865 3.01-15.307.072-.021.186-.047.315-.047.818 0 1.456 1.241 1.763 1.981.414.994 1.053 3.256 1.729 5.684l3.734 13.436 1.165-13.896c.8-9.527 3.002-13.04 4.762-13.147l.1-.002c1.324 0 2.41 1.652 2.699 4.085 3.316 30.524 17.338 53.114 23.213 61.41.137.192.23.324.275.392.698 1.049 2.867 4.606 1.464 6.359a.063.063 0 0 1-.055.025 2.5 2.5 0 1 0 0 5c1.548 0 2.99-.692 3.957-1.9 2.45-3.059 2.022-7.41-1.209-12.262-.063-.094-.18-.262-.352-.505-5.649-7.977-19.132-29.7-22.325-59.084C59.616 3.424 56.535 0 52.556 0c-.11 0-.221.003-.37.01-4.372.266-6.685 4.23-7.944 8.476-1.7-2.156-3.718-2.542-4.94-2.542a6.18 6.18 0 0 0-1.724.249c-4.61 1.367-6.15 7.782-6.544 13.794-1.234-.741-2.39-.926-3.235-.926a5.84 5.84 0 0 0-3.235.974c-3.211 2.133-3.712 7.472-3.144 13.146-1.392-.965-2.798-1.452-4.195-1.452a5.8 5.8 0 0 0-4.024 1.63c-3.228 3.084-1.922 9.72-.235 14.785a5.935 5.935 0 0 0-4.82 3.256c-1.829 3.613.02 9.26 2.619 13.897a5.603 5.603 0 0 0-.563.506zm113.394 18.953c4.058 0 5.31-1.851 5.693-2.955.385-1.103.556-3.331-2.624-5.853l-9.963-7.9c-3.458-2.743-9.624-4.891-14.038-4.891h-2.352c-5.238 0-9.5 4.261-9.5 9.5v2.6c0 5.238 4.262 9.5 9.5 9.5h23.284zm-27.784-9.5v-2.6c0-2.48 2.02-4.5 4.5-4.5h2.352c3.265 0 8.373 1.78 10.93 3.81l9.826 7.79h-23.108a4.505 4.505 0 0 1-4.5-4.5z"/><path d="M158.15 84.43l-40.449-26.935c-3.619-2.41-9.862-4.298-14.212-4.298H81.668a2.5 2.5 0 1 0 0 5h21.821c3.385 0 8.624 1.584 11.44 3.46l40.45 26.935c2.51 1.671 4.713 5.783 4.713 8.798v6.876c0 2.481-2.019 4.5-4.5 4.5h-6.626c-1.21-7.891-8.025-13.96-16.25-13.96s-15.039 6.069-16.25 13.96H49.43c-1.21-7.891-8.025-13.96-16.25-13.96s-15.039 6.069-16.25 13.96H9.5a4.505 4.505 0 0 1-4.5-4.5v-43.57a2.5 2.5 0 1 0-5 0v43.57c0 5.238 4.262 9.5 9.5 9.5h7.43c1.211 7.89 8.027 13.96 16.25 13.96s15.04-6.07 16.25-13.96h67.036c1.211 7.89 8.027 13.96 16.25 13.96s15.04-6.07 16.25-13.96h6.626c5.238 0 9.5-4.262 9.5-9.5V97.39c0-4.676-3.049-10.369-6.942-12.96zM33.18 122.726c-6.319 0-11.46-5.141-11.46-11.46s5.141-11.46 11.46-11.46 11.46 5.14 11.46 11.46-5.14 11.46-11.46 11.46zm99.537 0c-6.32 0-11.461-5.141-11.461-11.46s5.141-11.46 11.46-11.46 11.46 5.14 11.46 11.46-5.14 11.46-11.46 11.46z"/></g></svg>