<svg xmlns="http://www.w3.org/2000/svg" width="163.258" height="123.893" viewBox="0 0 163.257721 123.892517"><g fill="#fff"><path d="M68.27 99.114c-5.819 5.603-10.446 9.064-10.91 9.408l-.795.562-2.068-.944 7.757-26.539-19.858-14.934 6.746-20.818.04-.107c1.66-4.053 6.85-13.631 19.142-15.052a15.457 15.457 0 0 1 2.078-.09c5.002.116 10.297 2.44 13.487 5.92l.246.28a2.5 2.5 0 1 0 3.709-3.353l-.267-.304c-4.066-4.435-10.763-7.396-17.059-7.542-.935-.023-1.87.019-2.767.122-14.94 1.727-21.2 13.25-23.197 18.126L36.54 68.52l19.943 14.999-8 27.374 8.62 3.934 3.186-2.253c.535-.396 5.402-4.036 11.448-9.858a2.5 2.5 0 1 0-3.469-3.601zM34.217 17.592c3.501.395 6.806.723 10.187.992-4.008 4.098-6.727 8.51-8.141 13.141-.164.547-.045 1.249.269 1.822.306.565.731.919 1.138.934h.026c1.481.006 2.93.007 4.393.003-1.638 3.095-2.628 6.285-3.048 9.499.381.597.706 1.19.975 1.78.766-4.113 2.453-8.18 5.326-12.072.383-.518.61-1.171.53-1.709-.072-.53-.44-.869-.925-.886h-.022c-1.76-.026-3.474-.06-5.204-.102 2.164-4.508 5.636-8.767 10.572-12.773.583-.473.81-1.101.546-1.644-.263-.543-.978-.92-1.83-.986a239.18 239.18 0 0 1-11.086-1.1c3.801-4.421 9.07-8.36 15.108-12.16A199.039 199.039 0 0 1 48.287 0c-6.91 4.323-12.573 9.048-16.43 14.53-.363.509-.245 1.237.264 1.878.506.644 1.313 1.094 2.096 1.184z"/><path d="M32.958 69.769c-.203-.153-.35-.542-.233-.906l5.888-18.173a2.5 2.5 0 1 0-4.756-1.54L27.97 67.321c-.76 2.343.054 4.993 1.982 6.443L46.67 86.337l-4.86 16.628c-10.965-6.124-31.236-19.331-35.862-35.4-1.851-6.433-1.026-12.552 2.523-18.708 2.744-4.76 7.551-6.907 11.134-7.33a19.71 19.71 0 0 1 2.778-.135c3.416.079 6.652 1.102 9.62 3.04a2.5 2.5 0 1 0 2.733-4.187c-3.76-2.455-7.877-3.75-12.236-3.852a25.23 25.23 0 0 0-3.48.167c-6.11.722-11.812 4.477-14.881 9.8-4.204 7.29-5.211 14.89-2.996 22.588C6.713 88.296 31.69 103.3 42.17 108.852l2.71 1.436 7.56-25.868L32.958 69.77zM116.646 30.67c-25.702 0-46.612 20.909-46.612 46.61s20.91 46.613 46.612 46.613 46.612-20.91 46.612-46.612-20.91-46.612-46.612-46.612zm0 88.223c-22.945 0-41.612-18.667-41.612-41.612s18.667-41.612 41.612-41.612 41.612 18.667 41.612 41.612-18.667 41.612-41.612 41.612z"/><path d="M138.499 74.488a2.5 2.5 0 0 0-2.5 2.5c0 12.894-10.49 23.384-23.384 23.384a23.41 23.41 0 0 1-17.478-7.85 2.5 2.5 0 0 0-3.737 3.323 28.416 28.416 0 0 0 21.215 9.527c15.65 0 28.384-12.733 28.384-28.384a2.5 2.5 0 0 0-2.5-2.5zM140.861 64.724l-9.756-4.48-9.756 4.48a2.5 2.5 0 0 0 2.085 4.544l7.671-3.521 7.67 3.52a2.5 2.5 0 0 0 2.086-4.544zM103.633 65.712c0-4.561-3.711-8.272-8.272-8.272s-8.272 3.71-8.272 8.272 3.71 8.271 8.272 8.271c4.56 0 8.272-3.71 8.272-8.271zm-11.544 0a3.276 3.276 0 0 1 3.272-3.272 3.276 3.276 0 0 1 3.272 3.272 3.275 3.275 0 0 1-3.272 3.271 3.276 3.276 0 0 1-3.272-3.271z"/></g></svg>