<?xml version="1.0" encoding="utf-8"?>
<!-- Generator: Adobe Illustrator 19.2.1, SVG Export Plug-In . SVG Version: 6.00 Build 0)  -->
<svg version="1.1" id="Layer_1" xmlns="http://www.w3.org/2000/svg" xmlns:xlink="http://www.w3.org/1999/xlink" x="0px" y="0px"
	 viewBox="0 0 168.0309 130" style="enable-background:new 0 0 168.0309 130;" xml:space="preserve">
<style type="text/css">
	.st0{fill:#0044CC;}
</style>
<g>
	<path class="st0" d="M11.6717,66.9402c-1.5742,1.6162-1.9893,3.9292-1.1104,6.187c2.7822,7.146,14.7471,20.6597,40.125,20.6582
		c1.7617,0,3.5244-0.1201,5.3906-0.2476c0.7412-0.0508,1.4941-0.1021,2.2588-0.146c2.0381-0.1177,4.5566-0.501,5.9492-2.4385
		c0.6113-0.8506,1.2148-2.3262,0.6143-4.5264c-0.3643-1.3325-1.7471-2.1133-3.0703-1.7529
		c-1.332,0.3638-2.1172,1.7383-1.7539,3.0703c0.0371,0.1328,0.0557,0.2339,0.0645,0.3076
		c-0.2344,0.1045-0.8008,0.2734-2.0908,0.3481c-0.7832,0.0449-1.5537,0.0977-2.3125,0.1494
		c-1.7783,0.1211-3.458,0.2358-5.0498,0.2358c-0.002,0-0.0029,0-0.0039,0c-23.5117,0-33.5693-12.6118-35.4609-17.4722
		c-0.2129-0.5449-0.083-0.7661,0.0332-0.8853c0.0605-0.0625,0.2031-0.209,0.6445-0.2095l4.873,0.1284l-2.7402-4.0327
		c-3.3047-4.8638-4.7363-9.9741-3.9541-11.52c0.2266-0.4492,0.6279-0.6245,1.1963-0.4932c0.5322,0.1201,1.2178,0.3975,2.0947,0.8472
		l6.2178,3.187l-2.7842-6.4077c-3.2803-7.5508-3.6631-12.8755-2.6758-13.8188c0.168-0.1611,0.3594-0.2427,0.5674-0.2427
		c0.2432,0,0.9346,0.1123,2.084,1.1514c1.0986,0.9937,2.3975,2.3789,3.9688,4.2349l6.5879,7.7778l-2.2412-9.9434
		c-2.3613-10.4795-1.2178-15.1362-0.2969-15.7476c0.0791-0.0527,0.2461-0.1411,0.4717-0.1411c0.4404,0,0.8809,0.3345,1.1729,0.6143
		c0.7021,0.6738,1.5137,1.7148,2.4121,3.0938l4.9766,7.6328l-0.3838-9.1035c-0.415-9.8198,1.5186-14.8652,3.0098-15.3076
		c0.0723-0.021,0.1865-0.0464,0.3154-0.0464c0.8184,0,1.4561,1.2407,1.7637,1.981c0.4131,0.9937,1.0527,3.2559,1.7285,5.6841
		l3.7344,13.436l1.165-13.8965c0.7988-9.5273,3.002-13.0391,4.7617-13.1465l0.1006-0.0024c1.3232,0,2.4092,1.6519,2.6982,4.085
		c3.3164,30.5244,17.3379,53.1138,23.2129,61.4092c0.1367,0.1924,0.2295,0.3252,0.2754,0.3931
		c0.6982,1.0483,2.8672,4.6055,1.4639,6.3584c-0.0059,0.0078-0.0205,0.0259-0.0547,0.0259c-1.3809,0-2.5,1.1191-2.5,2.5
		s1.1191,2.5,2.5,2.5c1.5479,0,2.9902-0.6924,3.957-1.9004c2.4492-3.0586,2.0215-7.4106-1.209-12.2617
		c-0.0635-0.0947-0.1807-0.2627-0.3525-0.5054C78.368,60.7644,64.8846,39.0417,61.6913,9.657c-0.6055-5.0962-3.6865-8.52-7.666-8.52
		c-0.1094,0-0.2207,0.0029-0.3691,0.0098c-4.3721,0.2666-6.6855,4.231-7.9443,8.4766c-1.7002-2.1567-3.7178-2.542-4.9404-2.542
		c-0.5752,0-1.1504,0.0825-1.7236,0.2485c-4.6104,1.3672-6.1494,7.7817-6.5439,13.7944c-1.2344-0.7417-2.3897-0.9263-3.2354-0.9263
		c-1.1533,0-2.2715,0.3359-3.2344,0.9736c-3.2119,2.1333-3.7129,7.4727-3.1445,13.146c-1.3916-0.9644-2.7979-1.4517-4.1953-1.4517
		c-1.498,0-2.9277,0.5796-4.0234,1.6299c-3.2285,3.084-1.9219,9.7192-0.2354,14.7852c-2.0576,0.1714-3.874,1.3862-4.8193,3.2563
		c-1.8291,3.6128,0.0195,9.2603,2.6182,13.8965C12.037,66.5886,11.8495,66.7571,11.6717,66.9402z"/>
	<path class="st0" d="M125.0653,85.8933c4.0586,0,5.3096-1.8516,5.6934-2.9551c0.3848-1.1035,0.5557-3.3315-2.624-5.8535
		l-9.9629-7.8999c-3.458-2.7427-9.624-4.8911-14.0381-4.8911h-2.3516c-5.2383,0-9.5,4.2617-9.5,9.5v2.5996
		c0,5.2383,4.2617,9.5,9.5,9.5H125.0653z M97.2821,76.3933v-2.5996c0-2.4814,2.0186-4.5,4.5-4.5h2.3516
		c3.2646,0,8.373,1.7798,10.9307,3.8086l9.8252,7.791h-23.1074C99.3006,80.8933,97.2821,78.8748,97.2821,76.3933z"/>
	<path class="st0" d="M159.62,85.5667l-40.4492-26.9346c-3.6191-2.4102-9.8623-4.2983-14.2119-4.2983H83.1375
		c-1.3809,0-2.5,1.1191-2.5,2.5s1.1191,2.5,2.5,2.5h21.8213c3.3848,0,8.624,1.5845,11.4404,3.4604l40.4492,26.9346
		c2.5107,1.6714,4.7129,5.7827,4.7129,8.7983v6.8755c0,2.4814-2.0186,4.5-4.5,4.5h-6.6256
		c-1.2107-7.8909-8.0253-13.9604-16.2494-13.9604s-15.0396,6.0695-16.2504,13.9604H50.8996
		c-1.2107-7.8909-8.0253-13.9604-16.2494-13.9604s-15.0396,6.0695-16.2504,13.9604h-7.4303c-2.4814,0-4.5-2.0186-4.5-4.5V61.8337
		c0-1.3809-1.1191-2.5-2.5-2.5s-2.5,1.1191-2.5,2.5v43.5688c0,5.2383,4.2617,9.5,9.5,9.5h7.4303
		c1.2108,7.8909,8.0262,13.9604,16.2504,13.9604s15.0387-6.0695,16.2494-13.9604h67.0364
		c1.2108,7.8909,8.0262,13.9604,16.2504,13.9604s15.0387-6.0695,16.2494-13.9604h6.6256c5.2383,0,9.5-4.2617,9.5-9.5v-6.8755
		C166.5614,93.8508,163.5125,88.158,159.62,85.5667z M34.6502,123.863c-6.3193,0-11.4609-5.1411-11.4609-11.4604
		s5.1416-11.4604,11.4609-11.4604s11.46,5.1411,11.46,11.4604S40.9696,123.863,34.6502,123.863z M134.1864,123.863
		c-6.3193,0-11.4609-5.1411-11.4609-11.4604s5.1416-11.4604,11.4609-11.4604s11.46,5.1411,11.46,11.4604
		S140.5057,123.863,134.1864,123.863z"/>
</g>
</svg>
