<?xml version="1.0" encoding="utf-8"?>
<!-- Generator: Adobe Illustrator 19.2.1, SVG Export Plug-In . SVG Version: 6.00 Build 0)  -->
<svg version="1.1" id="Layer_1" xmlns="http://www.w3.org/2000/svg" xmlns:xlink="http://www.w3.org/1999/xlink" x="0px" y="0px"
	 viewBox="0 0 117.6146 141" style="enable-background:new 0 0 117.6146 141;" xml:space="preserve">
<style type="text/css">
	.st0{fill:#0044CC;}
</style>
<g>
	<path class="st0" d="M115.429,95.7769c1.9429-4.3838,1.4727-8.7461-1.3274-12.2758c-1.6863-2.1044-3.7053-3.4141-5.46-4.4202
		c-1.7002-0.9767-3.6008-1.4525-5.8071-1.4525h-0.0071h-0.0474c-6.8853,0.02-13.8804,0.02-20.6455,0.02h-1.1169
		c1.1672-4.1756,1.8433-8.3007,2.0508-12.482c0.2339-4.5838-0.2886-8.5887-1.5977-12.2367
		c-1.4197-3.9462-3.7319-7.1603-6.874-9.5569c-1.8015-1.3612-3.7173-2.0444-5.7122-2.0444c-2.0872,0-4.0955,0.7463-5.969,2.2183
		c-1.6221,1.2782-2.437,3.1331-2.3003,5.2274l0.0632,0.8479c0.1431,1.7071,0.2412,3.0944,0.2668,4.4609
		c0.0669,3.6036-0.3313,6.2323-1.2917,8.5215c-2.2273,5.3438-4.6482,9.7308-7.405,13.4219
		c-2.8196,3.7954-5.8535,6.8519-9.2286,9.3091c-0.4718-3.4439-3.0631-5.6871-6.7555-5.6871h-9.46H7.9046
		c-4.1211,0-6.8901,2.7568-6.8901,6.86c-0.01,15.4989-0.01,31.0011,0,46.4932c0,3.8635,2.8022,6.7188,6.6631,6.7859
		c0.2524,0.0039,0.4934,0.0052,0.7344,0.0052l0.6699-0.0023l0.6228-0.0021h11.0498h15.5601c3.5272,0,6.1802-2.3016,6.6931-5.6163
		c1.8508,1.3408,4.333,2.3767,7.6572,2.5496c0.2563,0.0145,0.5352,0.0214,0.8142,0.0214c0.6091,0,1.1763-0.033,1.6765-0.0622
		l0.1841-0.0106l0.3037-0.0182c0.3699-0.0225,0.7192-0.0437,1.0012-0.0437h2.0701c5.4631-0.0045,11.0046-0.009,16.5752-0.009
		c7.9749,0,14.5425,0.0092,20.6687,0.029c2.2922,0,4.4758-0.4639,6.7217-1.4183c4.4441-1.9171,6.0396-5.1415,6.6001-7.5108
		c0.3257-1.3445,0.4558-2.6664,0.3894-3.9504c1.5942-1.1688,3.0781-3.0248,3.8652-5.9693c0.6008-2.2728,0.7727-4.6083,0.5247-7.2424
		c1.925-1.6542,3.1016-3.8566,3.4512-6.478c0.3086-2.3502,0.085-4.7219-0.6636-7.0759
		C115.0528,96.5923,115.2471,96.1893,115.429,95.7769z M38.1045,103.0984v12.45c0,5.81,0,11.63,0,17.44c0,1.18-0.6199,1.8-1.79,1.8
		c-5.1899,0-10.3799,0-15.5601,0H9.7046c-0.4333,0-0.8623,0.0045-1.2927,0.0045c-0.2151,0-0.4307-0.0011-0.6475-0.0045
		c-1.1499-0.02-1.75-0.64-1.75-1.79c-0.01-15.49-0.01-30.99,0-46.49c0-1.36,0.51-1.86,1.8901-1.86h18.8999h9.46
		c1.3101,0,1.8401,0.53,1.8401,1.84C38.1045,92.0284,38.1045,97.5584,38.1045,103.0984z M110.8545,93.7584
		c-0.3,0.68-0.6599,1.36-1.0801,2c-0.3398,0.52-0.3699,0.98-0.1199,1.58c0.8599,2.05,1.1599,4.08,0.8999,6.06
		c-0.24,1.8-1.1299,3.12-2.74,4.04c-0.1599,0.09-0.3101,0.17-0.4299,0.24c-0.7,0.38-0.77,0.45-0.6201,1.14
		c0.03,0.16,0.0801,0.37,0.1201,0.64c0.4299,2.72,0.3699,4.95-0.1799,7.03c-0.5801,2.17-1.7102,3.44-3.5601,3.99
		c-0.5601,0.16-0.8401,0.27-0.97,0.51c-0.1401,0.26-0.02,0.6,0.1599,1.17c0.4399,1.34,0.47,2.78,0.0801,4.39
		c-0.4399,1.86-1.6501,3.18-3.6899,4.06c-1.6001,0.68-3.1401,1.02-4.7202,1.02c-0.01,0-0.0198,0-0.0298,0
		c-6.8657-0.0222-13.7971-0.029-20.6848-0.029c-5.572,0-11.115,0.0045-16.5752,0.009h-2.0701c-0.53,0-1.0701,0.04-1.5901,0.07
		c-0.5181,0.0296-1.0476,0.0647-1.5754,0.0647c-0.1853,0-0.3701-0.0043-0.5544-0.0147c-3.27-0.17-5.6201-1.47-7.1602-3.98
		c-0.1599-0.25-0.25-0.57-0.25-0.83c-0.01-5.89-0.01-11.78-0.02-17.67c0-5.89,0-11.78-0.0098-17.67c0-0.39,0.1199-0.59,0.49-0.83
		c4.5898-2.96,8.6099-6.79,12.2798-11.73c3.01-4.03,5.6301-8.77,8.01-14.48c1.25-2.98,1.76-6.24,1.6802-10.55
		c-0.03-1.59-0.1501-3.19-0.28-4.74l-0.0601-0.8c-0.03-0.46,0.0701-0.71,0.3999-0.97c0.9802-0.77,1.9302-1.15,2.8801-1.15
		c0.8899,0,1.78,0.34,2.6799,1.02c2.3601,1.8,4.1101,4.2401,5.2,7.27c1.0801,3.01,1.51,6.38,1.3101,10.3
		c-0.28,5.64-1.5,11.18-3.73,16.95c-0.04,0.11-0.0701,0.21-0.1099,0.34l-0.1301,0.44h8.03c6.77,0,13.77,0,20.6599-0.02
		c0.01,0,0.03,0,0.04,0c1.3201,0,2.3801,0.25,3.3201,0.79c1.4299,0.82,2.8999,1.78,4.03,3.19
		C111.8345,88.6884,112.0645,91.0284,110.8545,93.7584z"/>
	<path class="st0" d="M55.187,23.338l0.0176-0.0176c2.707,2.3373,8.5396,0.2668,13.7542-4.9478
		c5.2146-5.2145,7.2852-11.0471,4.9478-13.7541l0.0176-0.0176l-2.2635-2.2635c-2.6145-2.6146-8.6134-0.5586-13.9545,4.7825
		c-5.3412,5.3411-7.3972,11.34-4.7827,13.9546L55.187,23.338z M59.5874,9.0013c4.5703-4.5704,9.0894-5.885,10.1917-4.7826
		c1.1024,1.1024-0.2122,5.6213-4.7825,10.1917c-4.5704,4.5703-9.0894,5.8849-10.1918,4.7825
		C53.7024,18.0906,55.0171,13.5717,59.5874,9.0013z"/>
</g>
</svg>
