<?xml version="1.0" encoding="utf-8"?>
<!-- Generator: Adobe Illustrator 19.2.1, SVG Export Plug-In . SVG Version: 6.00 Build 0)  -->
<svg version="1.1" id="Layer_1" xmlns="http://www.w3.org/2000/svg" xmlns:xlink="http://www.w3.org/1999/xlink" x="0px" y="0px"
	 viewBox="0 0 379.581543 379.580566" style="enable-background:new 0 0 379.581543 379.580566;" xml:space="preserve">
<g>
	<path style="fill:#ECC7DE;" d="M73.377686,54.607849h8.208496v3.384277c2.376465-2.952148,6.624512-4.248047,10.369141-4.248047
		c11.23291,0,18.145508,7.848633,18.145508,18.9375c0,11.44873-7.48877,20.017578-18.72168,20.017578
		c-4.17627,0-8.136719-1.080078-9.792969-3.096191v16.849609h-8.208496V54.607849z M81.586182,67.497009v12.961426
		c1.800293,3.023926,5.18457,4.608398,8.856934,4.608398c6.696777,0,11.161133-4.752441,11.161133-11.737305
		c0-7.560547-4.032715-11.953125-10.513184-11.953125C86.338623,61.376404,83.098389,64.256775,81.586182,67.497009z"/>
	<path style="fill:#ECC7DE;" d="M156.825439,39.558533c2.664551,0,4.752441,1.87207,4.752441,4.320313
		c0,2.592285-2.087891,4.464355-4.752441,4.464355c-2.880371,0-4.824219-1.87207-4.824219-4.464355
		C152.001221,41.430603,154.089111,39.558533,156.825439,39.558533z M152.721436,54.607849h8.208496v37.443359h-8.208496V54.607849z
		"/>
	<path style="fill:#ECC7DE;" d="M239.699951,83.482361c-3.096191,6.048828-9.57666,9.216797-16.057129,9.216797
		c-12.024902,0-20.161621-7.632324-20.161621-19.441406c0-11.089355,7.92041-19.513672,19.729492-19.513672
		c7.70459,0,13.609375,3.52832,16.057617,8.496582l-6.120605,4.032227c-2.520508-3.384277-5.328613-4.896484-9.577148-4.896484
		c-6.768555,0-11.592773,4.824707-11.592773,11.881348c0,6.768555,4.896484,11.809082,12.457031,11.809082
		c4.248535,0,7.344727-2.160645,9.432617-5.328613L239.699951,83.482361z"/>
	<path style="fill:#ECC7DE;" d="M279.080811,64.904724c0-6.912598,5.760742-11.160645,15.409668-11.160645
		c6.624512,0,12.672852,3.096191,15.121094,6.624512l-5.616699,5.328125c-2.231934-2.591797-6.192383-4.320313-10.872559-4.320313
		c-3.024414,0-5.544434,0.791992-5.544434,3.384277c0,5.18457,22.681641,3.384277,22.681641,16.561523
		c0,7.848633-7.128418,11.376953-15.40918,11.376953c-8.352539,0-14.689453-3.888184-17.353516-9.000488l6.480469-4.464355
		c2.088379,3.312012,6.768555,5.83252,11.665039,5.83252c3.168457,0,6.120605-1.008301,6.120605-3.672363
		C301.762939,75.777771,279.080811,77.722107,279.080811,64.904724z"/>
</g>
<g>
	<path style="fill:#ECC7DE;" d="M73.377686,287.396484h8.208496v3.384277c2.376465-2.952148,6.624512-4.248047,10.369141-4.248047
		c11.23291,0,18.145508,7.848633,18.145508,18.9375c0,11.44873-7.48877,20.017578-18.72168,20.017578
		c-4.17627,0-8.136719-1.080078-9.792969-3.096191v16.849609h-8.208496V287.396484z M81.586182,300.285645v12.961426
		c1.800293,3.023926,5.18457,4.608398,8.856934,4.608398c6.696777,0,11.161133-4.752441,11.161133-11.737305
		c0-7.560547-4.032715-11.953125-10.513184-11.953125C86.338623,294.165039,83.098389,297.04541,81.586182,300.285645z"/>
	<path style="fill:#ECC7DE;" d="M156.825439,272.347168c2.664551,0,4.752441,1.87207,4.752441,4.320313
		c0,2.592285-2.087891,4.464355-4.752441,4.464355c-2.880371,0-4.824219-1.87207-4.824219-4.464355
		C152.001221,274.219238,154.089111,272.347168,156.825439,272.347168z M152.721436,287.396484h8.208496v37.443359h-8.208496
		V287.396484z"/>
	<path style="fill:#ECC7DE;" d="M239.699951,316.270996c-3.096191,6.048828-9.57666,9.216797-16.057129,9.216797
		c-12.024902,0-20.161621-7.632324-20.161621-19.441406c0-11.089355,7.92041-19.513672,19.729492-19.513672
		c7.70459,0,13.609375,3.52832,16.057617,8.496582l-6.120605,4.032227c-2.520508-3.384277-5.328613-4.896484-9.577148-4.896484
		c-6.768555,0-11.592773,4.824707-11.592773,11.881348c0,6.768555,4.896484,11.809082,12.457031,11.809082
		c4.248535,0,7.344727-2.160645,9.432617-5.328613L239.699951,316.270996z"/>
	<path style="fill:#ECC7DE;" d="M279.080811,297.693359c0-6.912598,5.760742-11.160645,15.409668-11.160645
		c6.624512,0,12.672852,3.096191,15.121094,6.624512l-5.616699,5.328125c-2.231934-2.591797-6.192383-4.320313-10.872559-4.320313
		c-3.024414,0-5.544434,0.791992-5.544434,3.384277c0,5.18457,22.681641,3.384277,22.681641,16.561523
		c0,7.848633-7.128418,11.376953-15.40918,11.376953c-8.352539,0-14.689453-3.888184-17.353516-9.000488l6.480469-4.464355
		c2.088379,3.312012,6.768555,5.83252,11.665039,5.83252c3.168457,0,6.120605-1.008301,6.120605-3.672363
		C301.762939,308.566406,279.080811,310.510742,279.080811,297.693359z"/>
</g>
<g>
	<path style="fill:#ECC7DE;" d="M379.581543,379.580566H0V0h379.581543V379.580566z M15,364.580566h349.581543V15H15V364.580566z"/>
</g>
<g>
	<path style="fill:#ECC7DE;" d="M315.012238,244.747772H73.340866v-14.324799
		c4.642563-2.175339,11.090569-4.616943,19.344025-7.320389c8.253448-2.701996,18.054428-5.635132,29.402924-8.795013
		c6.874298-1.89592,15.127747-3.965942,24.760345-6.214432c9.629028-2.247025,20.544083-4.703247,32.75589-7.373062
		c13.580231-2.949219,24.026001-5.545883,31.337326-7.794373c7.307739-2.247025,13.967102-5.019241,19.988831-8.32103
		c3.954773-2.175339,7.132217-4.897812,9.543045-8.163025c2.407257-3.265213,3.610886-7.915802,3.610886-13.956146
		c0-8.777466-5.763794-15.220108-17.280655-19.327957c-11.520447-4.107849-26.307877-6.161774-44.362305-6.161774
		c-11.18013,0-21.754868,0.895309-31.724213,2.685898c-9.972916,1.790604-17.452606,4.265854-22.439072,7.425735
		c1.200058,2.248489,2.708176,4.915375,4.513611,8.005035c1.80545,3.091125,2.70816,6.1091,2.70816,9.058319
		c0,2.669815-2.70816,5.039734-8.124489,7.109741c-5.416321,2.071487-13.454842,3.107224-24.115547,3.107224
		c-8.600929,0-15.217308-1.211288-19.859871-3.633865c-4.64257-2.422577-6.963852-5.670242-6.963852-9.742981
		c0-3.791855,2.579208-7.599808,7.73761-11.428238c5.158409-3.826965,12.548546-7.355499,22.181152-10.585602
		c9.453499-3.159882,21.149467-5.7229,35.077171-7.689056c13.927704-1.964676,28.973053-2.949219,45.136063-2.949219
		c35.245529,0,63.229889,3.212555,83.953064,9.63765c20.719604,6.425095,31.079407,15.00943,31.079407,25.753036
		c0,5.126038-1.848419,9.795639-5.545288,14.00882c-3.700439,4.213165-9.671997,7.936279-17.925446,11.164917
		c-9.116791,3.581192-19.773895,6.653305-31.982132,9.216324c-12.211807,2.564468-30.864471,6.126663-55.968719,10.690933
		c-14.959381,2.738571-28.887085,5.600021-41.783096,8.584351c-12.896027,2.985794-23.470757,5.882355-31.724205,8.689682
		h198.340759V244.747772z"/>
</g>
<path style="fill:#ECC7DE;" d="M45.194908,320.44751c2.664551,0,4.752441,1.87207,4.752441,4.320313
	c0,2.592285-2.087891,4.464355-4.752441,4.464355c-2.880371,0-4.824219-1.87207-4.824219-4.464355
	C40.370689,322.31958,42.45858,320.44751,45.194908,320.44751z"/>
</svg>
