<?xml version="1.0" encoding="utf-8"?>
<!-- Generator: Adobe Illustrator 19.2.1, SVG Export Plug-In . SVG Version: 6.00 Build 0)  -->
<svg version="1.1" id="Layer_1" xmlns="http://www.w3.org/2000/svg" xmlns:xlink="http://www.w3.org/1999/xlink" x="0px" y="0px"
	 viewBox="0 0 129.09314 80" style="enable-background:new 0 0 129.09314 80;" xml:space="preserve">
<g>
	<path style="fill:#FFFFFF;" d="M114.594696,62.398808c-10.348976,10.34898-27.189819,10.34898-37.538795,0
		s-10.348976-27.189819,0-37.538795c2.423599-2.423599,5.263641-4.332212,8.439186-5.673052
		c0.636986-0.268637,1.372513-0.124348,1.861694,0.36483c0.489174,0.489178,0.632294,1.225878,0.363655,1.862864
		c-3.683495,8.725424-1.74321,18.684937,4.945732,25.373882c6.68895,6.688942,16.64846,8.62923,25.373886,4.945736
		c0.636986-0.268639,1.37368-0.125523,1.862862,0.363655c0.489174,0.489178,0.633469,1.224705,0.36483,1.861691
		C118.926903,57.135166,117.018295,59.975208,114.594696,62.398808z M79.458382,27.262495
		c-9.024559,9.024561-9.024559,23.709269,0,32.733833s23.709267,9.024563,32.733833,0
		c1.15197-1.151974,2.171379-2.41304,3.048851-3.771477c-8.902557,2.161999-18.343567-0.400024-24.977379-7.033833
		c-6.633804-6.633808-9.195831-16.074818-7.033829-24.977377C81.871422,25.09111,80.610352,26.110523,79.458382,27.262495z"/>
	<g>
		<path style="fill:#FFFFFF;" d="M104.767632,29.130173c-2.8741-4.340904-2.95974-4.353859-6.757195-0.833992
			c3.743347-3.576267,3.743347-3.576267,0,0c3.736359-3.583261,3.729248-3.592661-0.682022-0.8377
			c4.404282-2.764477,4.404282-2.764477,0,0c4.355095-2.841858,4.379631-2.943886,1.667984-7.361376
			c2.78788,4.369228,2.78788,4.369228,0,0c2.856094,4.324635,2.942871,4.338734,6.720131,0.796926
			c-3.724411,3.596949-3.724411,3.596949,0,0c-3.716156,3.605204-3.709167,3.612196,0.682022,0.8377
			c-4.385338,2.785156-4.385338,2.785156,0,0c-4.341888,2.851992-4.354729,2.93774-0.756157,6.679356
			c-3.652565-3.68762-3.652565-3.68762,0,0C101.981575,24.73172,101.97229,24.738714,104.767632,29.130173z"/>
	</g>
	<g>
		<path style="fill:#FFFFFF;" d="M118.10199,18.688738c-5.703934-8.55382-5.886734-8.581471-13.379601-1.65135
			c7.377357-7.050521,7.377357-7.050521,0,0c7.362434-7.065448,7.34726-7.085515-1.350441-1.658689
			c8.68277-5.447136,8.68277-5.447136,0,0c8.577789-5.612317,8.630157-5.830112,3.302696-14.575915
			c5.490196,8.642779,5.490196,8.642779,0,0c5.635803,8.547585,5.821053,8.577685,13.306213,1.577957
			c-7.372353,7.117436-7.372353,7.117436,0,0c-7.354729,7.135056-7.339806,7.149983,1.350441,1.658689
			c-8.677765,5.514051-8.677765,5.514051,0,0c-8.585022,5.656719-8.612427,5.839765-1.497223,13.225479
			c-7.230461-7.270454-7.230461-7.270454,0,0C112.585991,10.012073,112.56617,10.027,118.10199,18.688738z"/>
	</g>
	<g>
		<path style="fill:#FFFFFF;" d="M124.309998,29.420433c-1.145851-3.00091-1.67878-3.319115-4.806236-2.694359
			c2.921501-1.145666,2.921501-1.145666,0,0c2.894081-1.211021,2.872429-1.292656-0.254311-0.836397
			c3.106155-0.538345,3.106155-0.538345,0,0c2.989799-1.185049,3.429276-1.795317,3.504135-5.003378
			c0.561752,3.094681,0.561752,3.094681,0,0c1.135185,2.983871,1.672607,3.312788,4.789825,2.655241
			c-2.916206,1.166672-2.916206,1.166672,0,0c-2.883842,1.243813-2.856422,1.309168,0.254311,0.836397
			c-3.100868,0.559351-3.100868,0.559351,0,0c-2.993927,1.120546-3.311684,1.654545-2.612206,4.77177
			c-1.204109-2.9055-1.204109-2.9055,0,0C123.904266,26.276573,123.8237,26.297775,124.309998,29.420433z"/>
	</g>
	<g>
		<path style="fill:#FFFFFF;" d="M97.733604,22.925501c-2.754837,0.089212-5.492401,0.775223-7.986061,2.076735l-0.215126,2.367039
			c0,0-0.043167,0.02932,0.251816-0.150726c2.285019-1.394684,4.836243-2.168468,7.419838-2.344017L97.733604,22.925501z"/>
	</g>
	<path style="fill:#FFFFFF;" d="M111.350197,28.260332c-1.251869-1.24971-2.649071-2.264515-4.129013-3.076073l-0.70076,1.836075
		c1.231728,0.705076,2.394379,1.575449,3.44696,2.626226c5.57225,5.564163,6.302513,14.153133,2.216667,20.529034
		c-0.005753,0.008091-0.023018,0.023022-0.023018,0.023022c1.126678-0.084896,0.008629-0.000721,1.136032-0.085258
		c1.294319-0.113674,1.294319-0.113674,1.294319-0.113674C118.218925,43.048573,117.184334,34.087639,111.350197,28.260332z"/>
	<path style="fill:#FFFFFF;" d="M37.109474,58.925068c3.644608-0.506355,6.874641-2.401585,9.09444-5.337944
		c2.219688-2.934925,3.16357-6.557808,2.65876-10.203739c-1.044983-7.524086-8.014725-12.797955-15.543118-11.753309
		c-3.644608,0.506357-6.87464,2.401583-9.094439,5.337946c-2.219688,2.934925-3.163679,6.559238-2.658758,10.203735
		C22.612663,54.697392,29.580206,59.962429,37.109474,58.925068z M26.866982,38.965771
		c2.231068-2.951359,5.73555-4.385071,9.175743-4.11784c1.925243,0.149551,3.832207,0.831688,5.484364,2.081444
		c4.601971,3.482143,5.51424,10.0578,2.034966,14.659996c-1.685787,2.230232-4.139969,3.669037-6.909214,4.054321
		c-2.763508,0.385735-5.522211-0.330818-7.750895-2.017925C24.299973,50.143623,23.387705,43.567966,26.866982,38.965771z"/>
	<path style="fill:#FFFFFF;" d="M36.490189,27.127306l1.221081-13.201944c-0.021046-1.438404-1.205402-2.588317-2.643822-2.567091
		c-1.439137,0.02117-2.58905,1.205526-2.567314,2.644345l1.606441,13.125533
		C34.905693,27.078192,35.701302,27.073423,36.490189,27.127306z"/>
	<path style="fill:#FFFFFF;" d="M26.119881,29.511364l-5.951948-12.932508c-0.738256-1.235231-2.338516-1.63881-3.573526-0.901079
		c-1.235714,0.737495-1.639335,2.338295-0.901079,3.573526l8.624897,11.45513
		C24.896013,30.272873,25.495823,29.871693,26.119881,29.511364z"/>
	<path style="fill:#FFFFFF;" d="M20.059963,35.238735L7.631134,26.443203c-1.25676-0.700909-2.844723-0.250202-3.545618,1.006378
		s-0.249829,2.844572,1.006214,3.545424l13.967312,5.934698C19.359453,36.351017,19.695427,35.788265,20.059963,35.238735z"/>
	<path style="fill:#FFFFFF;" d="M17.062817,44.001785L3.862308,42.780819c-1.438419,0.021225-2.588346,1.205761-2.566582,2.644222
		c0.021032,1.438583,1.205389,2.588497,2.643808,2.567272l13.12501-1.606663
		C17.014061,45.586311,17.009472,44.790718,17.062817,44.001785z"/>
	<path style="fill:#FFFFFF;" d="M19.466249,54.36422L6.516131,60.324543c-1.235024,0.737911-1.639348,2.338474-0.901093,3.573704
		c0.737538,1.235176,2.338516,1.638809,3.573513,0.90126l11.460928-8.62986
		C20.219227,55.595722,19.828232,54.990211,19.466249,54.36422z"/>
	<path style="fill:#FFFFFF;" d="M25.169962,60.440701l-8.789484,12.420643c-0.70088,1.256401-0.250546,2.844513,1.006214,3.545425
		c1.25676,0.700905,2.844736,0.250015,3.545618-1.006386l5.936909-13.972549
		C26.28652,61.125668,25.715534,60.802765,25.169962,60.440701z"/>
	<path style="fill:#FFFFFF;" d="M45.25943,30.114471l8.789482-12.420639c0.700882-1.256401,0.250546-2.844516-1.006214-3.545424
		c-1.25676-0.700909-2.844734-0.250023-3.545616,1.006378L43.560173,29.12734
		C44.142872,29.429506,44.713856,29.752409,45.25943,30.114471z"/>
	<path style="fill:#FFFFFF;" d="M33.939743,63.42556l-1.221977,13.204224c0.021763,1.438454,1.20612,2.588371,2.644539,2.567146
		s2.588329-1.205582,2.567314-2.644348l-1.608036-13.132874C35.519623,63.469086,34.723495,63.480488,33.939743,63.42556z"/>
	<path style="fill:#FFFFFF;" d="M54.736423,71.303894l-8.62495-11.454411c-0.577789,0.433559-1.177574,0.834381-1.801632,1.19471
		l5.951977,12.932148c0.737537,1.235176,2.338516,1.638809,3.573528,0.901077
		C55.070354,74.139694,55.473961,72.53907,54.736423,71.303894z"/>
	<path style="fill:#FFFFFF;" d="M65.337303,59.560139l-13.965878-5.934589c-0.30114,0.578812-0.636414,1.1418-1.001667,1.691273
		L62.798618,64.112c1.256756,0.700905,2.844738,0.250015,3.545628-1.006561
		C67.045128,61.849037,66.594063,60.261047,65.337303,59.560139z"/>
	<path style="fill:#FFFFFF;" d="M64.814713,26.65695c-0.737541-1.235176-2.338516-1.638809-3.573513-0.901258L49.78643,34.380615
		c0.433529,0.578148,0.835098,1.177628,1.195038,1.802017l12.932152-5.951977
		C65.148643,29.492744,65.552254,27.892126,64.814713,26.65695z"/>
	<path style="fill:#FFFFFF;" d="M63.687775,47.508007c-0.200012-1.517529-0.288506-3.043335-0.25325-4.571301L53.364174,44.16951
		c0.051083,0.799328,0.056118,1.594696,0.002159,2.383591L63.687775,47.508007z"/>
</g>
</svg>
