<svg xmlns="http://www.w3.org/2000/svg" width="50.379" height="175" viewBox="0 0 50.378662 175"><path d="M41.714 174.5c-1.67 0-3.412-.123-5.037-.355-1.466-.21-2.932-.51-4.48-.918l-.242-.068c-.265-.078-.595-.175-.848-.175-.093 0-.15.014-.18.025-.027.026-.047.12-.06.18-.05.22-.12.547-.435.79-.418.323-1.11.473-2.175.473-.74 0-1.527-.07-2.222-.132-.476-.04-.894-.08-1.184-.08-.142 0-.29.01-.446.02-.202.014-.42.03-.63.03-.34 0-.835-.032-1.22-.302-.288-.202-.394-.476-.464-.658-.02-.05-.05-.128-.066-.147-.31-.06-.66-.09-1.09-.09-.654 0-1.386.067-2.16.14-.82.076-1.67.155-2.474.155-1.038 0-2.528-.114-3.466-1.098-1.173-1.23-2.604-2.195-3.72-2.897-.18-.115-.333-.23-.466-.333-.096-.074-.226-.174-.284-.198-.002.012-.074.056-.208.202-.312.345-.675.743-1.182.856-.11.025-.23.038-.36.038-1.726 0-6.114-2.538-6.114-4.137v-.09l.033-.088c.566-1.48.93-2.852 1.284-4.245.264-1.04.925-2.006 1.507-2.86.177-.257.35-.51.507-.758l.12-.187c1.52-2.396 3.094-4.873 4.27-7.475.56-1.245.95-2.594 1.326-3.897l.252-.867c.096-.33.324-1.1 1.037-1.1.293 0 .565.14.88.302.116.058.243.124.384.188.127.06.182.06.187.06-.003-.027.075-.258.127-.41.064-.187.134-.388.227-.583l1-2.107c.77-1.594 1.474-2.884 2.216-4.06 1.836-2.91 3.9-5.42 6.128-7.457 1.634-1.494 1.91-4.17 2.157-6.532l.047-.446c.27-2.532.03-5.113-.204-7.61-.093-1.007-.187-2.015-.25-3.024-.157-2.492-.12-5.005-.083-7.435.015-.94.03-1.882.032-2.826.008-1.763.016-3.585-.77-5.15-.275-.552-.623-1.05-.99-1.58-.418-.6-.85-1.222-1.177-1.934-.674-1.464-1.142-2.69-1.473-3.855-.062-.22-.11-.502-.162-.807-.114-.68-.27-1.61-.697-1.795-.114-.05-.35-.086-.577-.12-.672-.102-1.593-.242-1.818-1.082-.207-.78-.002-1.724.177-2.558.06-.275.116-.535.15-.764.458-3.08.923-6.385 1.23-9.68.338-3.59.47-6.96.4-10.3-.03-1.552.09-3.114.206-4.624.12-1.558.243-3.17.196-4.748-.04-1.33-.116-2.66-.194-3.99-.088-1.533-.18-3.12-.21-4.687-.042-2.132.473-4.216.973-6.23l.116-.472c-.24.417-.43.87-.535 1.36l-.062.313c-.58 2.987-.92 3.805-1.58 3.805h-.465l-.043-.462-.24-3.136c-.013-.188-.007-.435 0-.698.007-.272.022-.792-.034-1.038l-.45.184-.175-.56c-.112-.492-.003-1.044.102-1.58.07-.354.142-.72.13-1.002-.018-.438-.064-.874-.11-1.31-.06-.56-.12-1.14-.123-1.728-.004-1.025-.108-2.09-.208-3.12-.066-.678-.132-1.356-.172-2.03-.226-3.747-.326-7.117.74-10.407.494-1.52 1.22-3.402 2.462-4.49.467-.408.99-.667 1.5-.916.652-.322 1.27-.626 1.655-1.222.554-.852.99-1.8 1.413-2.715.847-1.84 1.724-3.74 3.587-5.047C28.382.785 30.674.5 32.257.5c.98 0 1.96.106 2.915.317.488.107.962.146 1.463.186.896.073 1.823.148 2.78.646 1.176.61 2.37 1.676 3.28 2.925 1.153 1.585 1.014 3.237.892 4.694-.11 1.303-.213 2.535.56 3.657.13.19.338.414.56.652.754.814 2.018 2.177.65 3.487-.14.136-.258.24-.356.326-.283.25-.283.25-.295.823-.01.46-.2.862-.548 1.172.41.528.26 1.062.145 1.48-.064.228-.124.445-.118.68.004.147.02.293.034.437.053.546.115 1.165-.32 1.768-.39.543-1 .82-1.807.82-.565 0-1.164-.127-1.744-.25-.522-.11-1.015-.212-1.42-.212-.14 0-.26.014-.362.04-1.087.276-2.05 2.35-2.69 3.72-.22.476-.422.908-.606 1.237l-.31.547c-.922 1.615-1.385 2.425-.31 3.967.665.956.996 2.015 1.316 3.038.297.95.578 1.846 1.103 2.65.607.922 1.267 1.838 1.906 2.724.568.788 1.136 1.576 1.678 2.383 2.043 3.037 2.14 6.43 2.235 9.71.03 1.062.06 2.158.156 3.24.398 4.518.886 9.193 1.492 14.29.28 2.36.58 4.72.887 7.078.057.455.188 1.035.327 1.65.335 1.48.715 3.16.392 4.323-.106.377-.363.542-.516.64.008.437.092.85.19 1.262l.707 3.322c.428 1.99.913 4.244.86 6.636-.006.305.007.645.02 1 .032.92.07 1.96-.2 2.772-.232.7-.934 1.292-1.554 1.815-.178.15-.345.29-.48.42l-.16.153c-.708.682-1.137 1.093-2.32 1.123l-.512.01v-.703c-.008.117-.012.25-.012.403v.798c0 1.227 0 2.496-.067 3.754-.15 2.842-.344 6.142-.737 9.353-.176 1.444-.38 2.884-.586 4.325l-.2 1.41c-.067.477-.11.964-.15 1.454-.09 1.038-.184 2.11-.51 3.122-.56 1.726-1.605 2.83-2.615 3.895-.6.635-1.222 1.29-1.736 2.074-.22.337-.52.495-.762.623-.253.133-.378.205-.46.393-.132.304-.172.664-.214 1.044l-.015.13c-.19 1.664-.38 3.317-.558 4.972-.052.48-.155 1.094-.27 1.78-.377 2.252-.948 5.656.06 7.008.137.187.65.555 1.104.88 1.247.895 2.66 1.91 2.485 2.998-.14.875-1.206 1.204-1.556 1.313-.868.268-1.07.518-1.114.644-.05.145.058.35.16.5.284.415.177.846.105 1.13-.047.19-.074.312-.042.4.1.272.17.334.24.394.336.3.36.595.28 1.19-.026.193.116.377.348.66.163.2.345.423.457.69l.09.217-.164.316c.037.068.085.155.144.268.09.18.367.436.61.663.352.328.71.663.89 1.043.682.314 1.546 1.517 1.554 1.53.172.31.36.595.55.883.225.34.45.684.653 1.06.458.85 2.554 1.7 3.45 2.065l.12.05c1.05.427 2.348.753 3.753.943.86.118 1.43.875 1.888 1.483.138.184.27.362.405.508l.13.145v.193c0 1.736-2.132 2.08-3.278 2.264l-.1.016c-1.48.24-3.09.362-4.788.362zm-19.64-25.713c-1.135 1.593-1.956 3.35-2.82 5.197-.66 1.412-1.34 2.872-2.177 4.245-.45.74-.625 1.608-.49 2.442.088.537.308.874.564 1.265.173.26.367.557.526.927.163.38.268.99.39 1.692.22 1.256.586 3.358 1.417 3.475.23.034.514.153 1 .36.514.22 1.218.523 1.574.523.28-.314.418-1.286.52-1.996.044-.3.084-.578.13-.797.422-2.006.414-4.736-.02-6.954-.49-2.496-1.12-4.92-1.872-7.208-.345-1.048.613-1.428 1.073-1.61.16-.063.343-.136.425-.202.08-.063.143-.33-.238-1.36zm12.434 3.63c.032.42.1.72.31 1.027.02-.002.13-.002.13-.002.373-.294.36-.313.163-.573-.176-.238-.354-.353-.602-.454zM22.058 14.334c-.126.014-.313.103-.402.18-.018.042-.1.29-.21 1.038l-.03.185c-.277 1.496-.25 3.033.08 4.57l.148.676c.505 2.326 1.025 4.718 1.29 7.13.524-.844 1.198-2.015 1.062-2.498-.04-.14-.122-.26-.217-.4-.2-.293-.472-.692-.332-1.333.138-.64.527-1.273.927-1.862.553-.813.288-1.124-.352-1.874-.308-.362-.658-.773-.92-1.306-.494-.998-.66-2.107-.82-3.18-.066-.448-.133-.893-.224-1.325z" fill="#FFF"/><path d="M32.256 1c.968 0 1.923.11 2.81.305 1.426.314 2.75.077 4.12.788 1.185.616 2.315 1.69 3.104 2.776 2.03 2.79-.355 5.727 1.445 8.34.653.948 2.594 2.234 1.277 3.496-.698.67-.786.514-.807 1.5-.012.563-.4.912-.88 1.115 1.116.7.333 1.275.36 2.242.017.66.234 1.308-.192 1.9-.333.462-.832.61-1.402.61-1.005 0-2.232-.46-3.163-.46-.173 0-.336.015-.486.053-1.702.432-2.823 3.79-3.608 5.198-1.094 1.965-1.983 3.052-.595 5.044 1.213 1.74 1.255 3.91 2.413 5.674 1.142 1.742 2.425 3.386 3.586 5.113 2.6 3.867 1.915 8.25 2.307 12.715.42 4.776.927 9.545 1.493 14.305.28 2.363.58 4.724.887 7.084.202 1.555 1.15 4.273.734 5.775-.123.443-.63.3-.587.876.07.428.156.853.257 1.275.235 1.104.468 2.208.705 3.312.47 2.194.9 4.26.848 6.52-.024 1.078.185 2.603-.155 3.626-.25.756-1.348 1.5-1.904 2.03-.798.764-1.083 1.112-2.147 1.138-.002-.963.138-1.195.725-1.962-1.258.52-1.732.67-1.736 2.172-.004 1.513.013 3.017-.067 4.53-.164 3.11-.355 6.222-.733 9.317-.233 1.913-.517 3.818-.785 5.726-.208 1.48-.182 3.07-.64 4.492-.848 2.623-2.89 3.7-4.294 5.848-.333.51-.98.44-1.263 1.09-.18.414-.217.875-.268 1.317-.19 1.658-.38 3.316-.557 4.976-.237 2.2-1.56 7.2-.115 9.14.71.956 5.786 3.33 2.286 4.414-.885.274-1.99.777-1.22 1.904.298.436-.178.914.008 1.422.338.917.627.34.494 1.345-.088.665.61 1.066.84 1.61-.225.43-.21.26.084.835.323.634 1.615 1.35 1.56 2.018.006-.08.04-.114.093-.114.324 0 1.368 1.275 1.41 1.35.37.666.824 1.243 1.197 1.934.565 1.048 2.78 1.915 3.823 2.34 1.21.492 2.584.802 3.874.977.88.12 1.435 1.223 1.99 1.83 0 1.352-1.863 1.61-2.96 1.788-1.496.243-3.1.355-4.706.355-1.69 0-3.386-.124-4.966-.35-1.503-.215-2.954-.52-4.423-.906-.322-.085-.804-.26-1.217-.26-.13 0-.25.018-.36.06-.503.19-.245.75-.622 1.04-.366.283-1.074.37-1.87.37-1.237 0-2.69-.21-3.402-.215h-.017c-.294 0-.685.05-1.063.05-.353 0-.694-.044-.934-.212-.378-.265-.213-.775-.73-.884-.35-.074-.747-.102-1.176-.102-1.387 0-3.107.296-4.634.296-1.265 0-2.398-.203-3.103-.943-1.122-1.177-2.45-2.116-3.815-2.975-.476-.3-.723-.61-1.01-.61-.165 0-.343.103-.585.367-.247.27-.545.62-.922.705-.075.017-.16.025-.252.025-1.6 0-5.61-2.414-5.613-3.635 0 .018.003.026.008.026.03 0 .152-.364.136-.364-.008 0-.048.085-.144.337.555-1.448.923-2.807 1.302-4.3.317-1.248 1.274-2.407 1.95-3.473 1.583-2.49 3.203-5.022 4.423-7.723.7-1.553 1.12-3.2 1.602-4.83.163-.55.328-.74.558-.74.25 0 .576.223 1.056.444.16.073.29.105.397.105.487 0 .516-.67.805-1.278.333-.7.662-1.405 1-2.104.663-1.375 1.373-2.72 2.187-4.01 1.7-2.696 3.695-5.21 6.04-7.355 1.888-1.724 2.102-4.827 2.364-7.295.382-3.588-.23-7.144-.453-10.717-.213-3.42-.06-6.808-.047-10.227.007-1.827.013-3.71-.823-5.376-.62-1.237-1.576-2.226-2.16-3.5-.563-1.222-1.078-2.483-1.446-3.78-.233-.82-.238-2.53-1.14-2.925-.552-.24-1.908-.107-2.112-.873-.242-.91.206-2.233.337-3.12.48-3.23.93-6.456 1.234-9.708.326-3.478.473-6.87.403-10.355-.064-3.132.49-6.24.398-9.38-.085-2.892-.348-5.776-.404-8.67-.057-2.967 1.002-5.848 1.566-8.732-.9.937-1.723 1.985-2 3.297-.123.58-.663 3.72-1.155 3.72h-.006l-.24-3.135c-.053-.696.208-2.237-.438-2.237-.068 0-.145.017-.233.053-.16-.696.275-1.718.244-2.492-.04-1.01-.227-2.008-.232-3.02-.008-1.716-.28-3.462-.383-5.178-.205-3.424-.353-6.918.72-10.223.46-1.423 1.166-3.263 2.313-4.266 1.022-.895 2.465-1.04 3.246-2.243 1.676-2.58 2.204-5.758 4.867-7.625 1.57-1.103 3.57-1.55 5.52-1.55m-9.692 28.673c.465-.895 2.206-3.15 1.912-4.193-.163-.577-.69-.798-.54-1.49.127-.59.523-1.205.852-1.69 1.12-1.65-.496-2.173-1.24-3.68-.664-1.348-.697-2.97-1.01-4.424-.057-.268-.238-.362-.45-.362-.272 0-.593.156-.762.303-.25.217-.364 1.306-.402 1.51-.294 1.577-.257 3.2.082 4.766.66 3.054 1.37 6.138 1.557 9.26m-.347 118.096c-2.452 3.054-3.536 6.86-5.568 10.2-.5.822-.714 1.81-.556 2.782.17 1.042.754 1.448 1.122 2.308.477 1.118.512 5.228 2.197 5.466.448.064 1.896.887 2.643.887.164 0 .295-.04.373-.137.516-.636.598-2.25.766-3.053.454-2.16.408-4.975-.02-7.153-.482-2.464-1.106-4.898-1.886-7.268-.285-.863.87-.895 1.335-1.264.656-.522-.227-2.208-.407-2.77m10.898 3.912c-.052.053-.09.102-.118.144-.396.586-.03 1.362.19 1.362.157 0 .24-.388-.072-1.506m1.696 2.52c.598-.544 1.323-.8.7-1.63-.42-.562-.88-.632-1.54-.876.046 1.125.03 1.716.84 2.505M22.817 28.9c.06 0 .037.217-.252.773-.026-.434.178-.772.252-.772m-.6 118.87c.107.33-.032.5-.126.5-.092 0-.142-.165.128-.5m10.898 3.91c.07.252-.036.37-.11.37-.062 0-.102-.078-.008-.226.034-.05.073-.098.118-.144m1.76 2.262c.08 0 .135.076-.064.257-.162-.16-.03-.258.063-.258M32.256 0c-1.654 0-4.054.3-6.093 1.73-1.975 1.385-2.88 3.35-3.755 5.248-.433.94-.843 1.83-1.376 2.652-.31.48-.818.73-1.46 1.045-.51.252-1.09.537-1.606.99-1.336 1.168-2.095 3.13-2.607 4.71-1.094 3.372-.994 6.792-.766 10.592.04.684.11 1.376.174 2.045.1 1.02.202 2.073.207 3.077.003.61.065 1.202.125 1.775.047.443.09.862.108 1.28.01.223-.057.56-.12.885-.11.56-.236 1.192-.1 1.788l.262 1.15.392-.16-.007.297c-.008.27-.015.524.002.75l.12 1.58.12 1.555.065.863.864.06h.034l.04.002c.23 0 .43-.053.604-.16-.014.296-.02.594-.013.894.032 1.577.124 3.168.213 4.706.076 1.304.154 2.653.193 3.975.046 1.554-.076 3.152-.194 4.697-.117 1.522-.237 3.095-.205 4.672.067 3.313-.063 6.664-.398 10.24-.31 3.287-.773 6.583-1.23 9.655-.032.22-.087.468-.144.73-.19.89-.41 1.897-.17 2.794.308 1.156 1.508 1.338 2.225 1.447.154.024.385.06.457.086.186.145.336 1.037.4 1.42.052.308.1.6.175.86.338 1.19.814 2.438 1.5 3.926.344.75.79 1.39 1.22 2.01.356.513.693.998.954 1.518.73 1.457.724 3.22.717 4.924-.004.937-.018 1.87-.032 2.805-.036 2.444-.075 4.97.083 7.488.064 1.02.16 2.047.252 3.04.24 2.586.468 5.028.205 7.51l-.047.446c-.235 2.274-.502 4.85-1.997 6.217-2.263 2.07-4.353 4.612-6.213 7.56-.753 1.194-1.466 2.5-2.242 4.11-.214.445-.426.893-.638 1.34l-.363.768c-.09.187-.158.37-.213.53l-.033-.016c-.358-.183-.695-.355-1.11-.355-1.086 0-1.41 1.096-1.516 1.456l-.255.88c-.387 1.342-.753 2.612-1.3 3.822-1.16 2.57-2.725 5.034-4.238 7.416l-.116.183c-.155.244-.325.49-.497.743-.607.89-1.294 1.896-1.58 3.02-.35 1.38-.71 2.74-1.267 4.19l.08.03c-.002-.06.004-.117.012-.163.115-.21.412-.482.85-.482v.74l-.206.157.195.075H.658l-.166.002h.21l-.353.27c-.067-.088-.114-.18-.146-.27l-.204.002c.004 2.06 4.797 4.633 6.613 4.633.167 0 .325-.016.47-.05.62-.138 1.047-.572 1.338-.89.126.094.267.197.43.3 1.09.686 2.487 1.627 3.623 2.818 1.07 1.123 2.697 1.253 3.827 1.253.828 0 1.688-.08 2.52-.158.762-.07 1.483-.138 2.114-.138.284 0 .528.013.738.04.092.22.254.526.595.765.502.35 1.1.392 1.507.392.224 0 .452-.016.666-.03.144-.01.28-.02.397-.02.27 0 .7.04 1.155.08.705.062 1.505.133 2.265.133 1.198 0 1.963-.178 2.48-.578.352-.27.495-.612.567-.87.165.033.358.09.512.134.09.026.177.05.255.07 1.568.414 3.052.718 4.537.93 1.647.235 3.413.36 5.107.36 1.726 0 3.364-.124 4.867-.368l.104-.017c1.2-.193 3.695-.596 3.695-2.757v-.387l-.26-.285c-.125-.136-.247-.3-.376-.472-.486-.647-1.152-1.532-2.22-1.677-1.365-.185-2.62-.5-3.63-.912l-.128-.05c-.698-.285-2.82-1.147-3.194-1.838-.216-.4-.448-.754-.673-1.096-.192-.29-.373-.565-.53-.85-.01-.015-.787-1.174-1.624-1.657-.235-.405-.6-.744-.918-1.042-.178-.165-.448-.416-.506-.523l-.022-.043.15-.29-.18-.432c-.14-.336-.358-.6-.532-.813-.08-.1-.197-.243-.234-.317.075-.59.086-1.118-.45-1.594-.018-.014-.043-.048-.08-.14.008-.042.024-.107.037-.158.082-.326.234-.933-.18-1.536l-.044-.07c.098-.068.306-.18.736-.313 1.135-.352 1.775-.927 1.902-1.71.227-1.395-1.32-2.506-2.686-3.485-.373-.268-.884-.634-1-.776-.875-1.178-.304-4.588.038-6.625.118-.7.22-1.305.273-1.808.164-1.534.34-3.067.514-4.6l.042-.37.014-.128c.038-.343.074-.666.177-.902.01-.026.034-.046.234-.15.263-.14.658-.347.95-.793.49-.746 1.067-1.356 1.68-2 1.05-1.108 2.135-2.253 2.727-4.088.344-1.066.44-2.17.532-3.236.042-.497.083-.966.147-1.424l.2-1.4c.2-1.42.41-2.89.588-4.344.395-3.24.59-6.544.74-9.387.066-1.266.066-2.536.066-3.765v-.026l.038-.002c1.378-.034 1.915-.55 2.657-1.263l.156-.15c.13-.122.288-.255.457-.4.637-.537 1.43-1.207 1.707-2.04.298-.896.26-1.986.224-2.948-.012-.344-.024-.675-.018-.97.055-2.447-.437-4.734-.87-6.752-.155-.717-.307-1.435-.46-2.152l-.245-1.158c-.073-.308-.137-.608-.19-.906.19-.16.402-.398.506-.77.357-1.284-.037-3.03-.385-4.57-.136-.602-.265-1.17-.32-1.602-.342-2.617-.63-4.93-.886-7.073-.607-5.095-1.094-9.764-1.49-14.274-.094-1.067-.126-2.157-.156-3.21-.096-3.353-.196-6.818-2.318-9.975-.546-.813-1.124-1.614-1.683-2.39-.637-.882-1.296-1.796-1.897-2.713-.488-.744-.758-1.608-1.045-2.523-.33-1.06-.673-2.156-1.382-3.175-.894-1.283-.584-1.825.336-3.435l.312-.55c.196-.352.403-.797.622-1.268.562-1.208 1.502-3.23 2.36-3.448.04-.01.116-.023.24-.023.352 0 .82.1 1.315.203.605.127 1.23.26 1.848.26.98 0 1.724-.347 2.215-1.028.545-.757.467-1.54.41-2.11-.013-.133-.028-.266-.03-.4-.006-.16.043-.334.098-.534.097-.347.262-.937-.01-1.546.272-.35.422-.768.432-1.227.004-.194.01-.302.017-.364.03-.028.067-.058.11-.095.1-.09.224-.198.373-.34 1.72-1.65.072-3.43-.632-4.19-.208-.223-.404-.435-.514-.594-.673-.976-.58-2.07-.475-3.334.13-1.544.276-3.293-.986-5.03-.953-1.308-2.212-2.43-3.453-3.074-1.048-.545-2.07-.628-2.972-.7-.483-.04-.94-.077-1.395-.178C34.29.11 33.273 0 32.256 0zm-9.02 26.573c-.285-1.928-.7-3.832-1.103-5.694l-.147-.678c-.294-1.357-.338-2.716-.133-4.045.15.977.34 1.97.8 2.905.29.588.678 1.043.99 1.408.638.75.647.785.318 1.27-.427.63-.844 1.313-1 2.038-.185.85.184 1.393.405 1.717.07.105.132.195.15.257.016.164-.103.47-.278.82zm-1.45 141.787c-.336-.1-.832-.31-1.105-.428-.524-.225-.836-.354-1.127-.396-.215-.03-.56-.587-.993-3.066-.134-.765-.24-1.368-.424-1.803-.176-.41-.383-.726-.566-1.004-.243-.37-.42-.638-.49-1.07-.115-.718.035-1.465.424-2.104.85-1.398 1.54-2.87 2.205-4.296.258-.554.513-1.1.774-1.635.683 2.134 1.258 4.386 1.712 6.702.422 2.157.43 4.808.022 6.755-.048.228-.09.515-.135.828-.056.386-.157 1.093-.296 1.515z" fill="#FFC5FF"/></svg>