<?xml version="1.0" encoding="utf-8"?>
<!-- Generator: Adobe Illustrator 19.2.1, SVG Export Plug-In . SVG Version: 6.00 Build 0)  -->
<svg version="1.1" id="Layer_1" xmlns="http://www.w3.org/2000/svg" xmlns:xlink="http://www.w3.org/1999/xlink" x="0px" y="0px"
	 viewBox="0 0 15 20" style="enable-background:new 0 0 15 20;" xml:space="preserve">
<path style="fill:#fa645a;" d="M13.84229,5.22998c-0.29492-0.74512-0.71533-1.4043-1.26123-1.97607s-1.2002-1.22632-1.96289-1.55591
	C9.85498,1.3689,8.99707,1,8.04395,1H2v15H0v2h2v2h2v-2h7v-2H4v-2h4.04395c0.95313,0,1.81104-0.25952,2.57422-0.58911
	c0.7627-0.3291,1.41699-0.82727,1.96289-1.39954c0.5459-0.57178,0.96631-1.25861,1.26123-2.01251
	c0.29443-0.75439,0.44189-1.55923,0.44189-2.39127S14.13672,5.97559,13.84229,5.22998z M11.64502,9.16895
	c-0.18213,0.49414-0.44189,0.92285-0.77979,1.28711c-0.33789,0.36377-0.74561,0.82837-1.22217,1.04517
	C9.16602,11.71802,8.6333,12,8.04395,12H4V4h4.04395C8.6333,4,9.16602,3.87842,9.64307,4.09473
	c0.47656,0.21729,0.88428,0.39673,1.22217,0.76929c0.33789,0.37305,0.59766,0.74817,0.77979,1.24231
	s0.27295,0.98151,0.27295,1.51813C11.91797,8.17963,11.82715,8.6748,11.64502,9.16895z"/>
</svg>
