<?xml version="1.0" encoding="utf-8"?>
<!-- Generator: Adobe Illustrator 19.2.1, SVG Export Plug-In . SVG Version: 6.00 Build 0)  -->
<svg version="1.1" id="Layer_1" xmlns="http://www.w3.org/2000/svg" xmlns:xlink="http://www.w3.org/1999/xlink" x="0px" y="0px"
	 viewBox="0 0 28 36" style="enable-background:new 0 0 28 36;" xml:space="preserve">
<path style="fill:#FA645A;" d="M26.04346,7.95801c-0.56738-1.43311-1.375-2.7002-2.42529-3.80029
	c-1.0498-1.09961-2.30859-1.77026-3.7749-2.40356C18.37598,1.12134,16.72607,1,14.89355,1H3v28H0v4h3v3h4v-3h14v-4H7v-5h7.89355
	c1.83252,0,3.48242-0.0874,4.94971-0.72119c1.46631-0.63281,2.7251-1.3855,3.7749-2.4856
	c1.05029-1.09961,1.85791-2.31775,2.42529-3.76746c0.56641-1.4502,0.8501-2.94647,0.8501-4.54657S26.60986,9.3916,26.04346,7.95801z
	 M21.81836,15.53271c-0.3501,0.9502-0.8501,1.77539-1.5,2.4751c-0.6499,0.7002-1.43359,1.10474-2.3501,1.52124
	C17.05127,19.94604,16.02637,20,14.89355,20H7V5h7.89355c1.13281,0,2.15771,0.0625,3.07471,0.479
	c0.9165,0.41699,1.7002,0.9104,2.3501,1.62671c0.6499,0.71729,1.1499,1.51379,1.5,2.4635
	c0.3501,0.9502,0.5249,1.92413,0.5249,2.95685C22.34326,13.59344,22.16846,14.58301,21.81836,15.53271z"/>
</svg>
