<?xml version="1.0" encoding="utf-8"?>
<!-- Generator: Adobe Illustrator 19.2.1, SVG Export Plug-In . SVG Version: 6.00 Build 0)  -->
<svg version="1.1" id="Layer_1" xmlns="http://www.w3.org/2000/svg" xmlns:xlink="http://www.w3.org/1999/xlink" x="0px" y="0px"
	 viewBox="-1179.1907 -114.4072 140.0557 119" style="enable-background:new -1179.1907 -114.4072 140.0557 119;"
	 xml:space="preserve">
<style type="text/css">
	.st0{fill:none;stroke:#00044C;stroke-miterlimit:10;}
	.st1{fill:none;stroke:#D1EAFF;stroke-width:2;stroke-miterlimit:10;}
	.st2{fill:none;stroke:#D1EAFF;stroke-width:4;stroke-miterlimit:10;}
	.st3{fill:#D1EAFF;}
	.st4{fill:none;stroke:#D1EAFF;stroke-miterlimit:10;}
</style>
<g>
	<circle class="st0" cx="-1109.0623" cy="-41.1896" r="44.1117"/>
	<path class="st0" d="M-1087.2092-41.4821c0,14.2952-11.5885,25.8837-25.8837,25.8837c-7.6953,0-14.6062-3.3581-19.3473-8.6888"/>
	<g>
		<polyline class="st0" points="-1085.8899,-51.4748 -1094.6033,-55.4748 -1103.3168,-51.4748 		"/>
	</g>
	<g>
		<circle class="st0" cx="-1130.3474" cy="-52.7588" r="5.7717"/>
	</g>
	<path class="st1" d="M-1161.8129-22.9239L-1161.8129-22.9239c1.65,0,3-1.35,3-3v-35.2226c0-1.65-1.35-3-3-3l0,0c-1.65,0-3,1.35-3,3
		v35.2226C-1164.8129-24.2739-1163.4629-22.9239-1161.8129-22.9239z"/>
	<path class="st2" d="M-1167.6357-69.5941c0.3662,0.1516,0.7324,0.3032,1.0986,0.4551c1.2288,0.4934,2.8195-0.5469,3.6228-2.2242
		c21.5667-45.1636,86.4344-45.1638,108.0011,0c0.8033,1.6757,2.394,2.7191,3.6227,2.2242c0.3662-0.1517,0.7325-0.3033,1.0988-0.4551
		c1.2267-0.4916,1.5775-2.5079,0.6818-4.3799c-23.7246-49.6831-95.0829-49.6833-118.8075,0
		C-1169.2134-72.1021-1168.8625-70.0854-1167.6357-69.5941z"/>
	<path class="st1" d="M-1167.8127-31.4806L-1167.8127-31.4806c1.65,0,3-1.35,3-3v-18.1092c0-1.65-1.35-3-3-3l0,0c-1.65,0-3,1.35-3,3
		v18.1092C-1170.8127-32.8306-1169.4628-31.4806-1167.8127-31.4806z"/>
	<path class="st1" d="M-1173.8127-31.4806L-1173.8127-31.4806c1.65,0,3-1.35,3-3v-18.1092c0-1.65-1.35-3-3-3l0,0c-1.65,0-3,1.35-3,3
		v18.1092C-1176.8127-32.8306-1175.4628-31.4806-1173.8127-31.4806z"/>
	<path class="st1" d="M-1056.5127-22.9239L-1056.5127-22.9239c-1.65,0-3-1.35-3-3v-35.2226c0-1.65,1.35-3,3-3l0,0c1.65,0,3,1.35,3,3
		v35.2226C-1053.5127-24.2739-1054.8627-22.9239-1056.5127-22.9239z"/>
	<path class="st1" d="M-1050.5128-31.4806L-1050.5128-31.4806c-1.65,0-3-1.35-3-3v-18.1092c0-1.65,1.35-3,3-3l0,0c1.65,0,3,1.35,3,3
		v18.1092C-1047.5128-32.8306-1048.8628-31.4806-1050.5128-31.4806z"/>
	<path class="st1" d="M-1044.5128-31.4806L-1044.5128-31.4806c-1.65,0-3-1.35-3-3v-18.1092c0-1.65,1.35-3,3-3l0,0c1.65,0,3,1.35,3,3
		v18.1092C-1041.5128-32.8306-1042.8628-31.4806-1044.5128-31.4806z"/>
	<path class="st3" d="M-1078.222-3.804c-2.0924-0.0437-3.8289-0.1533-5.0416-0.2327c-1.2114-0.094-1.9037-0.1477-1.9037-0.1477
		s0.6902-0.0662,1.8981-0.1816c1.2058-0.1304,2.9258-0.3201,4.9727-0.6335c4.0909-0.6035,9.5046-1.699,14.6326-3.4062
		c2.554-0.8643,5.0479-1.8525,7.202-2.9824c0.9326-0.48,1.8009-0.9858,2.5874-1.4995c-0.8795,0.3394-1.8175,0.6575-2.8162,0.936
		c-2.3009,0.6594-4.8784,1.1228-7.469,1.458c-5.2051,0.6479-10.5062,0.6702-14.4501,0.479
		c-1.9735-0.0845-3.6143-0.2244-4.7595-0.3242c-1.1442-0.114-1.798-0.179-1.798-0.179l-0.0762-0.0088
		c-0.4149-0.0386-0.8397-0.0369-1.2701,0.0088c-3.4978,0.3718-6.032,3.5088-5.6603,7.0066s3.5087,6.032,7.0066,5.6604
		c0,0,0.7286-0.0776,2.0037-0.2131c1.2734-0.1506,3.0892-0.3708,5.2549-0.7249c4.3307-0.6863,10.0601-1.8987,15.6261-3.7996
		c3.9679-1.3652,7.866-3.0846,11.0673-5.1583c-3.5045,1.5007-7.5399,2.451-11.563,3.0707
		C-1068.4216-3.835-1074.0385-3.6958-1078.222-3.804z"/>
	<path class="st4" d="M-1045.8577-22.251c-2.1248,0.0327-3.8207,1.7817-3.788,3.9065c0,0,0.0026,0.1736,0.0074,0.4988
		c0,0.0562,0.0054,0.2278,0.0013,0.2161c-0.0031-0.0093-0.0018-0.0195,0.0063-0.0281c0.0044-0.0032,0.0313-0.0278,0.0386-0.0056
		c-0.01,0.0471-0.0179,0.0984-0.0228,0.155c-0.0193,0.2258-0.1229,0.5688-0.391,1.021c-0.246,0.4512-0.6859,0.999-1.2814,1.5754
		c-0.6675,0.6624-1.5551,1.3501-2.5875,2.0242c-0.7865,0.5137-1.6548,1.0195-2.5874,1.4995
		c-2.1542,1.1299-4.6481,2.1182-7.202,2.9824c-5.1279,1.7073-10.5416,2.8027-14.6326,3.4062
		c-2.0469,0.3135-3.7668,0.5032-4.9727,0.6335c-1.2079,0.1155-1.8981,0.1816-1.8981,0.1816s0.6923,0.0537,1.9037,0.1477
		c1.2128,0.0793,2.9492,0.189,5.0416,0.2327c4.1836,0.1082,9.8004-0.031,15.4436-0.8721c4.0231-0.6196,8.0585-1.5699,11.563-3.0707
		c1.4027-0.6007,2.7288-1.2808,3.9221-2.0765c1.0385-0.697,1.9817-1.4761,2.7596-2.3645c0.7827-0.8638,1.3986-1.8237,1.7859-2.7361
		c0.0944-0.2297,0.1835-0.4475,0.2675-0.6523c0.0809-0.2361,0.1486-0.5112,0.2062-0.7429c0.0575-0.2383,0.1045-0.4609,0.1433-0.6648
		c0.0199-0.1187,0.038-0.2263,0.0541-0.3228c0.0511-0.321,0.0784-0.4924,0.0784-0.4924c0.0317-0.209,0.0508-0.4458,0.0474-0.6641
		C-1041.9838-20.5879-1043.7328-22.2839-1045.8577-22.251z"/>
</g>
</svg>
