<?xml version="1.0" encoding="utf-8"?>
<!-- Generator: Adobe Illustrator 19.2.1, SVG Export Plug-In . SVG Version: 6.00 Build 0)  -->
<svg version="1.1" id="Layer_1" xmlns="http://www.w3.org/2000/svg" xmlns:xlink="http://www.w3.org/1999/xlink" x="0px" y="0px"
	 viewBox="-857.3877 -138.6677 175.6929 166" style="enable-background:new -857.3877 -138.6677 175.6929 166;"
	 xml:space="preserve">
<style type="text/css">
	.st0{fill:#F26522;}
	.st1{fill:#D1EAFF;}
	.st2{fill:none;stroke:#00044C;stroke-miterlimit:10;}
	.st3{fill:none;}
</style>
<g>
	<polygon class="st0" points="-706.4382,-15.548 -705.4174,-8.114 -699.4897,-3.5129 -706.4382,-6.3458 -713.3867,-3.5129 
		-707.4591,-8.114 	"/>
	<polygon class="st0" points="-687.2232,-2.1775 -686.735,2.0334 -682.5241,2.5216 -686.735,3.0097 -687.2232,7.2207 
		-687.7114,3.0097 -691.9223,2.5216 -687.7114,2.0334 	"/>
	<polygon class="st0" points="-700.9367,-1.0764 -700.3464,4.0149 -695.2551,4.6052 -700.3464,5.1954 -700.9367,10.2867 
		-701.5269,5.1954 -706.6182,4.6052 -701.5269,4.0149 	"/>
	<polygon class="st0" points="-686.0876,-2.156 -686.735,2.0334 -682.8049,3.6221 -686.9943,2.9747 -688.5831,6.9048 
		-687.9356,2.7154 -691.8657,1.1267 -687.6763,1.7742 	"/>
	<polygon class="st1" points="-758.3162,-12.9951 -759.337,-5.561 -765.2647,-0.9599 -758.3162,-3.7929 -751.3677,-0.9599 
		-757.2954,-5.561 	"/>
	<polygon class="st1" points="-777.5313,0.3754 -778.0194,4.5864 -782.2303,5.0745 -778.0194,5.5627 -777.5313,9.7736 
		-777.0431,5.5627 -772.8322,5.0745 -777.0431,4.5864 	"/>
	<polygon class="st1" points="-763.8177,1.4766 -764.408,6.5679 -769.4993,7.1581 -764.408,7.7484 -763.8177,12.8397 
		-763.2275,7.7484 -758.1362,7.1581 -763.2275,6.5679 	"/>
	<polygon class="st1" points="-778.6669,0.397 -778.0194,4.5864 -781.9495,6.1751 -777.7601,5.5276 -776.1714,9.4578 
		-776.8188,5.2684 -772.8887,3.6797 -777.0781,4.3271 	"/>
	<line class="st2" x1="-816.5245" y1="-73.1712" x2="-796.189" y2="-80.2028"/>
	<line class="st2" x1="-836.1349" y1="-66.3902" x2="-823.7274" y2="-70.6805"/>
	<path class="st2" d="M-826.5363-78.6464c-13.2219,4.5792-18.5337,6.4916-20.7223,7.528
		c-6.7037,3.1746-8.4467,11.7047-8.7468,18.422c-0.7832,17.5276,7.1379,40.5038,22.124,50.8733
		c6.478,4.4824,11.8536,3.1409,18.5762,0.7885c9.5753-3.3507,46.7585-16.1616,55.6693-19.4804
		c0.8451-0.3148,1.629-0.6888,2.3552-1.1162"/>
	<path class="st2" d="M-749.0584-46.8696c-0.2603-2.7502-0.8016-5.5951-1.7123-8.8821
		c-2.7559-9.9462-6.7237-20.0117-13.3442-27.9974c-4.5391-5.4751-12.554-12.6653-20.3208-9.3567c0,0-18.1552,6.1612-34.9986,11.9946
		"/>
	<path class="st2" d="M-789.9595-46.8695c0.8024,1.4841,0.9433,3.3074,0.2263,4.9782c-1.2454,2.9023-4.6078,4.2455-7.5102,3
		c-2.9023-1.2454-4.2455-4.6079-3.0001-7.5102c-8.8924-9.808-17.4835-25.5262-21.8731-44.3026
		c-5.2745-22.5649-1.698-37.4398,2.9676-43.3219c2.3878-3.0098,4.7507-3.3582,6.3207-3.3582c0.2146,0,0.4299,0.008,0.6497,0.0226
		c11.0244,0.7435,27.0768,18.3561,35.8481,43.8353"/>
	<path class="st2" d="M-761.6622-26.2247c-0.4466,0.1224-0.8524,0.15-1.195,0.15c-0.1282,0-0.2574-0.0044-0.3886-0.0131
		c-7.5534-0.5094-19.0444-14.2279-23.4562-33.0992c-3.1622-13.5279-1.018-22.4456,1.7791-25.9719
		c1.4315-1.8044,2.8481-2.0133,3.7894-2.0133c0.1287,0,0.2578,0.0048,0.3895,0.0135c7.5534,0.5094,19.044,14.2279,23.4562,33.0992
		c0.5994,2.564,1.008,4.9624,1.2576,7.19h-10.7278"/>
	<path class="st3" d="M-724.9561,14.1126c0.0107,0.0182,0.0212,0.0364,0.029,0.0544
		C-724.9349,14.1488-724.9452,14.1308-724.9561,14.1126z"/>
	<path class="st3" d="M-725.1449,13.898c0.0042,0.0034,0.0063,0.0067,0.0103,0.01
		C-725.1387,13.9046-725.1407,13.9015-725.1449,13.898z"/>
	<path class="st3" d="M-725.5698,13.6455c0.0161,0.0078,0.0341,0.0156,0.0494,0.0232
		C-725.5359,13.6611-725.5536,13.6535-725.5698,13.6455z"/>
	<path class="st3" d="M-722.4708,21.9738c0.2657,0.1357,0.4134,0.2095,0.4093,0.2085
		C-722.0575,22.1831-722.2051,22.1096-722.4708,21.9738z"/>
	<polygon class="st3" points="-726.1314,13.4184 -726.1317,13.4186 -726.1246,13.421 	"/>
	<path class="st3" d="M-724.134,11.7304c0.1009,0.0094,0.1976,0.0184,0.2969,0.0275
		C-723.9365,11.7487-724.033,11.7397-724.134,11.7304z"/>
	<path class="st3" d="M-736.264,17.9616c0.3853-0.0986,0.7793-0.1952,1.2116-0.2962c-0.4362,0.102-0.8339,0.1995-1.1957,0.292
		C-736.2539,17.9589-736.2583,17.9602-736.264,17.9616z"/>
	<path class="st3" d="M-708.3997,18.8583c1.7328,0.3171,2.973,0.7543,3.6031,1.3157
		C-705.4266,19.6121-706.6668,19.1748-708.3997,18.8583z"/>
	<path class="st3" d="M-723.8901,21.2343h-0.0002c0.2682,0.1423,0.5225,0.2763,0.7406,0.3895
		C-723.3677,21.5105-723.6219,21.3766-723.8901,21.2343z"/>
	<path class="st3" d="M-737.8741,23.1409c-0.2401,0.0667-0.49,0.116-0.7447,0.1558
		C-738.1137,23.265-737.8904,23.212-737.8741,23.1409z"/>
	<polygon class="st3" points="-724.89,14.3801 -724.8907,14.3764 -724.8904,14.3801 	"/>
	<path class="st3" d="M-739.3353,22.5979c0.5129,0.1384,1.0177,0.2941,1.4622,0.5411
		C-737.8504,23.0104-738.4911,22.8233-739.3353,22.5979z"/>
	<path class="st3" d="M-725.6238,15.1057c0.1708-0.093,0.3052-0.1866,0.4213-0.2802h0.0001h0.0001l-0.0001-0.0003
		C-725.3185,14.9191-725.453,15.0126-725.6238,15.1057z"/>
	<path class="st3" d="M-722.0615,22.1823c2.1364,1.0448,1.8792,2.4166-1.954,3.4242
		C-720.1818,24.5997-719.925,23.2265-722.0615,22.1823z"/>
	<path class="st0" d="M-706.55,15.9425c0.0038-0.0011-0.0754-0.0045-0.1929-0.0092c-0.5971,0.6257-2.1517,1.3294-5.7972,2.0995
		c1.9812-0.4193,4.3174-1.1275,5.835-2.5239c0.2969-0.273,0.5842-0.6036,0.6215-1.005c0.0718-0.7717-0.7653-1.2891-1.4982-1.5405
		c-4.5056-1.5445-10.3241-2.3096-15.4642-2.211c4.1949-1.8681,6.67-6.4628,5.6882-11.1389c0,0-0.2333-1.1112-0.6417-3.0557
		c-0.1045-0.4807-0.2205-1.0129-0.3464-1.5922c-0.1671-0.5743-0.3477-1.1953-0.5406-1.8589
		c-0.3959-1.3202-0.7999-2.8001-1.4567-4.3688c-0.307-0.7807-0.627-1.594-0.958-2.4356c-0.3739-0.8265-0.7991-1.6665-1.2173-2.5262
		c-0.7827-1.7369-1.9108-3.4432-2.9599-5.2046c-0.5828-0.8566-1.2153-1.701-1.8328-2.5544
		c-0.3199-0.4209-0.6052-0.8618-0.9578-1.2656c-0.3487-0.403-0.6993-0.8081-1.0513-1.2148
		c-1.3485-1.6562-2.9579-3.1232-4.4925-4.5889c-1.6713-1.3497-3.2764-2.7089-5.0401-3.7987
		c-0.4274-0.2828-0.853-0.5645-1.2766-0.845c-0.4196-0.2812-0.8828-0.5002-1.3159-0.7485c-0.8816-0.476-1.7335-0.958-2.5887-1.3903
		c-1.7785-0.7583-3.415-1.57-5.0857-2.0642c-0.8215-0.2717-1.6068-0.5501-2.3757-0.7825c-0.7813-0.1911-1.5358-0.3756-2.2603-0.553
		c-1.4177-0.3901-2.7905-0.5677-3.9666-0.7543c-0.5854-0.0888-1.1331-0.1718-1.6395-0.2485
		c-0.504-0.0364-0.9668-0.0698-1.3849-0.0999c-1.0226-0.0738-1.7733-0.128-2.2053-0.1591c0.0168,0.0042,0.032,0.008,0.0488,0.0123
		c1.3477,0.3492,2.9147,0.7174,4.4551,1.3041c0.7911,0.2762,1.615,0.5643,2.4678,0.8621c0.8368,0.3426,1.6881,0.7374,2.5734,1.1265
		c1.7997,0.7245,3.5481,1.8004,5.4246,2.8154c0.9022,0.5651,1.7955,1.1837,2.7145,1.7941c0.4514,0.316,0.9334,0.6001,1.3675,0.9509
		c0.4369,0.349,0.8759,0.7,1.3167,1.0521c1.816,1.3602,3.4379,3.0001,5.1113,4.6102c1.5261,1.7353,3.1135,3.4527,4.4071,5.35
		c0.3384,0.4649,0.6758,0.9283,1.0113,1.389c0.3387,0.4604,0.6042,0.9594,0.9067,1.4354c0.5809,0.9641,1.176,1.9127,1.7169,2.8686
		c0.9562,1.9638,1.9945,3.8443,2.6661,5.7398c0.3646,0.9383,0.7383,1.8502,1.0589,2.7439c0.274,0.9064,0.5386,1.7825,0.7928,2.6232
		c0.5533,1.6821,0.8469,3.2587,1.1479,4.6569c0.1452,0.7008,0.2811,1.3566,0.4067,1.9633c0.082,0.6099,0.1573,1.17,0.2253,1.6757
		c0.2625,2.0336,0.4127,3.1959,0.4127,3.1959c0.2889,2.2368-0.3545,4.3791-1.628,6.0371c0.0734,0.0066,0.1411,0.0132,0.2138,0.0199
		c0.101,0.0094,0.1976,0.0183,0.2969,0.0275c0.5741,0.0534,1.1292,0.1062,1.645,0.1581c2.5854,0.2622,4.5122,0.511,6.0203,0.7443
		c1.7587,0.2646,2.8965,0.5153,3.6855,0.7498c0.5746,0.1705,0.9695,0.3324,1.2571,0.4836c0.3339,0.1782,0.5179,0.3437,0.6412,0.495
		c0.0657,0.1587,0.068,0.3042,0.0497,0.4372c-0.1089,0.3998-0.124,0.6729-0.114,0.7838c0.0034,0.0369,0.0095,0.0561,0.0156,0.0622
		c0.0058,0.2483-0.0598,0.5717-0.3819,0.9696c-0.3416,0.422-0.9716,0.9277-2.1299,1.5213c0.2151-0.043,0.3942-0.0849,0.5959-0.1276
		c2.1115,0.442,3.6182,0.7216,4.0288,0.7989c0.0754,0.014,0.1265,0.0237,0.1241,0.024c1.7329,0.3165,2.9731,0.7538,3.6031,1.3157
		c0.3782,0.3368,0.5367,0.7185,0.4495,1.1462C-696.0511,17.9221-698.8969,15.8386-706.55,15.9425z"/>
	<path class="st0" d="M-725.2023,14.8255c0.0521-0.0419,0.1088-0.0838,0.1483-0.1257c-0.0399,0.0419-0.0967,0.0838-0.1484,0.1255
		L-725.2023,14.8255z"/>
	<path class="st0" d="M-725.054,14.6998c0.0997-0.106,0.1476-0.2127,0.1639-0.3197h-0.0004
		C-724.9066,14.4871-724.9543,14.5938-725.054,14.6998z"/>
	<path class="st1" d="M-722.0615,22.1824c0.0041,0.001-0.1436-0.0728-0.4093-0.2085c-0.1772-0.0905-0.4069-0.2085-0.679-0.3501
		c-0.2181-0.1132-0.4724-0.2472-0.7406-0.3895c-0.0958-0.0507-0.1869-0.0988-0.2878-0.1526
		c-2.5732,0.4943-5.0741,0.9117-6.8927,1.166c-2.1405,0.2592-4.979,0.2946-8.8156,0.1892
		c-0.0217-0.0006-0.0415-0.0011-0.0633-0.0016c-2.0552-0.5298-2.5183-1.1715-2.1254-1.8143
		c0.343-0.5596,1.3329-1.1201,2.5125-1.6093c-0.0045,0.0029,0.7762-0.4022,3.2815-1.0457c0.0061-0.0015,0.0108-0.0029,0.017-0.0044
		c0.0057-0.0015,0.0101-0.0028,0.0158-0.0043c0.3619-0.0924,0.7596-0.1901,1.1957-0.292c1.6895-0.4066,3.896-0.8768,5.7884-1.3811
		c0.9675-0.254,1.8739-0.5076,2.6417-0.7775c0.3803-0.1328,0.7141-0.2662,0.9986-0.4011c0.1708-0.093,0.3052-0.1866,0.4214-0.2805
		c0.0517-0.0415,0.1085-0.0835,0.1484-0.1255c0.0997-0.1058,0.1473-0.2126,0.1636-0.3196c0.0002-0.0013-0.0005-0.0026-0.0002-0.0037
		c0.0098-0.0696-0.0065-0.1394-0.0364-0.2095c-0.0078-0.0181-0.0183-0.0363-0.029-0.0544
		c-0.0398-0.0681-0.0963-0.1362-0.1786-0.2045c-0.004-0.0033-0.0061-0.0066-0.0103-0.01c-0.0944-0.0763-0.2227-0.1527-0.3755-0.2294
		c-0.0154-0.0076-0.0333-0.0154-0.0494-0.0232c-0.1555-0.0747-0.3381-0.1497-0.5549-0.2245
		c-0.0024-0.0009-0.0045-0.0016-0.007-0.0023c-0.3608-0.1243-0.8002-0.2485-1.348-0.3728
		c-0.9288-0.2142-2.0699-0.4316-3.5002-0.6494c0.3818-1.0281,0.5174-2.1638,0.3388-3.3247c0,0-0.1577-1.0256-0.4335-2.8199
		c-0.1346-0.8937-0.2958-1.9767-0.5768-3.2207c-0.1296-0.6196-0.2678-1.2786-0.4133-1.9735
		c-0.074-0.3461-0.1501-0.7009-0.2278-1.0643c-0.0974-0.3629-0.197-0.734-0.2987-1.1133c-0.415-1.5135-0.8099-3.1456-1.433-4.8477
		c-0.2988-0.8505-0.5662-1.7252-0.9133-2.6058c-0.3666-0.8735-0.741-1.7656-1.1217-2.6731
		c-0.3503-0.9087-0.8495-1.7971-1.3032-2.7004c-0.4716-0.8987-0.8981-1.8184-1.4791-2.6897
		c-0.5531-0.8794-1.0873-1.7689-1.6646-2.6355c-0.6304-0.8342-1.2632-1.6716-1.8963-2.5092
		c-0.2997-0.4241-0.662-0.8086-1.0176-1.1942l-1.0585-1.152c-0.3587-0.3759-0.6865-0.7717-1.0661-1.1226
		c-0.3853-0.3439-0.7696-0.6869-1.1523-1.0284c-1.4698-1.4155-3.1583-2.5206-4.7075-3.6274
		c-1.6806-0.9377-3.2201-1.9268-4.8428-2.5513c-0.7966-0.3339-1.5422-0.7068-2.3038-0.9701
		c-0.7645-0.2462-1.503-0.4839-2.212-0.7122c-1.3853-0.5055-2.7582-0.7108-3.9139-0.9844
		c-0.5843-0.1176-1.1233-0.2631-1.6267-0.3308c-0.5046-0.0621-0.968-0.1194-1.3866-0.1708
		c-1.6741-0.2063-2.6307-0.3242-2.6307-0.3242s0.5826,0.2046,1.6178,0.5677c0.267,0.0936,0.5567,0.1953,0.883,0.3097
		c0.3978,0.1394,0.8383,0.2942,1.3178,0.4623c0.4776,0.1735,0.9604,0.4266,1.4897,0.6594c1.0447,0.5045,2.2418,0.9498,3.4446,1.7142
		c0.6062,0.3516,1.2376,0.718,1.8912,1.0969c0.642,0.3906,1.2503,0.8872,1.8989,1.3406c1.3287,0.8652,2.5065,2.0676,3.7778,3.1753
		c1.1371,1.2751,2.3598,2.4999,3.3329,3.9746l0.7728,1.0599c0.2516,0.358,0.4523,0.7601,0.6808,1.136l0.6647,1.1407
		c0.2227,0.3777,0.4511,0.749,0.6207,1.1633c0.3671,0.7972,0.7344,1.5945,1.1002,2.3889c0.3154,0.8191,0.5905,1.6526,0.8841,2.4585
		c0.3189,0.7913,0.4993,1.6483,0.7227,2.4624c0.2074,0.8229,0.4591,1.6055,0.5792,2.4346c0.1488,0.8093,0.295,1.6056,0.4382,2.3848
		c0.1265,0.7814,0.1845,1.5706,0.2775,2.3191c0.2103,1.4888,0.2326,2.9475,0.304,4.2667c0.0162,0.33,0.0322,0.6526,0.0479,0.9684
		c-0.0026,0.3202-0.0053,0.6331-0.0076,0.9382c-0.0062,0.6077-0.0121,1.1844-0.0177,1.7261
		c0.0116,1.0751-0.0564,2.0269-0.1096,2.8082c-0.0967,1.5546-0.1521,2.443-0.1521,2.443l-0.0171,0.2561
		c-0.0255,0.4558-0.0042,0.9209,0.068,1.3904c0.186,1.2107,0.6924,2.2903,1.4125,3.1775c-0.2149,0.03-0.4268,0.0635-0.6406,0.093
		c-4.09,0.563-9.1541-0.6428-12.7209,2.0167c-1.0096,0.7528-1.7371,2.0239-1.479,3.2563c0.2131,1.0171,1.0379,1.8007,1.9305,2.3334
		c2.0728,1.2366,4.4095,1.4214,6.7713,1.3904c1.96,1.4607,5.6903,2.802,12.1349,3.1125c5.4434,0.2534,9.7808-0.187,12.3864-0.8699
		C-720.1823,24.5989-719.925,23.2271-722.0615,22.1824z"/>
</g>
</svg>
