<?xml version="1.0" encoding="utf-8"?>
<!-- Generator: Adobe Illustrator 19.2.1, SVG Export Plug-In . SVG Version: 6.00 Build 0)  -->
<svg version="1.1" id="Layer_1" xmlns="http://www.w3.org/2000/svg" xmlns:xlink="http://www.w3.org/1999/xlink" x="0px" y="0px"
	 viewBox="-1500.9515 -150.9396 142.6929 161" style="enable-background:new -1500.9515 -150.9396 142.6929 161;"
	 xml:space="preserve">
<style type="text/css">
	.st0{fill:none;stroke:#D1EAFF;stroke-width:2;stroke-miterlimit:10;}
	.st1{fill:none;stroke:#00044C;stroke-miterlimit:10;}
</style>
<g>
	<path class="st0" d="M-1491.8846-122.8693c-2.7616,10.2783,2.3684,17.8251,11.8627,19.3459
		c0.0895,0.2745,0.2136,0.5838,0.2911,0.9045c1.0392,4.2943,3.7117,7.2446,7.6062,9.1453c2.8738,1.4026,5.9543,1.8485,9.1267,1.7445
		c0.3894-0.0128,0.7799-0.0671,1.1647-0.1329c1.486-0.2543,2.4263-1.3944,2.2664-2.7305c-0.1727-1.4413-1.3496-2.3018-2.9218-2.2825
		c-1.4078,0.0174-2.8411,0.0428-4.2209-0.1873c-2.7268-0.4548-5.1398-1.5959-6.7971-3.9302
		c-0.4655-0.6556-0.7649-1.4291-1.166-2.1975c2.0076-0.3403,3.8455-0.5824,5.6499-0.9769c1.8763-0.4102,2.6295-2.3337,1.588-3.8674
		c-0.652-0.9603-1.6033-1.2002-2.7063-1.0404c-1.4492,0.21-2.8975,0.4335-4.3524,0.5937c-2.4124,0.2656-4.8047,0.0266-7.1121-0.6699
		c-4.3558-1.3148-7.2494-5.991-5.361-11.1865c0.8826,0.255,1.7649,0.5282,2.6571,0.7643c2.9103,0.7704,5.8666,1.0426,8.8636,0.7239
		c1.6178-0.172,2.6852-1.253,2.6127-2.597c-0.0853-1.5842-1.5435-2.6366-3.0446-2.485c-2.3,0.2323-4.599,0.0806-6.8494-0.4552
		c-3.7842-0.9009-7.0549-2.6086-9.0957-6.1124c-1.4077-2.4172-2.0446-5.0722-2.2021-7.832
		c-0.0728-1.2757,0.2665-2.5295,0.8713-3.6722c0.9677-1.8278,3.118-2.4724,4.8877-1.407c0.6991,0.4209,1.3622,0.9805,1.8809,1.6095
		c4.1401,5.0214,9.4314,8.6063,14.8392,12.0681c4.0729,2.6073,8.1453,5.2228,12.108,7.9919
		c2.8176,1.9689,5.2716,4.3797,6.9948,7.4128c2.0244,3.5634,2.613,7.3299,1.3702,11.2965
		c-0.1884,0.6008-0.4965,1.1641-0.7494,1.7446c-0.5436,1.2478-0.1931,2.4916,0.907,3.2187
		c1.1031,0.7291,2.3947,0.5653,3.2842-0.4995c0.3678-0.4402,0.6484-0.9797,0.8649-1.5159
		c2.3373-5.7923,1.7505-11.3972-1.2502-16.7742c-2.1136-3.7873-5.2054-6.7407-8.7012-9.2052
		c-3.9106-2.7569-7.9718-5.3018-11.9922-7.9009c-4.1483-2.6817-8.3192-5.3285-11.7716-8.9229
		c-0.9819-1.0222-1.9069-2.0991-2.8899-3.1202c-1.9648-2.0407-4.3066-3.1216-7.2113-2.937
		c-3.0961,0.1967-5.3507,1.6789-6.926,4.2728c-1.2034,1.9816-1.6588,4.1783-1.5667,6.4663
		c0.1815,4.5036,1.4232,8.675,4.2397,12.2605C-1493.9688-124.8404-1492.8888-123.9044-1491.8846-122.8693z"/>
	<path class="st0" d="M-1406.6776-122.8693c-2.7616,10.2783,2.3684,17.8251,11.8627,19.3459
		c0.0895,0.2745,0.2136,0.5838,0.2911,0.9045c1.0392,4.2943,3.7117,7.2446,7.6062,9.1453c2.8738,1.4026,5.9543,1.8485,9.1267,1.7445
		c0.3894-0.0128,0.7799-0.0671,1.1647-0.1329c1.486-0.2543,2.4263-1.3944,2.2664-2.7305c-0.1726-1.4413-1.3496-2.3018-2.9218-2.2825
		c-1.4078,0.0174-2.8411,0.0428-4.2209-0.1873c-2.7268-0.4548-5.1398-1.5959-6.7971-3.9302
		c-0.4655-0.6556-0.7649-1.4291-1.166-2.1975c2.0076-0.3403,3.8455-0.5824,5.6499-0.9769c1.8763-0.4102,2.6295-2.3337,1.588-3.8674
		c-0.652-0.9603-1.6033-1.2002-2.7063-1.0404c-1.4491,0.21-2.8975,0.4335-4.3524,0.5937c-2.4124,0.2656-4.8047,0.0266-7.1121-0.6699
		c-4.3558-1.3148-7.2494-5.991-5.361-11.1865c0.8826,0.255,1.7649,0.5282,2.6571,0.7643c2.9103,0.7704,5.8666,1.0426,8.8636,0.7239
		c1.6178-0.172,2.6852-1.253,2.6127-2.597c-0.0853-1.5842-1.5435-2.6366-3.0446-2.485c-2.3,0.2323-4.599,0.0806-6.8494-0.4552
		c-3.7842-0.9009-7.0549-2.6086-9.0956-6.1124c-1.4078-2.4172-2.0447-5.0722-2.2021-7.832
		c-0.0729-1.2757,0.2664-2.5295,0.8712-3.6722c0.9677-1.8278,3.118-2.4724,4.8877-1.407c0.6991,0.4209,1.3622,0.9805,1.8809,1.6095
		c4.1401,5.0214,9.4314,8.6063,14.8392,12.0681c4.0729,2.6073,8.1453,5.2228,12.108,7.9919
		c2.8176,1.9689,5.2716,4.3797,6.9948,7.4128c2.0244,3.5634,2.613,7.3299,1.3702,11.2965
		c-0.1884,0.6008-0.4965,1.1641-0.7494,1.7446c-0.5436,1.2478-0.1931,2.4916,0.907,3.2187
		c1.1033,0.7291,2.3947,0.5653,3.2843-0.4995c0.3677-0.4402,0.6483-0.9797,0.8647-1.5159
		c2.3373-5.7923,1.7505-11.3972-1.2502-16.7742c-2.1136-3.7873-5.2054-6.7407-8.7012-9.2052
		c-3.9106-2.7569-7.9718-5.3018-11.9922-7.9009c-4.1482-2.6817-8.3192-5.3285-11.7716-8.9229
		c-0.9819-1.0222-1.9069-2.0991-2.8899-3.1202c-1.9648-2.0407-4.3066-3.1216-7.2113-2.937
		c-3.0961,0.1967-5.3507,1.6789-6.926,4.2728c-1.2034,1.9816-1.6588,4.1783-1.5667,6.4663
		c0.1815,4.5036,1.4232,8.675,4.2397,12.2605C-1408.7617-124.8404-1407.6818-123.9044-1406.6776-122.8693z"/>
	<rect x="-1452.9312" y="-85.4154" class="st1" width="78.1399" height="94"/>
	<polyline class="st1" points="-1444.235,-29.7628 -1418.3904,-58.786 -1404.9277,-43.8857 -1398.3766,-51.5471 
		-1383.4874,-36.4844 	"/>
	<circle class="st1" cx="-1433.839" cy="-58.826" r="4.6924"/>
	<rect x="-1445.7004" y="-77.042" class="st1" width="63.6784" height="63.6784"/>
</g>
</svg>
