<svg xmlns="http://www.w3.org/2000/svg" viewBox="0 0 129.09314 80"><path d="M114.595 62.399c-10.35 10.349-27.19 10.349-37.54 0s-10.348-27.19 0-37.539a26.397 26.397 0 0 1 8.44-5.673 1.699 1.699 0 0 1 2.225 2.228c-3.683 8.725-1.743 18.685 4.946 25.374 6.69 6.688 16.649 8.629 25.374 4.945a1.7 1.7 0 0 1 2.228 2.226 26.397 26.397 0 0 1-5.673 8.439zM79.458 27.262c-9.024 9.025-9.024 23.71 0 32.734s23.71 9.025 32.734 0a22.903 22.903 0 0 0 3.05-3.771c-8.903 2.162-18.345-.4-24.978-7.034-6.634-6.634-9.196-16.075-7.034-24.977a22.903 22.903 0 0 0-3.772 3.048zM104.768 29.13c-2.874-4.34-2.96-4.354-6.758-.834 3.744-3.576 3.744-3.576 0 0 3.737-3.583 3.73-3.592-.682-.838 4.405-2.764 4.405-2.764 0 0 4.356-2.841 4.38-2.943 1.668-7.36 2.788 4.368 2.788 4.368 0 0 2.856 4.324 2.943 4.338 6.72.796-3.724 3.597-3.724 3.597 0 0-3.716 3.605-3.709 3.612.683.838-4.386 2.785-4.386 2.785 0 0-4.342 2.852-4.355 2.937-.757 6.68-3.652-3.689-3.652-3.689 0 0-3.66-3.68-3.67-3.673-.874.718zM118.102 18.689c-5.704-8.554-5.887-8.582-13.38-1.652 7.378-7.05 7.378-7.05 0 0 7.363-7.065 7.348-7.085-1.35-1.658 8.683-5.447 8.683-5.447 0 0 8.578-5.613 8.63-5.83 3.303-14.576 5.49 8.643 5.49 8.643 0 0 5.635 8.547 5.82 8.577 13.306 1.578-7.372 7.117-7.372 7.117 0 0-7.355 7.135-7.34 7.15 1.35 1.658-8.677 5.514-8.677 5.514 0 0-8.585 5.657-8.612 5.84-1.497 13.226-7.23-7.27-7.23-7.27 0 0-7.248-7.253-7.268-7.238-1.732 1.424zM124.31 29.42c-1.146-3-1.679-3.319-4.806-2.694 2.921-1.146 2.921-1.146 0 0 2.894-1.21 2.872-1.293-.255-.836 3.107-.539 3.107-.539 0 0 2.99-1.185 3.43-1.796 3.505-5.004.561 3.095.561 3.095 0 0 1.135 2.984 1.672 3.313 4.79 2.656-2.917 1.166-2.917 1.166 0 0-2.884 1.243-2.857 1.309.254.836-3.101.56-3.101.56 0 0-2.994 1.12-3.312 1.654-2.612 4.772-1.205-2.906-1.205-2.906 0 0-1.282-2.873-1.362-2.852-.876.27z" fill="#fff"/><path d="M97.734 22.926a18.55 18.55 0 0 0-7.986 2.076l-.216 2.367s-.043.03.252-.15a16.349 16.349 0 0 1 7.42-2.344l.53-1.95zM111.35 28.26a18.212 18.212 0 0 0-4.129-3.076l-.7 1.836a16.39 16.39 0 0 1 3.446 2.627c5.573 5.564 6.303 14.153 2.217 20.529-.006.008-.023.023-.023.023l1.136-.086 1.294-.113c3.628-6.951 2.593-15.912-3.24-21.74zM37.11 58.925a13.687 13.687 0 0 0 9.094-5.338 13.69 13.69 0 0 0 2.659-10.204C47.818 35.86 40.848 30.585 33.32 31.63a13.687 13.687 0 0 0-9.095 5.338 13.691 13.691 0 0 0-2.659 10.204c1.047 7.525 8.014 12.79 15.543 11.753zm-10.243-19.96c2.231-2.95 5.736-4.384 9.176-4.117a10.4 10.4 0 0 1 5.484 2.081c4.602 3.483 5.514 10.058 2.035 14.66a10.4 10.4 0 0 1-6.91 4.055 10.39 10.39 0 0 1-7.75-2.018c-4.602-3.482-5.514-10.058-2.035-14.66zM36.49 27.127l1.221-13.202a2.606 2.606 0 0 0-5.21.078l1.606 13.125c.799-.05 1.594-.055 2.383 0zM26.12 29.511L20.168 16.58a2.607 2.607 0 0 0-4.475 2.672l8.625 11.455a18.007 18.007 0 0 1 1.802-1.195zM20.06 35.239L7.631 26.443a2.607 2.607 0 0 0-2.54 4.552L19.06 36.93c.3-.579.636-1.142 1.001-1.691zM17.063 44.002l-13.2-1.221a2.606 2.606 0 0 0 .077 5.211l13.125-1.606c-.05-.8-.056-1.595-.002-2.384zM19.466 54.364l-12.95 5.96A2.607 2.607 0 0 0 9.19 64.8l11.46-8.63c-.43-.574-.82-1.18-1.183-1.806zM25.17 60.44l-8.79 12.421a2.606 2.606 0 0 0 4.552 2.54l5.937-13.973a18.288 18.288 0 0 1-1.699-.987zM45.26 30.114l8.789-12.42a2.606 2.606 0 0 0-4.552-2.54L43.56 29.128c.583.303 1.154.625 1.7.987zM33.94 63.426L32.718 76.63a2.607 2.607 0 0 0 5.212-.077L36.322 63.42c-.802.05-1.599.06-2.382.006zM54.736 71.304l-8.625-11.455c-.577.434-1.177.835-1.801 1.195l5.952 12.932a2.607 2.607 0 0 0 4.474-2.672zM65.337 59.56l-13.966-5.934a18.382 18.382 0 0 1-1.001 1.69l12.429 8.796a2.607 2.607 0 0 0 2.538-4.552zM64.815 26.657a2.607 2.607 0 0 0-3.574-.901L49.786 34.38c.434.578.836 1.177 1.195 1.802l12.933-5.952a2.607 2.607 0 0 0 .9-3.574zM63.688 47.508a29.715 29.715 0 0 1-.253-4.571l-10.07 1.233c.05.799.055 1.594.001 2.383l10.322.955z" fill="#fff"/></svg>