<svg xmlns="http://www.w3.org/2000/svg" viewBox="0 0 379.581543 379.580566"><g fill="#ecc7de"><path d="M73.378 54.608h8.208v3.384c2.377-2.952 6.625-4.248 10.37-4.248 11.232 0 18.145 7.849 18.145 18.938 0 11.448-7.489 20.017-18.722 20.017-4.176 0-8.137-1.08-9.793-3.096v16.85h-8.208V54.608zm8.208 12.889v12.961c1.8 3.024 5.185 4.609 8.857 4.609 6.697 0 11.161-4.753 11.161-11.737 0-7.561-4.032-11.954-10.513-11.954-4.752 0-7.993 2.88-9.505 6.121zM156.825 39.559c2.665 0 4.753 1.872 4.753 4.32 0 2.592-2.088 4.464-4.753 4.464-2.88 0-4.824-1.872-4.824-4.464 0-2.448 2.088-4.32 4.824-4.32zm-4.104 15.049h8.209V92.05h-8.209V54.608zM239.7 83.482c-3.096 6.05-9.577 9.217-16.057 9.217-12.025 0-20.162-7.632-20.162-19.441 0-11.09 7.92-19.514 19.73-19.514 7.704 0 13.61 3.528 16.057 8.497l-6.12 4.032c-2.52-3.384-5.329-4.897-9.577-4.897-6.769 0-11.593 4.825-11.593 11.882 0 6.768 4.896 11.809 12.457 11.809 4.248 0 7.345-2.16 9.432-5.329l5.833 3.744zM279.08 64.905c0-6.913 5.762-11.16 15.41-11.16 6.625 0 12.673 3.095 15.122 6.624l-5.617 5.328c-2.232-2.592-6.193-4.32-10.873-4.32-3.024 0-5.544.791-5.544 3.384 0 5.184 22.682 3.384 22.682 16.561 0 7.849-7.129 11.377-15.41 11.377-8.352 0-14.69-3.888-17.353-9l6.48-4.465c2.089 3.312 6.769 5.833 11.665 5.833 3.169 0 6.12-1.008 6.12-3.673 0-5.616-22.681-3.672-22.681-16.49z"/></g><g fill="#ecc7de"><path d="M73.378 287.396h8.208v3.385c2.377-2.952 6.625-4.248 10.37-4.248 11.232 0 18.145 7.848 18.145 18.937 0 11.449-7.489 20.018-18.722 20.018-4.176 0-8.137-1.08-9.793-3.096v16.85h-8.208v-51.846zm8.208 12.89v12.961c1.8 3.024 5.185 4.608 8.857 4.608 6.697 0 11.161-4.752 11.161-11.737 0-7.56-4.032-11.953-10.513-11.953-4.752 0-7.993 2.88-9.505 6.12zM156.825 272.347c2.665 0 4.753 1.872 4.753 4.32 0 2.593-2.088 4.465-4.753 4.465-2.88 0-4.824-1.872-4.824-4.465 0-2.448 2.088-4.32 4.824-4.32zm-4.104 15.05h8.209v37.443h-8.209v-37.444zM239.7 316.271c-3.096 6.049-9.577 9.217-16.057 9.217-12.025 0-20.162-7.633-20.162-19.442 0-11.089 7.92-19.513 19.73-19.513 7.704 0 13.61 3.528 16.057 8.496l-6.12 4.033c-2.52-3.385-5.329-4.897-9.577-4.897-6.769 0-11.593 4.825-11.593 11.881 0 6.769 4.896 11.81 12.457 11.81 4.248 0 7.345-2.161 9.432-5.33l5.833 3.745zM279.08 297.693c0-6.912 5.762-11.16 15.41-11.16 6.625 0 12.673 3.096 15.122 6.624l-5.617 5.328c-2.232-2.591-6.193-4.32-10.873-4.32-3.024 0-5.544.792-5.544 3.384 0 5.185 22.682 3.385 22.682 16.562 0 7.848-7.129 11.377-15.41 11.377-8.352 0-14.69-3.888-17.353-9l6.48-4.465c2.089 3.312 6.769 5.832 11.665 5.832 3.169 0 6.12-1.008 6.12-3.672 0-5.617-22.681-3.672-22.681-16.49z"/></g><path d="M379.582 379.58H0V0h379.582v379.58zM15 364.58h349.582V15H15v349.58z" fill="#ecc7de"/><path d="M315.012 244.748H73.341v-14.325c4.642-2.175 11.09-4.617 19.344-7.32 8.253-2.702 18.054-5.636 29.403-8.795 6.874-1.896 15.128-3.966 24.76-6.215 9.63-2.247 20.544-4.703 32.756-7.373 13.58-2.95 24.026-5.546 31.337-7.794 7.308-2.247 13.967-5.02 19.99-8.321 3.954-2.176 7.131-4.898 9.542-8.163 2.408-3.266 3.611-7.916 3.611-13.956 0-8.778-5.764-15.22-17.28-19.328-11.521-4.108-26.308-6.162-44.363-6.162-11.18 0-21.755.895-31.724 2.686-9.973 1.79-17.453 4.266-22.44 7.425 1.201 2.249 2.71 4.916 4.515 8.005 1.805 3.092 2.708 6.11 2.708 9.059 0 2.67-2.708 5.04-8.125 7.11-5.416 2.071-13.455 3.107-24.115 3.107-8.601 0-15.218-1.212-19.86-3.634-4.643-2.423-6.964-5.67-6.964-9.743 0-3.792 2.58-7.6 7.738-11.428 5.158-3.827 12.548-7.356 22.18-10.586 9.454-3.16 21.15-5.723 35.078-7.689 13.928-1.965 28.973-2.95 45.136-2.95 35.245 0 63.23 3.213 83.953 9.638 20.72 6.426 31.08 15.01 31.08 25.753 0 5.126-1.849 9.796-5.546 14.01-3.7 4.212-9.672 7.936-17.925 11.164-9.117 3.581-19.774 6.653-31.982 9.217-12.212 2.564-30.865 6.126-55.97 10.69-14.959 2.739-28.886 5.6-41.782 8.585-12.896 2.986-23.471 5.882-31.725 8.69h198.341v18.643zM45.195 320.448c2.664 0 4.752 1.872 4.752 4.32 0 2.592-2.088 4.464-4.752 4.464-2.88 0-4.824-1.872-4.824-4.464 0-2.448 2.088-4.32 4.824-4.32z" fill="#ecc7de"/></svg>