<svg xmlns="http://www.w3.org/2000/svg" viewBox="0 0 15 20"><path d="M13.842 5.23c-.295-.745-.715-1.404-1.26-1.976s-1.201-1.226-1.964-1.556C9.855 1.368 8.998 1 8.044 1H2v15H0v2h2v2h2v-2h7v-2H4v-2h4.044c.953 0 1.811-.26 2.574-.59.763-.328 1.417-.826 1.963-1.399A6.135 6.135 0 0 0 13.842 10c.295-.755.442-1.56.442-2.391s-.147-1.632-.442-2.378zm-2.197 3.939a3.801 3.801 0 0 1-.78 1.287c-.338.364-.745.828-1.222 1.045-.477.217-1.01.499-1.599.499H4V4h4.044c.59 0 1.122-.122 1.6.095.476.217.883.396 1.221.769.338.373.598.748.78 1.242s.273.982.273 1.518c0 .556-.09 1.05-.273 1.545z" fill="#fa645a"/></svg>