<svg xmlns="http://www.w3.org/2000/svg" viewBox="0 0 28 36"><path d="M26.043 7.958a11.666 11.666 0 0 0-2.425-3.8c-1.05-1.1-2.308-1.77-3.775-2.404C18.376 1.121 16.726 1 14.893 1H3v28H0v4h3v3h4v-3h14v-4H7v-5h7.894c1.832 0 3.482-.087 4.95-.721 1.466-.633 2.724-1.386 3.774-2.486 1.05-1.1 1.858-2.318 2.425-3.767.567-1.45.85-2.947.85-4.547s-.283-3.087-.85-4.521zm-4.225 7.575a7.3 7.3 0 0 1-1.5 2.475c-.65.7-1.433 1.105-2.35 1.521-.917.417-1.942.471-3.074.471H7V5h7.894c1.132 0 2.157.063 3.074.479.917.417 1.7.91 2.35 1.627a7.426 7.426 0 0 1 1.5 2.463c.35.95.525 1.924.525 2.957a8.571 8.571 0 0 1-.525 3.007z" fill="#fff"/></svg>