<svg id="Layer_1" xmlns="http://www.w3.org/2000/svg" viewBox="0 0 202 94.0796"><style>.st0{fill:#fae1dc}.st1{fill:#b7ddeb}</style><g id="XMLID_1_"><path class="st0" d="M76.035 31.155v2.71c-1.9.38-3.81.84-5.72 1.15 0 1.18-.25 2.7.38 3.53.15.21.34.41.52.62h-57.65l-.13.14-6.81-6.23c-1.38-1.26-.63-3.57 1.23-3.78l20.77-2.34c.76-.09 1.42-.57 1.74-1.27l8.64-19.02c.39-.86 1.19-1.28 1.99-1.28s1.6.42 1.99 1.28l8.64 19.02c.32.7.98 1.18 1.75 1.27l20.76 2.34c1.08.12 1.76.95 1.9 1.86zM93.345 39.165h-15.9c1.31-2.01 3.69-3.35 6.41-3.35h3.08c2.72 0 5.1 1.34 6.41 3.35zM124.565 39.165h-15.91c1.31-2.01 3.7-3.35 6.41-3.35h3.08c2.72 0 5.11 1.34 6.42 3.35zM188.715 39.165h-57.93c.18-.21.36-.41.52-.62.63-.83.38-2.35.38-3.53-1.89-.31-3.77-.76-5.66-1.13v-3.02c.23-.79.88-1.46 1.84-1.57l20.77-2.34c.76-.09 1.42-.57 1.74-1.27l8.64-19.02a2.15 2.15 0 0 1 1.99-1.28c.8 0 1.6.42 1.99 1.28l8.64 19.02c.32.7.98 1.18 1.75 1.27l20.76 2.34c1.87.21 2.61 2.52 1.23 3.78l-6.65 6.09h-.01z"/><path class="st1" d="M200.655 29.265c.86 2.65.09 5.57-1.96 7.44l-1.68 1.54-12.6 11.51.38 1.85c-1.34.79-2.86 1.57-4.54 2.35l-.97-4.73c-.15-.75.1-1.53.67-2.05l8.76-8.01h.01l6.65-6.09c1.38-1.26.64-3.57-1.23-3.78l-20.76-2.34c-.77-.09-1.43-.57-1.75-1.27l-8.64-19.02a2.15 2.15 0 0 0-1.99-1.28c-.8 0-1.6.42-1.99 1.28l-8.64 19.02c-.32.7-.98 1.18-1.74 1.27l-20.77 2.34c-.96.11-1.61.78-1.84 1.57-1.6-.28-3.23-.49-4.91-.54.06-.36.13-.71.24-1.06a7.12 7.12 0 0 1 5.96-4.86l19.22-2.17 8.01-17.61a7.103 7.103 0 0 1 12.93 0l8 17.61 19.22 2.17a7.12 7.12 0 0 1 5.96 4.86zM199.155 41.205c-.23-.66-.45-1.13-.66-1.52 0-.01-.01-.01-.01-.02l.57-.5c1.23 2.03 1.46 3.32 1.46 5.49 0 4.29-2.5 8.24-7.05 11.77.02-.05.03-.11.04-.17.16-.69.31-1.34.54-1.84l.36-.78c1.06-.95 3.28-3.48 4.3-5.28 1.09-1.9.98-3.74.95-4.31-.06-1.33-.26-2.15-.5-2.84z"/><path class="st1" d="M198.785 43.585c0-1.14-.3-2.29-.84-3.44l.44-.4c1.16 2.45 1.08 3.58 1.13 4.73.01.35-.07 1.33-.27 2.12-.13.54-.5 1.31-.72 1.66-1.18 1.88-3.56 4-5.31 4.95l-.26.12c-.33.16-.86.19-1.45.16 4.72-3.16 7.28-6.53 7.28-9.9zM188.295 68.715c.43 2.1-.1 4.25-1.45 5.9a7.087 7.087 0 0 1-5.51 2.63c-1.22 0-2.43-.33-3.5-.93l-8.99-5.1c2.23-.63 4.38-1.3 6.46-1.99l4.96 2.81c.35.2.72.29 1.07.29 1.29 0 2.44-1.19 2.14-2.63l-.67-3.3c1.6-.68 3.12-1.4 4.58-2.13l.91 4.45zM186.835 60.525c.03.01.05.01.07.01-1.76.92-3.68 1.79-5.75 2.63.06-.12.13-.23.19-.35.56-1.04 1.09-2.03 1.77-2.33.89-.4 2.33-.17 3.72.04zM191.225 58.045c-.09.17-.19.33-.3.47-.14.17-.28.33-.46.43-.14.08-.32.12-.51.15-.16.03-.33.04-.51.04-.68.02-1.52-.1-2.35-.23h-.02c-.89-.14-1.81-.28-2.66-.28-.14 0-.27.01-.41.01.22-.41.41-.84.59-1.25.02-.04.05-.09.07-.14.09-.21.19-.43.29-.64.05-.09.1-.18.15-.28.06-.12.13-.25.19-.36.07-.12.15-.22.22-.32.05-.07.1-.15.15-.21.13-.15.27-.26.42-.34.2-.1.44-.16.69-.21l.33-.03c.16-.01.32-.03.5-.03.15 0 .32.01.48.01l.41.03c.23.01.47.03.7.06.19.02.37.03.56.06.82.09 1.59.18 2.34.15-.07.25-.12.5-.18.75-.18.78-.38 1.55-.69 2.16zM182.325 58.275c-.31.52-.67.94-1.12 1.12-.39.16-.97.1-1.62-.03.95-.36 1.86-.72 2.74-1.09zM177.755 64.685c-.15.06-.34.07-.54.07h-.31c-.74-.05-1.64-.32-2.53-.6-.99-.31-2.01-.62-2.97-.71-.06 0-.11-.01-.17-.01.29-.4.56-.82.82-1.22.08-.13.17-.26.25-.39.1-.16.21-.32.32-.47.06-.09.13-.18.2-.27.08-.11.15-.21.23-.3.09-.11.19-.2.28-.29.06-.06.12-.13.18-.18.16-.13.32-.23.48-.29a2.432 2.432 0 0 1 .98-.07c.16.01.32.02.49.05.14.03.28.05.43.09.13.02.27.05.4.09.21.05.41.1.61.16s.41.11.61.17c.98.29 1.97.58 2.89.61-.18.31-.34.61-.5.92-.16.3-.33.61-.5.9-.29.48-.6.93-.94 1.26-.06.06-.12.1-.18.16-.17.13-.34.25-.53.32zM173.885 65.715c.02.01.03.01.05.02-1.89.6-3.87 1.17-5.92 1.71l.07-.1c.26-.36.53-.73.8-1.05.45-.55.91-1 1.39-1.14.29-.09.63-.1 1-.08.79.08 1.71.36 2.61.64zM169.855 62.525c-.44.57-.9 1.05-1.42 1.2-.51.14-1.22-.03-1.98-.29 1.16-.3 2.29-.6 3.4-.91zM162.095 63.685c.18.02.36.06.55.11l.24.06c.23.07.47.15.71.24.04.01.07.02.1.03.3.11.61.24.91.36.97.39 1.96.79 2.9.9l-.37.49c-.13.17-.25.34-.37.51-.48.65-.96 1.29-1.48 1.76-.14.13-.29.24-.44.34-.18.11-.36.21-.55.26-.18.05-.39.04-.61.03-.2-.02-.4-.06-.62-.11-.66-.16-1.39-.45-2.12-.75-.97-.41-1.96-.82-2.92-.98.33-.38.66-.79.97-1.19.34-.44.69-.87 1.04-1.24l.14-.14c.13-.12.25-.23.38-.32l.15-.12c.17-.11.34-.2.51-.24.2-.05.42-.05.66-.03.07 0 .14.01.22.03zM157.235 68.505c.8 0 1.8.39 2.8.8-1.78.38-3.59.73-5.46 1.07.28-.32.56-.63.85-.91.47-.46.94-.82 1.41-.92.13-.03.26-.04.4-.04zM157.045 65.555c-.58.68-1.17 1.25-1.8 1.38-.6.13-1.46-.19-2.34-.6 1.4-.25 2.78-.51 4.14-.78zM151.265 71.335c-.03.02-.06.05-.09.06-.23.14-.46.24-.7.29-.23.04-.49.02-.77-.04-.04 0-.08-.02-.12-.03a5.39 5.39 0 0 1-.78-.25c-.53-.2-1.08-.47-1.62-.75-.86-.43-1.75-.87-2.62-1.11.38-.37.75-.77 1.11-1.17.3-.33.61-.66.92-.96.14-.14.28-.27.43-.39.13-.11.26-.21.39-.29.05-.04.11-.06.16-.1.18-.09.35-.17.52-.2.19-.03.4-.02.62.01.07.01.14.02.22.04.15.03.32.08.48.13.22.07.44.16.68.25.42.18.85.38 1.28.59.89.44 1.8.89 2.69 1.08-.16.16-.31.34-.46.51-.16.17-.31.34-.46.51-.41.48-.84.96-1.27 1.35-.2.18-.4.34-.61.47zM143.335 70.965c.74 0 1.62.38 2.51.82-1.62.23-3.26.44-4.93.64.09-.09.18-.18.27-.26.64-.6 1.29-1.09 1.89-1.18.08-.01.17-.02.26-.02zM143.995 67.745c-.71.75-1.43 1.42-2.15 1.53-.72.1-1.66-.38-2.63-.91 1.62-.2 3.21-.41 4.78-.62zM141.905 44.605c.59 1.84.08 3.79-1.35 5.09l-17 15.55.17.81a247 247 0 0 1-4.94.31l-.03-.18c-.35-1.67.22-3.42 1.48-4.57l7.5-6.86c.58-.42 1.09-.89 1.53-1.4l7.97-7.29-4.25-.46c.61-1.57 1.24-3.21 1.76-4.68l3.07.35c1.92.21 3.49 1.49 4.09 3.33zM137.255 73.445c-.06.03-.13.06-.19.09-.21.09-.41.17-.61.2-.2.02-.41-.01-.63-.06a1.74 1.74 0 0 1-.22-.05c-.15-.04-.3-.1-.46-.16-.23-.09-.46-.2-.7-.32-.4-.2-.81-.43-1.21-.66-.76-.44-1.53-.88-2.31-1.17.44-.36.85-.77 1.26-1.17.42-.41.84-.81 1.26-1.14.2-.16.4-.3.59-.41.03-.01.06-.04.09-.05.21-.12.43-.2.64-.22.22-.03.47 0 .74.07.03 0 .07.02.1.03.25.07.5.16.76.28.51.23 1.05.52 1.58.82.79.45 1.6.91 2.41 1.18-.37.32-.72.68-1.08 1.03-.36.36-.72.7-1.08 1.02-.15.13-.3.25-.45.36-.16.13-.33.24-.49.33zM129.285 72.625c.64 0 1.43.35 2.24.78-1.46.13-2.93.25-4.42.36.26-.22.52-.43.78-.6.44-.3.86-.5 1.25-.53.05 0 .1-.01.15-.01zM130.765 69.245c-.83.79-1.67 1.55-2.46 1.62-.76.07-1.8-.55-2.82-1.19 1.79-.13 3.54-.28 5.28-.43zM128.185 87.775c.3 1.44-.06 2.91-.98 4.04a4.872 4.872 0 0 1-6.18 1.17l-20.05-11.37.02-2.3h.01c1.93 0 3.86-.02 5.79-.06l16.65 9.45-2.09-10.04c1.63-.1 3.26-.22 4.89-.35l1.94 9.46zM123.595 74.515c-.15.09-.29.18-.43.25-.08.03-.15.07-.22.1-.21.08-.43.15-.63.17-.21.01-.43-.02-.66-.08-.07-.02-.14-.04-.22-.07-.15-.05-.32-.12-.48-.2-.08-.04-.17-.07-.25-.11-.2-.11-.39-.22-.59-.34-.01-.01-.02-.02-.03-.02h-.01c-.3-.19-.61-.39-.91-.59-.66-.42-1.32-.85-2-1.17.49-.36.97-.78 1.44-1.19l.4-.34c.4-.34.8-.66 1.18-.91.19-.11.38-.22.56-.3.19-.08.38-.14.56-.15.2-.02.41.01.64.06.21.06.43.15.66.25.58.27 1.19.66 1.79 1.04.69.45 1.4.9 2.12 1.21-.21.17-.43.34-.64.52s-.41.36-.62.54c-.3.27-.61.54-.91.78-.25.21-.5.39-.75.55zM117.165 74.325c-1.32.06-2.65.11-3.99.15.67-.48 1.33-.87 1.91-.9h.07c.6.01 1.3.34 2.01.75zM117.385 70.155c-.23.2-.46.4-.69.59-.47.37-.93.7-1.37.89-.22.09-.44.15-.65.16-.82 0-1.88-.7-2.9-1.43 1.89-.06 3.76-.13 5.61-.21zM105.435 17.735l6.09 13.42c-1.09.18-2.15.4-3.18.62-.6.13-1.19.26-1.77.37l-5.59-12.31-5.43 11.99c-.09-.02-.17-.03-.25-.05-1.3-.28-2.65-.58-4.06-.77l-.21-.03-.43-.06 5.97-13.18c.8-1.76 2.49-2.85 4.43-2.85 1.93 0 3.63 1.09 4.43 2.85zM105.865 71.065c.3-.22.6-.41.89-.56h.01c.16-.09.31-.16.47-.22.19-.06.37-.12.54-.12.17.01.35.06.54.12.15.04.3.1.45.17.64.28 1.33.73 2 1.2.61.43 1.22.87 1.85 1.2-.5.34-.98.72-1.46 1.1-.27.22-.54.43-.81.63 0 0 0 .01-.01.01-.21.16-.43.31-.65.45-.07.05-.14.09-.21.13-.17.1-.34.18-.5.26-.07.03-.14.06-.21.08-.23.08-.45.14-.66.15-.21-.01-.43-.06-.65-.14-.07-.02-.14-.05-.21-.08a3.71 3.71 0 0 1-.5-.23c-.08-.03-.15-.07-.22-.11a7.9 7.9 0 0 1-.66-.41c-.01-.01-.02-.01-.03-.02-.27-.18-.53-.37-.79-.56-.57-.41-1.15-.82-1.74-1.16.57-.35 1.11-.78 1.65-1.2.31-.24.61-.48.91-.69zM103.865 70.525c-.12.1-.25.2-.37.29-.87.68-1.75 1.28-2.5 1.28-.65 0-1.38-.44-2.12-1-.25-.18-.5-.38-.75-.57.96.01 1.91.02 2.88.02.96 0 1.91-.01 2.86-.02zM102.985 74.695c-.66 0-1.32.01-1.98.01-.67 0-1.33-.01-2-.01.7-.46 1.39-.81 1.99-.81.6 0 1.29.35 1.99.81zM101.385 39.165h7.27a6.555 6.555 0 0 0-1.13 3.68c0 3.89 3.38 7.04 7.54 7.04h3.08c4.17 0 7.55-3.15 7.55-7.04 0-1.35-.41-2.61-1.13-3.68h6.22c-.6.64-1.28 1.3-1.49 2.18a43 43 0 0 1-2.83 8.05c-.59 1.25-1.7 2.13-2.95 2.73-2.08 1.02-4.44 1.43-6.79 1.43-1.02 0-2.03-.08-3.02-.21-4.68-.66-7.21-4.05-9.15-7.93-.72-1.57-.8-3.39-1.76-4.83-.31-.47-.84-.58-1.41-.58v-.84z"/><path class="st1" d="M100.995 79.315l-.02 2.3-19.99 11.36c-2.06 1.17-4.72.63-6.18-1.16a4.852 4.852 0 0 1-.99-4.04l1.94-9.46c1.64.13 3.29.25 4.94.35l-2.06 10.09 16.6-9.5c1.92.04 3.83.06 5.76.06zM95.225 75.215c-.17.09-.34.17-.51.23-.06.03-.13.06-.2.08-.22.07-.44.13-.63.13-.22 0-.44-.06-.66-.14-.07-.02-.14-.06-.21-.09a4.658 4.658 0 0 1-.71-.38c-.22-.14-.44-.29-.66-.45 0 0 0-.01-.01-.01-.26-.2-.53-.42-.8-.63-.48-.38-.96-.76-1.46-1.09.64-.33 1.25-.77 1.86-1.21.67-.47 1.34-.92 1.97-1.2.15-.07.31-.13.46-.17.19-.06.38-.11.56-.12.17 0 .35.06.54.12.15.06.31.13.47.22.43.23.89.55 1.35.89l.45.36c.54.42 1.09.85 1.65 1.2-.59.34-1.17.75-1.73 1.16-.27.19-.54.38-.8.56-.02.01-.03.01-.04.02-.23.15-.45.29-.68.41-.07.04-.14.08-.21.11zM90.225 70.365c-1.02.73-2.07 1.42-2.89 1.43-.53-.02-1.09-.35-1.67-.78-.35-.26-.7-.56-1.04-.86 1.84.08 3.71.15 5.6.21zM88.815 74.475c-1.35-.04-2.69-.09-4.02-.15.76-.46 1.49-.82 2.1-.75.59.03 1.25.42 1.92.9zM81.765 61.615a4.893 4.893 0 0 1 1.49 4.57l-.04.18c-1.68-.09-3.33-.19-4.96-.31l.18-.86-16.99-15.5c-1.43-1.3-1.94-3.25-1.34-5.09a4.789 4.789 0 0 1 4.08-3.33l4.65-.53c.53 1.48 1.16 3.15 1.79 4.75l-5.89.66 17.03 15.46zM83.855 35.815c-2.72 0-5.1 1.34-6.41 3.35h-6.23c-.18-.21-.37-.41-.52-.62-.63-.83-.38-2.35-.38-3.53 1.91-.31 3.82-.77 5.72-1.15 2.22-.44 4.45-.81 6.72-.81h.12c2.44.01 4.89.36 7.31.69 2.72.37 5.34 1.19 8.06 1.5.87.1 1.75.15 2.64.15.04 0 .08-.01.12-.01.03 0 .07.01.11.01.89 0 1.77-.05 2.65-.15 2.71-.31 5.34-1.13 8.05-1.5 2.42-.33 4.87-.68 7.31-.69h.12c2.29 0 4.54.37 6.78.83 1.89.37 3.77.82 5.66 1.13 0 1.18.25 2.7-.38 3.53-.16.21-.34.41-.52.62h-6.22c-1.31-2.01-3.7-3.35-6.42-3.35h-3.08c-2.71 0-5.1 1.34-6.41 3.35H93.345c-1.31-2.01-3.69-3.35-6.41-3.35h-3.08zM80.645 29.265c.12.38.2.76.26 1.14-1.67.15-3.29.43-4.87.75-.14-.91-.82-1.74-1.9-1.86l-20.76-2.34c-.77-.09-1.43-.57-1.75-1.27l-8.64-19.02c-.39-.86-1.19-1.28-1.99-1.28s-1.6.42-1.99 1.28l-8.64 19.02c-.32.7-.98 1.18-1.74 1.27l-20.77 2.34c-1.86.21-2.61 2.52-1.23 3.78l6.81 6.23 8.61 7.87c.57.52.82 1.3.67 2.05l-.97 4.73c-1.68-.78-3.2-1.56-4.54-2.35l.38-1.85-12.15-11.11-2.13-1.94a7.114 7.114 0 0 1-1.96-7.44 7.12 7.12 0 0 1 5.96-4.86l19.22-2.17 8.01-17.61a7.103 7.103 0 0 1 12.93 0l8 17.61 19.22 2.17a7.12 7.12 0 0 1 5.96 4.86zM81.035 74.685c-.17.08-.33.15-.49.2-.07.03-.14.05-.22.07-.22.06-.44.1-.64.08-.21-.02-.42-.08-.63-.17-.08-.03-.15-.06-.22-.1-.14-.07-.29-.16-.43-.25-.25-.16-.51-.35-.76-.55-.3-.25-.61-.51-.9-.77-.42-.37-.83-.74-1.26-1.07.72-.3 1.43-.76 2.13-1.21.6-.38 1.22-.77 1.79-1.04.23-.1.45-.19.66-.24.23-.06.44-.09.64-.07.18.01.37.07.56.15.18.08.37.19.55.3.52.33 1.06.79 1.59 1.25.47.41.94.82 1.43 1.18-.68.32-1.35.76-2.01 1.18-.52.34-1.04.68-1.54.95-.09.04-.17.08-.25.11zM76.315 42.845c0 3.89 3.37 7.04 7.54 7.04h3.08c4.17 0 7.54-3.15 7.54-7.04 0-1.35-.41-2.61-1.13-3.68h8.04v.84h-.77c-.57 0-1.1.11-1.41.58-.95 1.44-1.03 3.26-1.76 4.83-1.93 3.88-4.47 7.27-9.15 7.93-.99.13-2 .21-3.02.21-2.35 0-4.7-.41-6.79-1.43-1.25-.6-2.36-1.48-2.95-2.73a43 43 0 0 1-2.83-8.05c-.21-.88-.89-1.54-1.49-2.18h6.23a6.555 6.555 0 0 0-1.13 3.68zM76.525 69.675c-.95.6-1.89 1.2-2.67 1.2-.06 0-.11 0-.16-.01-.69-.06-1.42-.64-2.15-1.32-.1-.1-.21-.2-.31-.3 1.74.15 3.5.3 5.29.43zM72.865 72.635c.63.06 1.33.54 2.03 1.13-1.49-.11-2.96-.23-4.41-.36.86-.46 1.72-.83 2.38-.77zM67.945 68.595c.2.11.4.24.6.4.32.26.64.55.95.85.11.1.21.2.32.3.41.4.83.81 1.26 1.17-.78.29-1.55.73-2.3 1.17-.41.24-.82.46-1.22.66-.24.13-.48.23-.71.32-.16.06-.31.12-.45.16-.08.02-.15.04-.22.05-.22.05-.43.08-.62.06-.2-.03-.41-.1-.61-.2-.07-.03-.13-.06-.19-.09-.17-.09-.33-.2-.49-.32-.15-.11-.31-.24-.46-.37-.36-.32-.72-.66-1.08-1.02-.35-.35-.71-.71-1.08-1.04.8-.26 1.61-.72 2.4-1.17.53-.3 1.07-.6 1.59-.82.26-.12.5-.21.75-.27.03-.01.07-.03.1-.04.27-.07.52-.1.75-.07.2.02.42.1.64.22.02.01.05.03.07.05zM62.775 68.355c-.88.49-1.76.93-2.44.93-.06 0-.13 0-.19-.01-.45-.07-.9-.36-1.35-.75-.27-.23-.53-.51-.8-.79 1.57.22 3.16.43 4.78.62zM58.925 70.985c.7.1 1.43.73 2.16 1.44-1.67-.2-3.31-.41-4.92-.64 1.01-.49 2-.91 2.76-.8zM55.405 67.375c.3.3.61.63.91.96.18.2.36.4.55.6.18.2.38.39.57.57-.88.24-1.75.68-2.61 1.11-.55.28-1.1.55-1.62.75-.27.11-.53.19-.78.25-.04.01-.09.03-.13.03-.27.06-.53.08-.76.04-.24-.04-.48-.14-.71-.28-.02-.02-.05-.04-.07-.06a5.26 5.26 0 0 1-.63-.48c-.43-.39-.85-.87-1.26-1.34-.3-.35-.61-.7-.93-1.03.89-.2 1.79-.64 2.68-1.08.43-.21.86-.41 1.29-.59.23-.09.45-.18.67-.25.17-.05.33-.1.49-.13.07-.02.14-.03.21-.04.22-.03.44-.04.62-.01.17.03.35.11.52.2.06.03.11.06.17.1.13.08.25.18.38.29.15.12.29.25.44.39zM49.085 66.335c-.74.35-1.47.63-2.05.63-.1 0-.2-.01-.3-.03-.55-.11-1.07-.56-1.58-1.13-.07-.08-.14-.17-.21-.25 1.35.27 2.73.53 4.14.78zM45.175 68.555c.75.16 1.51.98 2.25 1.82-1.86-.34-3.67-.69-5.44-1.07 1.16-.48 2.34-.92 3.19-.75zM43.975 66.945c-.96.16-1.95.57-2.91.97-.72.3-1.45.59-2.1.75-.23.06-.44.1-.64.12a2.4 2.4 0 0 1-.61-.03c-.19-.05-.37-.16-.55-.27-.15-.1-.3-.21-.44-.34-.52-.47-1-1.11-1.48-1.76-.24-.34-.49-.68-.75-1 .93-.12 1.92-.51 2.88-.9.31-.13.61-.25.92-.36.01-.01.03-.01.04-.02.26-.09.51-.18.76-.25l.24-.06c.19-.05.37-.09.55-.11.08-.02.15-.03.22-.03.24-.02.46-.02.66.03.17.04.34.13.51.24.05.04.1.08.16.12.12.09.24.2.37.32.05.05.1.09.15.14.16.17.32.35.48.54v.01c.19.22.37.46.55.69.16.21.32.41.48.61.17.2.34.4.51.59zM35.525 63.425c-.76.26-1.47.44-1.97.3-.53-.15-.99-.63-1.43-1.21 1.11.31 2.24.61 3.4.91zM33.925 67.345c.02.04.05.07.07.1-2.05-.54-4.03-1.11-5.92-1.71.02 0 .04-.01.05-.01.9-.28 1.83-.57 2.61-.64.37-.03.7-.01.99.08.58.17 1.14.77 1.67 1.47.18.23.35.47.53.71zM33.155 71.215l-8.99 5.1c-1.07.6-2.28.93-3.5.93-2.14 0-4.15-.96-5.51-2.63a7.046 7.046 0 0 1-1.45-5.9l.91-4.45c1.47.73 2.98 1.45 4.59 2.13l-.68 3.3c-.29 1.44.85 2.63 2.14 2.63.36 0 .73-.09 1.08-.29l4.96-2.81c2.07.69 4.22 1.36 6.45 1.99zM29.365 61.355c.1.15.2.3.31.46.08.13.17.26.26.39.26.41.53.84.83 1.24-.05 0-.11.01-.16.01-.96.08-1.97.4-2.96.7-.89.28-1.79.55-2.53.6-.11.01-.22.01-.32.01-.2-.01-.39-.02-.55-.08-.18-.06-.35-.19-.52-.32-.06-.05-.13-.1-.19-.16-.34-.33-.64-.77-.93-1.25-.17-.29-.34-.6-.5-.9-.16-.31-.33-.63-.51-.93.91-.04 1.9-.33 2.87-.61l.62-.18c.2-.06.4-.11.6-.16.14-.03.27-.06.4-.09.15-.03.29-.06.43-.08.17-.03.33-.04.49-.05.1-.01.2-.02.3-.02.25 0 .48.02.68.09.17.06.33.16.48.29.06.05.12.11.18.17.1.09.19.19.28.3.08.09.16.19.23.29.07.09.14.18.21.28zM22.395 59.355c-.64.14-1.22.2-1.62.04-.45-.19-.81-.61-1.13-1.13.89.37 1.81.73 2.75 1.09zM20.665 62.825c.06.11.12.23.18.34-2.05-.84-3.97-1.71-5.73-2.62.02 0 .04 0 .06-.01 1.39-.22 2.83-.44 3.72-.04.68.3 1.21 1.29 1.77 2.33zM17.975 58.645c-.97-.05-2.01.11-3.04.27h-.01c-.84.13-1.67.25-2.35.23-.19 0-.36-.01-.52-.04-.19-.03-.37-.07-.51-.15-.18-.1-.32-.26-.46-.43-.11-.14-.21-.31-.3-.48-.31-.61-.51-1.38-.69-2.14l-.18-.78c.71.02 1.5-.06 2.31-.15l.56-.06.69-.06c.15-.01.29-.02.43-.02.16-.01.32-.02.47-.01.18 0 .34.01.51.03.11.01.22.01.32.03.25.04.49.11.69.21.15.07.28.19.41.34.06.06.1.14.15.21.08.1.15.19.23.31.06.11.12.24.19.36.05.1.1.19.15.29.1.2.19.41.29.62.02.05.04.1.07.16.18.41.37.84.59 1.26zM3.215 43.585c0 3.37 2.56 6.73 7.27 9.9-.59.02-1.11 0-1.45-.16l-.43-.2c-1.75-.95-4.04-3.05-5.23-4.93-.22-.34-.59-1.12-.72-1.66-.19-.79-.28-1.77-.26-2.12.05-1.15-.04-2.28 1.13-4.75l.54.48c-.55 1.15-.85 2.3-.85 3.44z"/><path class="st1" d="M7.955 54.425c.23.49.39 1.15.55 1.84l.03.17c-4.55-3.54-7.05-7.49-7.05-11.78 0-2.17.23-3.46 1.46-5.49l.49.42c-.01.01-.01.02-.01.03-.22.39-.45.87-.68 1.54-.23.68-.43 1.5-.5 2.83-.03.57-.14 2.42.95 4.32 1.03 1.8 3.47 4.65 4.52 5.59l.24.53z"/></g></svg>