<svg id="Layer_1" xmlns="http://www.w3.org/2000/svg" viewBox="-857.3877 -138.6677 175.6929 166"><style>.st0{fill:#f26522}.st1{fill:#d1eaff}.st2{stroke:#00044c;stroke-miterlimit:10}.st2,.st3{fill:none}</style><path class="st0" d="M-706.438-15.548l1.02 7.434 5.928 4.601-6.948-2.833-6.949 2.833 5.928-4.601zM-687.223-2.178l.488 4.211 4.21.489-4.21.488-.488 4.21-.488-4.21-4.211-.488 4.21-.489zM-700.937-1.076l.59 5.09 5.092.591-5.091.59-.59 5.092-.59-5.092-5.092-.59 5.091-.59z"/><path class="st0" d="M-686.088-2.156l-.647 4.19 3.93 1.588-4.19-.647-1.588 3.93.647-4.19-3.93-1.588 4.19.647z"/><path class="st1" d="M-758.316-12.995l-1.021 7.434-5.928 4.601 6.949-2.833 6.948 2.833-5.927-4.601zM-777.531.375l-.488 4.211-4.211.488 4.21.489.489 4.21.488-4.21 4.21-.489-4.21-.488zM-763.818 1.477l-.59 5.09-5.091.591 5.091.59.59 5.092.59-5.092 5.092-.59-5.091-.59z"/><path class="st1" d="M-778.667.397l.648 4.19-3.93 1.588 4.189-.647 1.589 3.93-.648-4.19 3.93-1.588-4.19.647z"/><path class="st2" d="M-816.524-73.171l20.335-7.032M-836.135-66.39l12.408-4.29M-826.536-78.646c-13.222 4.579-18.534 6.491-20.723 7.528-6.703 3.174-8.446 11.704-8.746 18.422-.784 17.527 7.137 40.503 22.124 50.873 6.478 4.482 11.853 3.14 18.576.788 9.575-3.35 46.758-16.161 55.67-19.48a14.855 14.855 0 0 0 2.354-1.116M-749.058-46.87c-.26-2.75-.802-5.595-1.713-8.882-2.756-9.946-6.723-20.011-13.344-27.997-4.539-5.475-12.554-12.665-20.32-9.357 0 0-18.156 6.161-35 11.995"/><path class="st2" d="M-789.96-46.87a5.718 5.718 0 1 1-10.284.468c-8.892-9.807-17.483-25.526-21.873-44.302-5.274-22.565-1.698-37.44 2.968-43.322 2.388-3.01 4.75-3.358 6.32-3.358.215 0 .43.008.65.022 11.025.744 27.077 18.356 35.848 43.836"/><path class="st2" d="M-761.662-26.225c-.447.123-.853.15-1.195.15-.128 0-.258-.004-.389-.013-7.553-.51-19.044-14.228-23.456-33.099-3.162-13.528-1.018-22.446 1.78-25.972 1.43-1.804 2.847-2.013 3.788-2.013.13 0 .258.005.39.013 7.553.51 19.044 14.228 23.456 33.1a61.917 61.917 0 0 1 1.258 7.19h-10.728"/><path class="st3" d="M-724.956 14.113zM-725.145 13.898l.01.01-.01-.01zM-725.57 13.646l.05.023-.05-.024zM-722.47 21.974l.408.208c.005.001-.143-.072-.409-.208zM-726.131 13.418l.006.003zM-724.134 11.73l.297.028-.297-.028zM-736.264 17.962a58.684 58.684 0 0 1 .016-.005l-.016.005zM-708.4 18.858c1.733.317 2.973.755 3.603 1.316-.63-.562-1.87-1-3.603-1.316zM-723.89 21.234zM-737.874 23.14c-.24.068-.49.117-.745.157.505-.032.729-.085.745-.156zM-724.89 14.38v-.004.004zM-739.335 22.598c.513.138 1.017.294 1.462.541.023-.129-.618-.316-1.462-.541zM-725.624 15.106a2.751 2.751 0 0 1 0 0zM-722.062 22.182c2.137 1.045 1.88 2.417-1.954 3.425 3.834-1.007 4.091-2.38 1.954-3.425z"/><path class="st0" d="M-706.55 15.943a4.432 4.432 0 0 0-.193-.01c-.597.626-2.152 1.33-5.797 2.1 1.981-.42 4.317-1.128 5.835-2.524.297-.273.584-.604.621-1.005.072-.772-.765-1.29-1.498-1.54-4.505-1.545-10.324-2.31-15.464-2.212 4.195-1.868 6.67-6.462 5.688-11.138l-.641-3.056-.347-1.592-.54-1.86c-.396-1.32-.8-2.8-1.457-4.368l-.958-2.436c-.374-.826-.8-1.666-1.217-2.526-.783-1.737-1.911-3.443-2.96-5.204-.583-.857-1.216-1.701-1.833-2.555-.32-.42-.605-.862-.958-1.265l-1.051-1.215c-1.349-1.656-2.958-3.123-4.493-4.59-1.671-1.349-3.276-2.708-5.04-3.798l-1.276-.845c-.42-.281-.883-.5-1.316-.748-.882-.476-1.734-.958-2.59-1.39-1.778-.759-3.414-1.57-5.085-2.065-.821-.272-1.607-.55-2.375-.782l-2.26-.553c-1.419-.39-2.791-.568-3.967-.755l-1.64-.248-1.385-.1-2.205-.16.049.013c1.347.35 2.914.718 4.455 1.304l2.468.862c.836.343 1.688.738 2.573 1.127 1.8.724 3.548 1.8 5.425 2.815.902.565 1.795 1.184 2.714 1.794.452.316.934.6 1.368.951l1.316 1.052c1.816 1.36 3.438 3 5.112 4.61 1.526 1.736 3.113 3.453 4.407 5.35l1.011 1.39c.339.46.604.959.907 1.435.58.964 1.176 1.913 1.717 2.869.956 1.963 1.994 3.844 2.666 5.74.364.938.738 1.85 1.059 2.743l.792 2.623c.554 1.683.847 3.26 1.148 4.657l.407 1.964.225 1.675.413 3.196a8.163 8.163 0 0 1-1.628 6.037l.214.02.297.028c.574.053 1.129.106 1.645.158 2.585.262 4.512.51 6.02.744 1.759.265 2.897.515 3.686.75.574.17.969.332 1.257.484.334.178.518.343.64.495a.813.813 0 0 1 .05.437c-.108.4-.123.673-.113.784.003.036.009.056.015.062.006.248-.06.571-.382.97-.341.421-.971.927-2.13 1.52.215-.042.395-.084.596-.127 2.112.442 3.618.722 4.029.799l.124.024c1.733.316 2.973.754 3.603 1.316.378.336.537.718.45 1.146 8.296-3.398 5.45-5.481-2.203-5.377zM-725.202 14.825c.052-.041.108-.083.148-.125-.04.042-.097.084-.148.125zM-725.054 14.7a.585.585 0 0 1 0 0z"/><path class="st1" d="M-722.062 22.182c.005.001-.143-.072-.409-.208a99.804 99.804 0 0 1-1.42-.74l-.287-.152c-2.573.494-5.074.911-6.893 1.166-2.14.259-4.979.294-8.815.189l-.064-.002c-2.055-.53-2.518-1.171-2.125-1.814.343-.56 1.333-1.12 2.512-1.61-.004.004.777-.402 3.282-1.045l.017-.004.016-.005c.362-.092.76-.19 1.195-.292 1.69-.406 3.896-.877 5.789-1.38.967-.255 1.874-.508 2.641-.778.38-.133.715-.267.999-.401.17-.093.305-.187.421-.28.052-.042.109-.084.149-.126a.585.585 0 0 0 .163-.32v-.004a.393.393 0 0 0-.036-.21.772.772 0 0 0-.208-.259c-.004-.002-.006-.006-.01-.01a2.134 2.134 0 0 0-.376-.229l-.049-.023a5.194 5.194 0 0 0-.562-.227c-.36-.124-.8-.248-1.348-.372a47.532 47.532 0 0 0-3.5-.65 6.625 6.625 0 0 0 .339-3.324l-.434-2.82c-.134-.894-.296-1.977-.577-3.221l-.413-1.974-.228-1.064-.298-1.113c-.415-1.514-.81-3.146-1.433-4.848-.3-.85-.567-1.725-.914-2.606l-1.121-2.673c-.35-.908-.85-1.797-1.304-2.7-.471-.899-.898-1.819-1.479-2.69-.553-.88-1.087-1.769-1.664-2.635l-1.897-2.51c-.3-.424-.662-.808-1.017-1.194l-1.059-1.152c-.358-.376-.686-.771-1.066-1.122l-1.152-1.029c-1.47-1.415-3.158-2.52-4.708-3.627-1.68-.938-3.22-1.927-4.842-2.551-.797-.334-1.543-.707-2.304-.97l-2.212-.713c-1.385-.505-2.758-.71-3.914-.984-.584-.118-1.123-.263-1.627-.33l-1.386-.172-2.631-.324 1.618.568.883.31 1.318.462c.477.173.96.426 1.49.66 1.044.504 2.241.949 3.444 1.713l1.891 1.097c.642.39 1.25.887 1.899 1.34 1.329.866 2.506 2.068 3.778 3.176 1.137 1.275 2.36 2.5 3.333 3.975l.772 1.06c.252.358.453.76.681 1.136l.665 1.14c.223.378.451.75.62 1.164l1.1 2.389c.316.819.591 1.652.885 2.458.319.791.5 1.648.723 2.462.207.823.459 1.606.579 2.435l.438 2.385c.127.781.185 1.57.278 2.319.21 1.489.232 2.947.304 4.267l.047.968-.007.938-.018 1.726c.012 1.075-.056 2.027-.11 2.809l-.152 2.443-.017.256a6.62 6.62 0 0 0 1.48 4.568c-.214.03-.426.063-.64.093-4.09.563-9.154-.643-12.72 2.016-1.01.753-1.738 2.024-1.48 3.257.213 1.017 1.038 1.8 1.93 2.333 2.074 1.237 4.41 1.421 6.772 1.39 1.96 1.461 5.69 2.802 12.135 3.113 5.443.253 9.78-.187 12.386-.87 3.834-1.007 4.091-2.379 1.954-3.424z"/></svg>