<svg id="Layer_1" xmlns="http://www.w3.org/2000/svg" viewBox="-1500.9515 -150.9396 142.6929 161"><style>.st0,.st1{fill:none;stroke-miterlimit:10}.st0{stroke-width:2;stroke:#d1eaff}.st1{stroke:#00044c}</style><path class="st0" d="M-1491.885-122.87c-2.761 10.279 2.369 17.826 11.863 19.347.09.274.214.583.291.904 1.04 4.294 3.712 7.245 7.606 9.145 2.874 1.403 5.955 1.849 9.127 1.745.39-.013.78-.067 1.165-.133 1.486-.254 2.426-1.394 2.266-2.73-.173-1.442-1.35-2.302-2.922-2.283-1.407.017-2.84.043-4.22-.187-2.727-.455-5.14-1.596-6.798-3.93-.465-.656-.765-1.43-1.166-2.198 2.008-.34 3.846-.582 5.65-.977 1.877-.41 2.63-2.334 1.588-3.867-.652-.96-1.603-1.2-2.706-1.04-1.45.21-2.898.433-4.352.593a17.76 17.76 0 0 1-7.113-.67c-4.355-1.315-7.249-5.99-5.36-11.186.882.255 1.764.528 2.657.764 2.91.77 5.866 1.042 8.863.724 1.618-.172 2.685-1.253 2.613-2.597-.085-1.584-1.544-2.637-3.045-2.485-2.3.232-4.599.08-6.85-.455-3.783-.901-7.054-2.609-9.095-6.113-1.408-2.417-2.044-5.072-2.202-7.832-.073-1.275.267-2.53.871-3.672.968-1.828 3.118-2.472 4.888-1.407.7.42 1.362.98 1.881 1.61 4.14 5.02 9.431 8.606 14.84 12.068 4.072 2.607 8.144 5.222 12.107 7.991 2.818 1.97 5.272 4.38 6.995 7.413 2.024 3.564 2.613 7.33 1.37 11.297-.188.6-.496 1.164-.75 1.744-.543 1.248-.192 2.492.908 3.22 1.103.728 2.394.564 3.284-.5.368-.44.648-.98.865-1.516 2.337-5.793 1.75-11.398-1.25-16.775-2.114-3.787-5.206-6.74-8.702-9.205-3.91-2.757-7.971-5.302-11.992-7.9-4.148-2.682-8.319-5.33-11.771-8.924-.982-1.022-1.907-2.099-2.89-3.12-1.965-2.04-4.307-3.121-7.212-2.937-3.096.197-5.35 1.68-6.926 4.273-1.203 1.982-1.658 4.178-1.566 6.466.181 4.504 1.423 8.675 4.24 12.26.866 1.105 1.946 2.04 2.95 3.076zM-1406.678-122.87c-2.761 10.279 2.369 17.826 11.863 19.347.09.274.214.583.291.904 1.04 4.294 3.712 7.245 7.606 9.145 2.874 1.403 5.955 1.849 9.127 1.745.39-.013.78-.067 1.165-.133 1.486-.254 2.426-1.394 2.266-2.73-.172-1.442-1.35-2.302-2.922-2.283-1.407.017-2.84.043-4.22-.187-2.727-.455-5.14-1.596-6.798-3.93-.465-.656-.765-1.43-1.166-2.198 2.008-.34 3.846-.582 5.65-.977 1.877-.41 2.63-2.334 1.588-3.867-.652-.96-1.603-1.2-2.706-1.04-1.45.21-2.898.433-4.352.593a17.76 17.76 0 0 1-7.113-.67c-4.355-1.315-7.249-5.99-5.36-11.186.882.255 1.764.528 2.657.764 2.91.77 5.866 1.042 8.863.724 1.618-.172 2.685-1.253 2.613-2.597-.085-1.584-1.544-2.637-3.045-2.485-2.3.232-4.599.08-6.85-.455-3.783-.901-7.054-2.609-9.095-6.113-1.408-2.417-2.044-5.072-2.202-7.832-.073-1.275.267-2.53.871-3.672.968-1.828 3.118-2.472 4.888-1.407.7.42 1.362.98 1.881 1.61 4.14 5.02 9.431 8.606 14.84 12.068 4.072 2.607 8.144 5.222 12.107 7.991 2.818 1.97 5.272 4.38 6.995 7.413 2.024 3.564 2.613 7.33 1.37 11.297-.188.6-.496 1.164-.75 1.744-.543 1.248-.192 2.492.908 3.22 1.103.728 2.394.564 3.284-.5.368-.44.648-.98.865-1.516 2.337-5.793 1.75-11.398-1.25-16.775-2.114-3.787-5.206-6.74-8.702-9.205-3.91-2.757-7.971-5.302-11.992-7.9-4.148-2.682-8.319-5.33-11.771-8.924-.982-1.022-1.907-2.099-2.89-3.12-1.965-2.04-4.307-3.121-7.212-2.937-3.096.197-5.35 1.68-6.926 4.273-1.203 1.982-1.658 4.178-1.566 6.466.181 4.504 1.423 8.675 4.24 12.26.866 1.105 1.946 2.04 2.95 3.076z"/><path class="st1" d="M-1452.931-85.415h78.14v94h-78.14z"/><path class="st1" d="M-1444.235-29.763l25.845-29.023 13.462 14.9 6.551-7.661 14.89 15.063"/><circle class="st1" cx="-1433.839" cy="-58.826" r="4.692"/><path class="st1" d="M-1445.7-77.042h63.678v63.678h-63.678z"/></svg>