<svg id="Layer_1" xmlns="http://www.w3.org/2000/svg" viewBox="-1179.1907 -114.4072 140.0557 119"><style>.st0,.st1,.st2{fill:none;stroke:#00044c;stroke-miterlimit:10}.st1,.st2{stroke:#d1eaff;stroke-width:2}.st2{stroke-width:4}.st3{fill:#d1eaff}.st4{fill:none;stroke:#d1eaff;stroke-miterlimit:10}</style><circle class="st0" cx="-1109.062" cy="-41.19" r="44.112"/><path class="st0" d="M-1087.21-41.482c0 14.295-11.588 25.884-25.883 25.884-7.695 0-14.606-3.359-19.347-8.69M-1085.89-51.475l-8.713-4-8.714 4"/><circle class="st0" cx="-1130.347" cy="-52.759" r="5.772"/><path class="st1" d="M-1161.813-22.924c1.65 0 3-1.35 3-3v-35.222c0-1.65-1.35-3-3-3s-3 1.35-3 3v35.222c0 1.65 1.35 3 3 3z"/><path class="st2" d="M-1167.636-69.594l1.099.455c1.229.493 2.82-.547 3.623-2.224 21.566-45.164 86.434-45.164 108 0 .804 1.676 2.395 2.719 3.624 2.224l1.098-.455c1.227-.492 1.578-2.508.682-4.38-23.725-49.683-95.083-49.683-118.807 0-.896 1.872-.545 3.889.681 4.38z"/><path class="st1" d="M-1167.813-31.48c1.65 0 3-1.35 3-3v-18.11c0-1.65-1.35-3-3-3s-3 1.35-3 3v18.11c0 1.65 1.35 3 3 3zM-1173.813-31.48c1.65 0 3-1.35 3-3v-18.11c0-1.65-1.35-3-3-3s-3 1.35-3 3v18.11c0 1.65 1.35 3 3 3zM-1056.513-22.924c-1.65 0-3-1.35-3-3v-35.222c0-1.65 1.35-3 3-3s3 1.35 3 3v35.222c0 1.65-1.35 3-3 3zM-1050.513-31.48c-1.65 0-3-1.35-3-3v-18.11c0-1.65 1.35-3 3-3s3 1.35 3 3v18.11c0 1.65-1.35 3-3 3zM-1044.513-31.48c-1.65 0-3-1.35-3-3v-18.11c0-1.65 1.35-3 3-3s3 1.35 3 3v18.11c0 1.65-1.35 3-3 3z"/><path class="st3" d="M-1078.222-3.804a109.515 109.515 0 0 1-5.042-.233l-1.903-.147 1.898-.182c1.206-.13 2.926-.32 4.973-.634 4.09-.603 9.504-1.699 14.632-3.406 2.554-.864 5.048-1.852 7.202-2.982.933-.48 1.801-.986 2.587-1.5-.879.34-1.817.658-2.816.936-2.3.66-4.878 1.123-7.469 1.458-5.205.648-10.506.67-14.45.48a104.245 104.245 0 0 1-4.76-.325l-1.797-.179-.077-.009a6.37 6.37 0 1 0 .076 12.676l2.004-.213c1.274-.15 3.09-.37 5.255-.725 4.331-.686 10.06-1.898 15.626-3.8 3.968-1.365 7.866-3.084 11.068-5.158-3.505 1.501-7.54 2.451-11.563 3.071-5.644.841-11.26.98-15.444.872z"/><path class="st4" d="M-1045.858-22.251a3.848 3.848 0 0 0-3.788 3.906l.008.5c0 .055.005.227.001.215a.027.027 0 0 1 .006-.028c.005-.003.032-.027.039-.005-.01.047-.018.098-.023.155-.02.226-.123.569-.39 1.02-.247.452-.687 1-1.282 1.576-.668.663-1.555 1.35-2.588 2.024a29.105 29.105 0 0 1-2.587 1.5c-2.154 1.13-4.648 2.118-7.202 2.982-5.128 1.708-10.542 2.803-14.633 3.406-2.047.314-3.767.504-4.973.634l-1.898.182 1.904.147c1.213.08 2.95.19 5.042.233 4.183.108 9.8-.031 15.443-.872 4.023-.62 8.059-1.57 11.563-3.07 1.403-.602 2.73-1.282 3.922-2.077 1.039-.697 1.982-1.476 2.76-2.365.783-.864 1.399-1.824 1.786-2.736l.267-.652c.081-.236.149-.511.207-.743.057-.238.104-.461.143-.665l.054-.323.078-.492a3.847 3.847 0 0 0-3.86-4.452z"/></svg>